SplineFontDB: 3.0
FontName: StickNoBillsSinhala-Bold
FullName: Stick No Bills
FamilyName: Stick No Bills
OS2StyleName: "regular"
Weight: Bold
Copyright: Remove All VKern Pairs
UComments: "2015-2-15: Created with FontForge (http://fontforge.org) The  Free Font Editor"
Version: 1.0
ItalicAngle: 0
UnderlinePosition: 0
UnderlineWidth: 0
Ascent: 774
Descent: 250
InvalidEm: 0
UFOAscent: 819
UFODescent: -205
LayerCount: 4
Layer: 0 0 "Back" 1
Layer: 1 0 "Fore" 0
Layer: 2 0 "Back 2" 1
Layer: 3 0 "Back 3" 1
PreferredKerning: 4
FSType: 0
OS2Version: 0
OS2_WeightWidthSlopeOnly: 0
OS2_UseTypoMetrics: 0
CreationTime: 1435774564
ModificationTime: 1442910848
PfmFamily: 16
TTFWeight: 400
TTFWidth: 5
LineGap: 0
VLineGap: 0
OS2TypoAscent: 0
OS2TypoAOffset: 1
OS2TypoDescent: 0
OS2TypoDOffset: 1
OS2TypoLinegap: 0
OS2WinAscent: 0
OS2WinAOffset: 1
OS2WinDescent: 0
OS2WinDOffset: 1
HheadAscent: 0
HheadAOffset: 1
HheadDescent: 0
HheadDOffset: 1
OS2CapHeight: 0
OS2XHeight: 0
OS2Vendor: 'PfEd'
OS2UnicodeRanges: 00000002.00000000.00000000.00000000
Lookup: 4 0 0 "si_akhands" { "si_akhands subtable"  } ['akhn' ('sinh' <'dflt' > ) ]
Lookup: 4 0 0 "si_reph" { "si_reph subtable"  } ['rphf' ('sinh' <'dflt' > ) ]
Lookup: 4 0 0 "si_halant_1" { "si_halant_1 subtable"  } ['haln' ('sinh' <'dflt' > ) ]
Lookup: 4 0 0 "si_abvs_1" { "si_abvs_1 subtable"  } ['abvs' ('sinh' <'dflt' > ) ]
Lookup: 4 0 0 "si_abvs_2" { "si_abvs_2 subtable"  } ['abvs' ('sinh' <'dflt' > ) ]
Lookup: 4 0 0 "si_abvs_3" { "si_abvs_3 subtable"  } ['abvs' ('sinh' <'dflt' > ) ]
Lookup: 4 0 0 "si_abvs_4" { "si_abvs_4 subtable"  } ['abvs' ('sinh' <'dflt' > ) ]
Lookup: 4 0 0 "si_abvs_5" { "si_abvs_5 subtable"  } ['abvs' ('sinh' <'dflt' > ) ]
Lookup: 4 0 0 "si_abvs_6" { "si_abvs_6 subtable"  } ['abvs' ('sinh' <'dflt' > ) ]
Lookup: 4 0 0 "si_abvs_7" { "si_abvs_7 subtable"  } ['abvs' ('sinh' <'dflt' > ) ]
Lookup: 4 0 0 "si_blws_1" { "si_blws_1 subtable"  } ['blws' ('sinh' <'dflt' > ) ]

StartChar: uni5713
Encoding: 65536 22291 0
GlifName: H_K_D_
Width: 843
VWidth: 0
Flags: HW
HStem: 488 210<50 92 50 92 50 126 126 169 50 198 198 241 284 284 284 325> 573 41<92 101 92 101 92 117 117 126>
VStem: 50 51<573 614 573 698> 50 42<488 573 488 614 614 698> 117 52<573 614 614 614> 126 43<488 573 573 573 614 698 488 698> 198 43<488 698 488 698> 360 134 464 71 590 71 652 141
LayerCount: 4
Back
Fore
SplineSet
50 488 m 257x92
 50 698 l 257xa2
 92 698 l 257x92
 92 614 l 257x52
 101 614 l 257x62
 101 573 l 257x62
 92 573 l 257x52
 92 488 l 257
 50 488 l 257x92
257 611 m 257
 283 698 l 257x82
 325 698 l 257
 299 611 l 257
 326 488 l 257
 284 488 l 257
 257 611 l 257
198 488 m 257
 198 698 l 257
 241 698 l 257
 241 488 l 257
 198 488 l 257
117 573 m 257
 117 614 l 257x4a
 126 614 l 257x46
 126 698 l 257x86
 169 698 l 257
 169 488 l 257
 126 488 l 257x86
 126 573 l 257x46
 117 573 l 257
EndSplineSet
Refer: 31 36 N 1 0 0 1 322 0 2
PickledDataWithLists: "(dp1
S'com.fontlab.hintData'
p2
(dp3
S'vhints'
p4
(lp5
(dp6
S'position'
p7
I50
sS'width'
p8
I51
sa(dp9
g7
I50
sg8
I42
sa(dp10
g7
I117
sg8
I52
sa(dp11
g7
I126
sg8
I43
sa(dp12
g7
I198
sg8
I43
sa(dp13
g7
I360
sg8
I134
sa(dp14
g7
I464
sg8
I71
sa(dp15
g7
I590
sg8
I71
sa(dp16
g7
I652
sg8
I141
sasS'hhints'
p17
(lp18
(dp19
g7
I488
sg8
I210
sa(dp20
g7
I573
sg8
I41
sass."
Layer: 2
Layer: 3
EndChar

StartChar: quotedbl.alt
Encoding: 65537 -1 1
GlifName: quotedbl.alt
Width: 359
VWidth: 0
Flags: HW
HStem: 476 224<26 153 26 153 26 206 206 333>
VStem: 26 127<476 700> 206 127<476 700>
LayerCount: 4
Back
Fore
SplineSet
26 476 m 257
 26 700 l 257
 153 700 l 257
 153 476 l 257
 26 476 l 257
206 476 m 257
 206 700 l 257
 333 700 l 257
 333 476 l 257
 206 476 l 257
EndSplineSet
PickledDataWithLists: "(dp1
S'com.fontlab.hintData'
p2
(dp3
S'vhints'
p4
(lp5
(dp6
S'position'
p7
I26
sS'width'
p8
I127
sa(dp9
g7
I206
sg8
I127
sasS'hhints'
p10
(lp11
(dp12
g7
I476
sg8
I224
sass."
Layer: 2
Layer: 3
EndChar

StartChar: si_A
Encoding: 3 3461 2
GlifName: si_A_
Width: 544
VWidth: 0
Flags: HW
HStem: 0 140<188.272 259 444 516> 263 139<188.515 315> 457.175 120.794<187.713 301.966>
VStem: 32 143<153.262 247.849> 314 202<0 140 434 439.367> 314 130<-169 0 140 466>
LayerCount: 4
Back
Fore
SplineSet
312 -169 m 257
 312 380 l 258xf4
 312 466 338 529 484 579 c 257
 514 434 l 257xf8
 436.915039062 414 442 389.00390625 442 348 c 258
 442 140 l 257xf4
 494 140 l 257
 494 0 l 257xf8
 442 0 l 257
 442 -169 l 257
 312 -169 l 257
30 198 m 260
 30 337.016601562 125.044921875 402 256 402 c 262
 313 402 l 261
 313 439.3671875 278.239257812 457.174804688 243.4296875 457.174804688 c 4
 213.982421875 457.174804688 184.5 444.4296875 176 420 c 261
 58 459 l 261
 79.41796875 539.204101562 157.759765625 577.969726562 238.147460938 577.969726562 c 4
 338.48046875 577.969726562 442 517.580078125 442 402 c 262
 442 263 l 261
 256 263 l 262
 217 263 173 257.190429688 173 198 c 261
 173 146 220 136 257 136 c 260
 257 0 l 260
 137 0 30 59.3916015625 30 198 c 260
EndSplineSet
Layer: 2
Layer: 3
EndChar

StartChar: si_Aae
Encoding: 6 3464 4
GlifName: si_A_ae
Width: 811
VWidth: 0
Flags: HW
HStem: -0.00292969 143.003<181.406 247> 302 110<188 247> 464 110<30 247>
VStem: 30 217<83.7236 143 302 412 464 574> 30 141<154.845 261.226>
LayerCount: 4
Back
Fore
SplineSet
563.989257812 216.358398438 m 0
 563.989257812 249.528320312 564 262 608 302 c 1
 781 302 l 1xf0
 713 250 705 251.228515625 705 216 c 0
 705 202 l 256xe8
 705 153 735.803710938 143 760 143 c 0
 768.854492188 143 776.680664062 143 781 143 c 257
 781 0 l 257xf0
 773.533203125 -0.001953125 766.229492188 -0.0029296875 759.190429688 -0.0029296875 c 0
 652.365234375 -0.0029296875 563.853515625 49.62109375 564 178 c 0xe8
 563.989257812 216.358398438 l 0
564 412 m 1
 621 464 l 1
 781 464 l 1
 722 412 l 1
 564 412 l 1
564 464 m 1
 564 574 l 1
 781 574 l 1
 781 464 l 1
 564 464 l 1
564 302 m 1
 564 412 l 1
 781 412 l 1
 781 302 l 1
 564 302 l 1
EndSplineSet
Refer: 2 3461 N 1 0 0 1 0 0 2
PickledDataWithLists: "(dp1
S'com.fontlab.hintData'
p2
(dp3
S'vhints'
p4
(lp5
(dp6
S'position'
p7
I20
sS'width'
p8
I40
sa(dp9
g7
I353
sg8
I40
sasS'hhints'
p10
(lp11
(dp12
g7
I1
sg8
I40
sa(dp13
g7
I431
sg8
I40
sa(dp14
g7
I576
sg8
I40
sass."
Layer: 2
Layer: 3
EndChar

StartChar: si_Ba
Encoding: 48 3510 6
GlifName: si_B_a
Width: 609
VWidth: 0
Flags: HMW
LayerCount: 4
Back
SplineSet
251.666992188 616.5 m 5
 251.666992188 755 l 5
 148.077148438 755 41 672.125976562 41 566 c 261
 178 530 l 261
 178 595.735351562 214.301757812 616.5 251.666992188 616.5 c 5
310 757 m 260
 454 756 584 713 584 491 c 262
 584 252 l 262
 584 68 551 -7 407 -7 c 260
 314 -7 242 40 242 138 c 260xbd
 242 209 262 222 262 267 c 260
 262 293 245 314 213 314 c 260
 164 314 162 261 162 223 c 260
 162 184 170 138 211 138 c 261
 210 0 l 261
 58 0 27 127 27 224 c 260
 27 338 84 452 234 452 c 260
 298 452 397 423 397 290 c 260x7b
 397 242 376 202 376 173 c 260
 376 147 387 127 407 127 c 260xbd
 444 127 444 155 444 222 c 262
 444 478 l 262
 444 612 366 616.5 310 616.5 c 260
 310 757 l 260
EndSplineSet
Fore
SplineSet
324 616 m 1
 324 755 l 1
 345 755 l 257
 478.701171875 755 579 679.96875 579 500 c 258
 579 200 l 257
 439 200 l 257
 439 478 l 258
 439 556.997070312 422.428196405 616 345 616 c 257
 324 616 l 1
41 566 m 257
 178 530 l 257
 178 595.735351562 217.258789062 616.5 257.666992188 616.5 c 1
 268 616.5 l 1
 268 755 l 1
 257.666992188 755 l 1
 151.126953125 755 41 672.125976562 41 566 c 257
30 187 m 0
 30 283 l 258
 30 493.931640625 382 525.915039062 382 272 c 258
 382 174 l 258
 382 125.53515625 439 125.580078125 439 174 c 257
 439 214 l 1
 579 214 l 1
 579 174 l 257
 579 -59.72265625 247 -64.7982111603 247 138 c 258
 247 267 l 258
 247 328.615234375 162.069334588 328.810562213 162 267 c 258
 161.916992188 193 l 0
 162 151 180.45703125 140 211 140 c 257
 211 0 l 261
 91.10546875 0 30 55 30 187 c 0
EndSplineSet
PickledDataWithLists: "(dp1
S'com.fontlab.hintData'
p2
(dp3
S'vhints'
p4
(lp5
(dp6
S'position'
p7
I236
sS'width'
p8
I142
sa(dp9
g7
I462
sg8
I143
sasS'hhints'
p10
(lp11
(dp12
g7
I-7
sg8
I142
sa(dp13
g7
I310
sg8
I142
sa(dp14
g7
I588
sg8
I142
sass."
Layer: 2
SplineSet
290 8 m 261xbd
 290 251 l 260
 290.030273438 280.508789062 289 314 243 314 c 260
 202 314 195 291 195 251 c 260
 195 202 l 4
 195 166 199.263671875 140 244 140 c 261
 243 0 l 261
 91 0 63 92 63 189 c 260
 63 273 l 4
 63.015625 396.71875 145.911132812 452 262 452 c 260
 326 452 425 423 425 290 c 262x7b
 425 -65 l 5
 290 -65 l 5
 290 8 l 261xbd
EndSplineSet
Layer: 3
EndChar

StartChar: si_Da
Encoding: 42 3503 7
GlifName: si_D_a
Width: 522
VWidth: 0
Flags: HW
HStem: -204 126<324.815 421.261> 0 136<193.491 351.178> 263 135<187.772 315> 454 121<180.207 302.01>
VStem: 32 143<153.262 247.371>
LayerCount: 4
Back
SplineSet
514 434 m 261xf8
 436.915039062 414 442 389.00390625 442 348 c 262
 442 140 l 261xf4
 494 140 l 261
 494 0 l 261xf8
 442 0 l 261
 442 -169 l 261
 312 -169 l 261
 312 380 l 262xf4
 312 466 338 529 484 579 c 261
 514 434 l 261xf8
173 198 m 261
 173 146 220 136 257 136 c 260
 257 0 l 260
 137 0 30 59.3916015625 30 198 c 260
 30 337.016601562 125.044921875 402 256 402 c 262
 313 402 l 261
 313 439.3671875 278.239257812 457.174804688 243.4296875 457.174804688 c 4
 213.982421875 457.174804688 184.5 444.4296875 176 420 c 261
 58 459 l 261
 79.41796875 539.204101562 157.759765625 577.969726562 238.147460938 577.969726562 c 4
 338.48046875 577.969726562 442 517.580078125 442 402 c 262
 442 263 l 261
 256 263 l 262
 217 263 173 257.190429688 173 198 c 261
EndSplineSet
Fore
SplineSet
294 0 m 1
 294 136 l 1
 326.727539062 136 356 140 369 172 c 1
 497 138 l 1
 472 52 386.826171875 0.1318359375 294 0 c 1
257 0 m 1
 257 136 l 1
 294 136 l 1
 294 0 l 1
 257 0 l 1
30 198 m 256
 30 334.290039062 123.043945312 402 256 402 c 258
 313 402 l 257
 313 473.444335938 192 471 176 420 c 257
 58 459 l 257
 104.717773438 636.689453125 442 614.799804688 442 399 c 258
 442 263 l 257
 256 263 l 258
 217 263 173 257.190429688 173 198 c 257
 173 146 220 136 257 136 c 256
 257 0 l 256
 137 0 30 59.3916015625 30 198 c 256
183 -45 m 261
 183 -136.260742188 249.998858848 -204 369 -204 c 260
 474.501613451 -204 530.119565217 -148.451612903 552 -81 c 261
 419 -47 l 261
 413.827586207 -67.3714285714 389.689655172 -78 369 -78 c 260
 340.2890625 -78 320 -61.1489917652 320 -45 c 261
 183 -45 l 261
EndSplineSet
Layer: 2
Layer: 3
EndChar

StartChar: si_Ddha
Encoding: 37 3498 8
GlifName: si_D_dha
Width: 632
VWidth: 0
Flags: HMW
LayerCount: 4
Back
Fore
SplineSet
30 251 m 257
 30 353 l 257
 281 353 l 1
 281 359 l 257
 281.052734375 388.333007812 259.720703125 399 239 399 c 256
 229.146484375 399 203.971679688 396 199 375 c 257
 100 401 l 257
 126.404296875 488.737304688 202.591796875 502 239 502 c 256
 282.907226562 502 327.606763026 485.113555373 351 458 c 256
 374.37109375 430.912109375 384 404.666992188 384 349 c 258
 384 251 l 257
 242 251 l 1
 211.474609375 251 207 231 207 219 c 1
 207 166 l 0
 207 154 216 132 246 132 c 0
 276 132 284 152.875 284 166 c 0
 284 202 l 257
 384 202 l 257
 384 166 l 0
 384 152.875 392 132 422 132 c 0
 452.769230769 132 462 154 462 166 c 0
 462 202 l 1
 602 202 l 257
 602 160 l 0
 602 58 535.380859375 -8 443 -8 c 256
 409.151595745 -8 367.92478391 3.466796875 339 35 c 257
 315.108398438 3.466796875 278.958984375 -8 251 -8 c 256
 145.767578125 -8 72 58 72 160 c 0
 72 219 l 257
 72 226 72 246 80 251 c 1
 30 251 l 257
287 617 m 260
 287 755 l 261
 367 755 l 261
 501.272799141 755 602 700 602 517 c 262
 602 195 l 261
 462 195 l 261
 462 498 l 262
 462 577 445.25184581 616 367 616 c 261
 367 616 l 261
 367 563.071428572 392.652173913 547.238095238 426 540 c 261
 426 454 l 261
 322.61875 473.607246377 287 544.038095238 287 617 c 260
EndSplineSet
PickledDataWithLists: "(dp1
S'com.fontlab.hintData'
p2
(dp3
S'vhints'
p4
(lp5
(dp6
S'position'
p7
I54
sS'width'
p8
I141
sa(dp9
g7
I294
sg8
I117
sa(dp10
g7
I309
sg8
I91
sa(dp11
g7
I512
sg8
I142
sasS'hhints'
p12
(lp13
(dp14
g7
I-6
sg8
I131
sa(dp15
g7
I251
sg8
I144
sa(dp16
g7
I296
sg8
I100
sa(dp17
g7
I409
sg8
I89
sa(dp18
g7
I433
sg8
I117
sa(dp19
g7
I624
sg8
I134
sass."
Layer: 2
Layer: 3
SplineSet
247.18359375 251 m 5
 214.18359375 251 207.18359375 231 207.18359375 219 c 5
 207.18359375 171 l 4
 207.18359375 145.036132812 226.1640625 132 251.18359375 132 c 4
 278.18359375 132 299.18359375 141.392578125 299.18359375 173 c 4
 299.18359375 202 l 261
 399.18359375 202 l 261
 399.18359375 173 l 4
 399.18359375 141.392578125 418.783203125 132 448.18359375 132 c 4
 471.07421875 132 491.18359375 143.705078125 491.18359375 173 c 4
 491.18359375 202 l 5
 630.18359375 202 l 261
 630.18359375 160 l 4
 630.18359375 50 558.208007812 -8 448.18359375 -8 c 260
 411.90234375 -8 375.49609375 3.466796875 350.18359375 35 c 261
 323.909179688 3.466796875 288.84375 -8 251.18359375 -8 c 260
 144.690429688 -8 72.18359375 58 72.18359375 160 c 4
 72.18359375 219 l 261
 72.18359375 226 72.18359375 246 80.18359375 251 c 5
 30.18359375 251 l 261
 30.18359375 353 l 261
 247.18359375 353 l 5
 247.18359375 359 l 261
 247.236328125 388.333007812 225.904296875 399 205.18359375 399 c 260
 195.330078125 399 170.155273438 396 165.18359375 375 c 261
 66.18359375 401 l 261
 92.587890625 488.737304688 168.775390625 502 205.18359375 502 c 260
 249.090820312 502 293.790039062 485.11328125 317.18359375 458 c 260
 340.5546875 430.912109375 350.18359375 404.666992188 350.18359375 349 c 262
 350.18359375 251 l 261
 247.18359375 251 l 5
491.18359375 201 m 261
 491.18359375 472 l 260
 491.18359375 499.39453125 487.872070312 525.59375 475.18359375 549 c 260
 463.001953125 571.47265625 442.127929688 590.053710938 407.18359375 598 c 261
 407.18359375 537.428710938 428.052734375 502.095703125 455.18359375 492 c 261
 455.18359375 389 l 261
 351.05859375 415.463867188 315.18359375 510.5234375 315.18359375 609 c 260
 315.18359375 755 l 261
 442.18359375 755 572.596679688 709.760742188 606.18359375 609 c 260
 628.80078125 541.1484375 630.18359375 478.544921875 630.18359375 380 c 262
 630.18359375 201 l 261
 491.18359375 201 l 261
EndSplineSet
EndChar

StartChar: si_Ga
Encoding: 23 3484 9
GlifName: si_G_a
Width: 717
VWidth: 0
Flags: HW
HStem: -8 143<184.204 227 283 328.926 490 532.796> 421 143<184.204 227 402.206 434 490 532.796>
VStem: 30.0791 140.921<145.686 410.314> 254 138.835<350 413.569> 337 124<144.161 230.813> 546 140.921<145.686 198 348 410.314>
LayerCount: 4
Back
SplineSet
30.0791015625 308 m 4xe4
 30.0791015625 248 l 4
 30.4443359375 103.518554688 91.80078125 -8 241 -8 c 261
 241 135 l 261
 173.998046875 135 169 204.878986958 169 248 c 260
 169 308 l 260
 169 351.121013042 173.998046875 421 241 421 c 261
 241 564 l 261
 91.80078125 564 30.4443359375 452.481445312 30.0791015625 308 c 4xe4
714.920898438 308 m 4
 714.920898438 248 l 4
 714.555664062 103.518554688 653.19921875 -8 504 -8 c 261
 504 135 l 261
 571.001953125 135 576 204.878986958 576 248 c 260
 576 308 l 260
 576 351.121013042 571.001953125 421 504 421 c 261
 504 564 l 261
 653.19921875 564 714.555664062 452.481445312 714.920898438 308 c 4
407 239.5 m 5
 406.834960938 350 l 4
 407.466254113 369.492313059 409.192647698 421 448 421 c 261
 448 564 l 261
 304.062199519 564 268 468.006510417 268 350 c 4
 268 240.5 l 260xf4
 407 239.5 l 5
285 240.5 m 5
 318.672851562 240.5 351 240.60546875 351 196 c 260
 351 176.712890625 349.527392578 136 297 136 c 260
 297 -8 l 261
 413.689548399 -8 475 54.533203125 475 196 c 260xec
 475 303.405273438 426.084960938 339 385 339 c 261
 285 339 l 5
 285 240.5 l 5
EndSplineSet
Fore
SplineSet
271 241 m 5
 283 241 l 260xec
 335.527392578 241 337 205.036946615 337 188 c 260
 337 170.963053385 335.527392578 135 283 135 c 260
 283 -8 l 261
 399.689548399 -8 461 45.3371438419 461 166 c 260
 460.849609375 216 l 4
 461 325.407079646 407.086301457 347 371 347 c 261
 271 347 l 5
 271 241 l 5
30.0791015625 198 m 4
 30.0791015625 358 l 4
 30.4200932897 474.262413025 87.7039680752 564 227 564 c 261
 227 421 l 261
 174.887369792 421 171 375.856937629 171 348 c 260
 171 198 l 260
 171 173.959081224 174.887369792 135 227 135 c 261
 227 -8 l 261
 87.7039680752 -8 30.4200932897 81.7375869755 30.0791015625 198 c 4
490 -8 m 261
 629.296031925 -8 686.57990671 81.7375869755 686.920898438 198 c 4
 686.920898438 358 l 4
 686.57990671 474.262413025 629.296031925 564 490 564 c 261
 490 421 l 261
 542.112630208 421 546 375.856937629 546 348 c 260
 546 198 l 260
 546 173.959081224 542.112630208 135 490 135 c 261
 490 -8 l 261
254 241 m 260xf4
 393 240.5 l 5
 392.834960938 350 l 4
 393.466254113 376.492313059 388.192647697 421 434 421 c 261
 434 564 l 261
 290.062199519 564 254 468.006510417 254 350 c 4
 254 241 l 260xf4
EndSplineSet
PickledDataWithLists: "(dp1
S'com.fontlab.hintData'
p2
(dp3
S'vhints'
p4
(lp5
(dp6
S'position'
p7
I29
sS'width'
p8
I142
sa(dp9
g7
I293
sg8
I142
sa(dp10
g7
I376
sg8
I142
sa(dp11
g7
I634
sg8
I142
sasS'hhints'
p12
(lp13
(dp14
g7
I-7
sg8
I142
sa(dp15
g7
I447
sg8
I142
sass."
Layer: 2
Layer: 3
EndChar

StartChar: si_Ka
Encoding: 21 3482 10
GlifName: si_K_a
Width: 800
VWidth: 0
Flags: HMW
LayerCount: 4
Back
Fore
SplineSet
30 439 m 257
 44 537 136.521484375 567 198 567 c 256
 270.694604306 567 320 533 337 502 c 1
 245 402 l 1xa4
 245 437 214.168945312 446 198 446 c 256
 164.069335938 446 147 422.741210938 147 402 c 257
 30 439 l 257
30 160 m 257
 147 255 l 1
 165.91015625 239.06640625 180.861328125 220.712890625 180.879882812 202 c 1
 181 160 l 2
 181.107306155 122.479492188 240 122.545898438 240 160 c 2
 240 202 l 257
 339.879882812 202 l 1
 340 162 l 2
 340.121689016 121.4765625 400 121.547851562 400 162 c 0
 400.00390625 202.127929688 l 0
 400.00390625 233.327405245 393.873077864 258.736643703 351 276 c 1
 448.223632812 354.095703125 l 1
 511.601605812 326.930722781 529 279.826703425 529 218 c 0
 529 136 l 2
 529 2.603515625 363.235455622 -52.767578125 290 36 c 257
 229.787245838 -51.9111328125 64.9818787551 8.54394529059 65 106 c 2
 65.0029296875 121.755859375 l 0
 65.0029296875 141.9453125 64.3154296875 161.90625 41.2734375 161.90625 c 0
 37.990234375 161.90625 34.2529296875 161.299804688 30 160 c 257
30 160 m 1
 30 259 l 1
 301 480 l 1
 455.716746118 639.302368913 770 601.889648438 770 321 c 2
 770 205 l 0
 769.580078125 88.7373046875 713.295898438 -1 574 -1 c 257
 574 142 l 257
 626.112304688 142 630 180.958984375 630 205 c 0
 630 307 l 2
 630 416.044921875 509 475 425 400 c 1
 155 181.391601562 l 1
 30 160 l 1
EndSplineSet
Layer: 2
SplineSet
260 402 m 5
 260 437 229.168945312 446 213 446 c 260
 179.069335938 446 162 422.741210938 162 402 c 261
 45 439 l 261
 59 537 151.521484375 567 213 567 c 260x2e
 281.510742188 567 344 522 344 506 c 5
 260 402 l 5
670 199 m 4
 670 253 l 6
 670 379.1640625 583.624023438 440.439453125 500.872070312 440.439453125 c 4
 459.1484375 440.439453125 418.232421875 431.658203125 390 394 c 6
 206.322265625 149 l 5
 112.583007812 43.8623046875 l 5
 23 119 l 5
 278 456 l 5xb8
 445.059570312 682.87109375 811 592.614257812 811 275 c 6
 811 197 l 4
 810.580078125 81.7373046875 753.295898438 -8 614 -8 c 261
 614 135 l 261
 666.112304688 135 670 173.958984375 670 199 c 4
440 385 m 5
 492 371 584.296875 319.141601562 584.296875 179 c 4
 584.296875 83.384765625 542.2578125 -8 444 -8 c 260
 401.190429688 -8 373.155273438 0.451171875 348 34 c 261
 326.140625 -2.486328125 294.53515625 -8 267 -8 c 260
 176.924804688 -8 171.9609375 53.2314453125 138.249023438 53.2314453125 c 4
 131.12109375 53.2314453125 122.88671875 50.494140625 112.583007812 43.8623046875 c 261
 165 166 l 261
 172.521484375 171.025390625 184.045898438 173.087890625 189.9609375 173.087890625 c 4
 229.002929688 173.087890625 226.321289062 130 265 130 c 260
 283.736328125 130 294 144.55859375 294 163 c 5
 294 202 l 261
 394 202 l 261x67
 394 162 l 5
 394 144 404.240234375 129 427 129 c 260
 453.140625 129 461.493164062 150.532226562 461.493164062 179 c 4
 461.493164062 244.465820312 406 268 368 282 c 5
 440 385 l 5
EndSplineSet
Layer: 3
SplineSet
258 402 m 5
 258 437 227.168945312 446 211 446 c 260
 177.069335938 446 160 422.741210938 160 402 c 261
 43 439 l 261
 57 537 149.521484375 567 211 567 c 260x2e
 279.510742188 567 342 522 342 506 c 5
 258 402 l 5
668 199 m 4
 668 253 l 6
 668 379.1640625 581.624023438 440.439453125 498.872070312 440.439453125 c 4
 457.1484375 440.439453125 416.233398438 431.658203125 388 394 c 6
 204.322265625 149 l 5
 110.583007812 43.8623046875 l 5
 21 119 l 5
 276 456 l 5xb8
 443.059570312 682.87109375 809 592.614257812 809 275 c 6
 809 197 l 4
 808.580078125 81.7373046875 751.295898438 -8 612 -8 c 261
 612 135 l 261
 664.112304688 135 668 173.958984375 668 199 c 4
438 385 m 5
 490 371 582.296875 319.141601562 582.296875 179 c 4
 582.296875 83.384765625 540.2578125 -8 442 -8 c 260
 399.190429688 -8 371.155273438 0.451171875 346 34 c 261
 324.140625 -2.486328125 292.53515625 -8 265 -8 c 260
 174.924804688 -8 169.9609375 53.2314453125 136.249023438 53.2314453125 c 4
 129.12109375 53.2314453125 120.88671875 50.494140625 110.583007812 43.8623046875 c 261
 163 166 l 261
 170.521484375 171.025390625 182.045898438 173.087890625 187.9609375 173.087890625 c 4
 227.002929688 173.087890625 224.321289062 130 263 130 c 260
 281.736328125 130 292 144.55859375 292 163 c 5
 292 202 l 261
 392 202 l 261x67
 392 162 l 5
 392 144 402.240234375 129 425 129 c 260
 451.140625 129 459.493164062 150.532226562 459.493164062 179 c 4
 459.493164062 244.465820312 404 268 366 282 c 5
 438 385 l 5
EndSplineSet
EndChar

StartChar: si_La
Encoding: 54 3517 11
GlifName: si_L_a
Width: 626
VWidth: 0
Flags: HW
HStem: -173 140<207.938 283 344 419.936> 53.5 140<379.807 453.246> 250.5 114<206 248 376 418> 250.5 72<248 376> 426 140<206.69 283 344 420.701>
VStem: 30.333 138.472<6.64029 389.633> 248 128<196.502 322.5> 458 138<-13.0365 1.0253 197.876 389.633>
LayerCount: 4
Back
SplineSet
183.471679688 322 m 4
 183.666992188 397.44813278 232.333984375 426.5 297.666992188 426.5 c 261
 297.666992188 566.5 l 261
 75.9832922484 566.5 43 419.272314675 43 276 c 260
 43 144 l 4
 43 -108.686222944 186.744307647 -170 297.666992188 -170 c 261
 297.666992188 -30 l 261
 263.855676366 -30 183.666992188 -21.9069767442 183.666992188 144 c 1028
216.666992188 365 m 5xef
 428.666992188 365 l 5
 428.666992188 251 l 5
 216.666992188 251 l 5
 216.666992188 365 l 5xef
514.666992188 35 m 261
 611.666992188 -46 l 261
 539.65929988 -161 414.132376803 -169 358.666992188 -170 c 261
 358.666992188 -30 l 261
 371 -30 461.666992188 -31 514.666992188 35 c 261
386.666992188 323 m 261xdf
 386.666992188 235 l 262
 386.666992188 216.126984127 393.515056644 194 428 194 c 260
 467.932902838 194 472.666992188 223.380952381 472.666992188 240 c 260
 472.862304688 322 l 4
 472.666992188 397.44813278 424 426.5 358.666992188 426.5 c 261
 358.666992188 566.5 l 261
 473.014648438 566.5 610.666992188 522.715835141 610.666992188 322 c 4
 610.666992188 240 l 260
 610.666992188 122.860262009 542.732570259 54 428 54 c 260
 287.388211366 54 258.666992188 138.668802947 258.666992188 215 c 262
 258.666992188 215 258.666992188 311.402684564 258.666992188 323 c 261
 386.666992188 323 l 261xdf
EndSplineSet
Fore
SplineSet
344 -33 m 257
 344 -173 l 257
 443.056237817 -173 559.600969387 -140.1431321 589 -0.875 c 1
 454 36.7705078125 l 1xcf
 440.864069231 -13.0364758886 398.158217424 -33 344 -33 c 257
30 321.5 m 0
 30 522.215835141 168.19858321 566 283 566 c 261
 283 426 l 257
 217.666992188 426 169 396.94813278 168.8046875 321.5 c 0
 168.8046875 73.5 l 0
 169 -1.94813278 217.666992188 -30.5 283 -30.5 c 257
 283 -170.5 l 257
 172.948434905 -170.5 30.3330078125 -122.854899357 30.3330078125 73.5 c 0
 30 321.5 l 0
206 250.5 m 1
 206 364.5 l 1xef
 418 364.5 l 1
 418 250.5 l 1
 206 250.5 l 1
248 214.5 m 258
 248 214.5 248 310.902684564 248 322.5 c 257
 376 322.5 l 257xdf
 376 234.5 l 258
 376 215.626984127 382.848064456 193.5 417.333007812 193.5 c 256
 453.689855861 193.5 458 222.880952381 458 239.5 c 256
 458.1953125 321.5 l 0
 458 396.94813278 409.333007812 426 344 426 c 257
 344 566 l 257
 458.34765625 566 596 522.215835141 596 321.5 c 0
 596 239.5 l 256
 596 122.360262009 529.553190499 53.5 417.333007812 53.5 c 256
 276.721219179 53.5 248 138.168802947 248 214.5 c 258
EndSplineSet
PickledDataWithLists: "(dp1
S'com.fontlab.hintData'
p2
(dp3
S'vhints'
p4
(lp5
(dp6
S'position'
p7
I21
sS'width'
p8
I139
sa(dp9
g7
I268
sg8
I132
sa(dp10
g7
I515
sg8
I136
sasS'hhints'
p11
(lp12
(dp13
g7
I-210
sg8
I146
sa(dp14
g7
I-20
sg8
I20
sa(dp15
g7
I24
sg8
I137
sa(dp16
g7
I252
sg8
I114
sa(dp17
g7
I465
sg8
I143
sass."
Layer: 2
SplineSet
216.666992188 365 m 1xef
 428.666992188 365 l 1
 428.666992188 251 l 1
 216.666992188 251 l 1
 216.666992188 365 l 1xef
514.666992188 35 m 257
 611.666992188 -46 l 257
 539.65929988 -161 414.132376803 -169 358.666992188 -170 c 257
 358.666992188 -30 l 257
 371 -30 461.666992188 -31 514.666992188 35 c 257
297.666992188 -30 m 257
 297.666992188 -170 l 257
 181.08203125 -170 30 -108.686222944 30 144 c 0
 30 236 l 256
 30 399 64.6669921875 566.5 297.666992188 566.5 c 257
 297.666992188 426.5 l 257
 189 426.5 170.666992188 353.402088773 170.666992188 236 c 256
 170.666992188 144 l 0
 170.666992188 -21.9069767442 260 -30 297.666992188 -30 c 257
386.666992188 323 m 257xdf
 386.666992188 235 l 258
 386.666992188 216.126984127 393.515056644 194 428 194 c 256
 467.932902838 194 472.666992188 223.380952381 472.666992188 240 c 256
 472.862304688 322 l 0
 472.666992188 397.44813278 424 426.5 358.666992188 426.5 c 257
 358.666992188 566.5 l 257
 473.014648438 566.5 610.666992188 522.715835141 610.666992188 322 c 0
 610.666992188 240 l 256
 610.666992188 122.860262009 542.732570259 54 428 54 c 256
 287.388211366 54 258.666992188 138.668802947 258.666992188 215 c 258
 258.666992188 215 258.666992188 311.402684564 258.666992188 323 c 257
 386.666992188 323 l 257xdf
EndSplineSet
Layer: 3
SplineSet
183.471679688 322 m 4
 183.666992188 397.44813278 232.333984375 426.5 297.666992188 426.5 c 1285
EndSplineSet
EndChar

StartChar: si_Lla
Encoding: 60 3525 12
GlifName: si_L_la
Width: 609
VWidth: 0
Flags: HMW
LayerCount: 4
Back
Fore
SplineSet
344 -30 m 257
 344 -170 l 257
 443.056640625 -170 559.600585938 -137.143554688 589 2.125 c 1
 454 39.7705078125 l 1
 440.864257812 -10.0361328125 398.158203125 -30 344 -30 c 257
144 216 m 257
 235 301 l 257
 235 195.927943366 309.198242188 185 334 185 c 256
 354 185 l 0
 390.10546875 185 419.388671875 200.704101562 429 222 c 257
 542 193 l 257
 499 82 406.733398438 66.9765625 358 66.8896484375 c 0
 325 67 l 256
 217.262695312 67 144 142 144 216 c 257
30 77 m 256
 30 194 l 0
 30 322.197080293 132.979005248 386.744550785 216 387 c 258
 541 388 l 257
 541 256 l 257
 248 256 l 258
 203.378266735 256 169.002144444 227.881559221 168.99609375 146 c 0
 169 75 l 256
 169 3.4310134156 210.412109375 -30 283 -30 c 256
 283 -170 l 256
 131.834572296 -170 30.115448609 -89.9692882178 30 77 c 256
115.025390625 421.275390625 m 257
 115.025390625 445.525390625 l 257
 115.025390625 524.574912623 169.425313938 574.724609375 253.575195312 574.724609375 c 256
 284.870649858 574.724609375 311.297922588 565.374747984 330.075195312 548.375 c 257
 349.943377133 569.62468498 378.784286223 574.724609375 400.575195312 574.724609375 c 256
 489.82482017 574.724609375 539.974609375 517.444670025 539.974609375 436.525390625 c 257
 424.375 436.525390625 l 257
 424.375 453.877775494 412.948514193 464 397 464 c 256
 378.514907267 464 370.924804688 450.262695313 370.924804688 436.525390625 c 257
 286.075195312 436.525390625 l 257
 285.39831543 450.762695313 280.57173684 465 259 465 c 256
 236.839574136 465 230.625 448.960731908 230.625 434.525390625 c 257
 115.025390625 421.275390625 l 257
EndSplineSet
Layer: 2
Layer: 3
SplineSet
454 36.7705078125 m 5
 440.864069231 -13.0364758886 398.158217424 -33 344 -33 c 261
 344 -173 l 261
 443.056237817 -173 559.600969387 -140.1431321 589 -0.875 c 5
 454 36.7705078125 l 5
32 321.5 m 4
 32 522.215835141 169.65234375 566 284 566 c 261
 283 426 l 261
 217.666992188 426 169 396.94813278 168.8046875 321.5 c 4
 168.8046875 73.5 l 4
 169 -1.94813278 217.666992188 -30.5 283 -30.5 c 261
 283 -170.5 l 261
 172.948434905 -170.5 30.3330078125 -122.854899357 30.3330078125 73.5 c 4
 32 321.5 l 4
206 364.5 m 5xef
 418 364.5 l 5
 418 250.5 l 5
 206 250.5 l 5
 206 364.5 l 5xef
376 322.5 m 261xdf
 376 234.5 l 262
 376 215.626984127 382.848064456 193.5 417.333007812 193.5 c 260
 453.689855861 193.5 458 222.880952381 458 239.5 c 260
 458.1953125 321.5 l 4
 458 396.94813278 409.333007812 426 344 426 c 261
 344 566 l 261
 458.34765625 566 596 522.215835141 596 321.5 c 4
 596 239.5 l 260
 596 122.360262009 529.553190499 53.5 417.333007812 53.5 c 260
 276.721219179 53.5 248 138.168802947 248 214.5 c 262
 248 214.5 248 310.902684564 248 322.5 c 261
 376 322.5 l 261xdf
EndSplineSet
EndChar

StartChar: si_Ma
Encoding: 50 3512 13
GlifName: si_M_a
Width: 600
VWidth: 0
Flags: HMW
AnchorPoint: "si_rakar" 318 -3 basechar 0
LayerCount: 4
Back
SplineSet
30 237 m 260
 31 339 l 6
 31.8722988631 427.974484037 95.0980430986 473.401367188 155.735351562 473.401367188 c 4
 215.395743576 473.401367188 272 437.112172267 272 364 c 262
 272 348 l 6
 272 325.37890625 303 325.57421875 303 348 c 262
 303 469 l 261
 395 469 l 261
 395 340 l 262
 395 263.042318867 342.455001379 228.663541861 290.440426997 228.663541861 c 4
 239.465497315 228.663541861 189 261.681757186 189 320 c 6
 189 328 l 262
 189 341.305288283 181.157234739 348.080078125 173.361328125 348.080078125 c 4
 165.657787339 348.080078125 158 341 158 328 c 262
 158 238 l 260
 158 147.398148148 199.4453125 135 249 135 c 261
 260.666992188 135 l 261
 260.666992188 -5 l 261
 64.9495442708 -5 30 128 30 237 c 260
34 566 m 261
 171 530 l 261
 171 595.735351562 210.258789062 616.5 250.666992188 616.5 c 5
 261 616.5 l 5
 261 755 l 5
 250.666992188 755 l 5
 144.126953125 755 34 672.125976562 34 566 c 261
317 -5 m 5
 340 -5 l 261
 535.151515152 -5 570 128 570 237 c 260
 570 520 l 4
 570 678 498.718124324 755 340 755 c 261
 317 755 l 5
 317 616 l 5
 340 616 l 261
 389.010130495 616 430 603 430 508 c 4
 430 238 l 260
 430 147.398148148 389.010130495 135 340 135 c 261
 317 135 l 5
 317 -5 l 5
EndSplineSet
Fore
SplineSet
570 498 m 4
 570 621.85546875 527.504882812 754 317 754 c 5
 317 615 l 5
 385.4140625 615 430 603 430 498 c 262
 430 252 l 262
 430 147 385.413736584 135 317 135 c 5
 317 -5 l 5
 527.5047305 -5 570 127 570 252 c 262
 570 498 l 4
30 252 m 260
 30 299 l 6
 30 512.997323003 272 518.105203982 272 364 c 262
 272 348 l 6
 272 325.37890625 303 325.57421875 303 348 c 262
 303 469 l 261
 395 469 l 261
 395 340 l 262
 395 263.042318867 342.455078125 228.663085938 290.440429688 228.663085938 c 4
 239.465820312 228.663085938 189 261.681757186 189 320 c 6
 189 328 l 262
 189 341.305288283 181.157234739 348.080078125 173.361328125 348.080078125 c 4
 165.657787339 348.080078125 158 341 158 328 c 262
 158 252 l 262
 158 153.84765625 200.990499795 135 260.666992188 135 c 261
 260.666992188 -5 l 261
 64.9495442708 -5 30 143 30 252 c 260
34 565 m 261
 171 529 l 261
 171 600.55078125 213.008789062 615.5 261 615.5 c 5
 261 754 l 5
 147.947265625 754 34 676.958984375 34 565 c 261
EndSplineSet
PickledDataWithLists: "(dp1
S'com.fontlab.hintData'
p2
(dp3
S'vhints'
p4
(lp5
(dp6
S'position'
p7
I54
sS'width'
p8
I40
sa(dp9
g7
I201
sg8
I40
sa(dp10
g7
I341
sg8
I40
sa(dp11
g7
I524
sg8
I41
sasS'hhints'
p12
(lp13
(dp14
g7
I0
sg8
I41
sa(dp15
g7
I253
sg8
I40
sa(dp16
g7
I435
sg8
I39
sa(dp17
g7
I712
sg8
I40
sass."
Layer: 2
Layer: 3
SplineSet
570 488 m 4
 570 611.85546875 527.504882812 754 317 754 c 5
 317 615 l 5
 385.4140625 615 430 593 430 488 c 262
 430 262 l 262
 430 157 385.413736584 135 317 135 c 5
 317 -5 l 5
 527.5047305 -5 570 137 570 262 c 262
 570 488 l 4
30 262 m 260
 31 339 l 6
 31.8722988631 427.974484037 95.0980430986 473.401367188 155.735351562 473.401367188 c 4
 215.395743576 473.401367188 272 437.112172267 272 364 c 262
 272 348 l 6
 272 325.37890625 303 325.57421875 303 348 c 262
 303 469 l 261
 395 469 l 261
 395 340 l 262
 395 263.042318867 342.455001379 228.663541861 290.440426997 228.663541861 c 4
 239.465497315 228.663541861 189 261.681757186 189 320 c 6
 189 328 l 262
 189 341.305288283 181.157234739 348.080078125 173.361328125 348.080078125 c 4
 165.657787339 348.080078125 158 341 158 328 c 262
 158 262 l 262
 158 163.847294933 200.990499795 135 260.666992188 135 c 261
 260.666992188 -5 l 261
 64.9495442708 -5 30 153 30 262 c 260
34 565 m 261
 171 529 l 261
 171 600.55078125 213.008789062 615.5 261 615.5 c 5
 261 754 l 5
 147.947265625 754 34 676.958984375 34 565 c 261
EndSplineSet
EndChar

StartChar: si_MatraAe
Encoding: 64 3536 14
GlifName: si_M_atraA_e
Width: 277
VWidth: 0
Flags: HW
HStem: -0.00292969 143.003<181.406 247>
VStem: 30 217<97.8346 143 436.286 574> 30 141<155.992 343.416>
LayerCount: 4
Back
Fore
SplineSet
30 208 m 4
 30 260 l 4
 30 328.580479452 37.4571478545 343.178082192 90 436 c 261
 30 436 l 261xa0
 30 574 l 261xc0
 247 574 l 261
 247 442 l 261xc0
 179.740998543 318.24137931 171.059301835 314.551398617 171.176757812 248 c 4
 171 202 l 260xa0
 171 153.206689861 201.803371648 143 226 143 c 4
 234.85448183 143 242.680726784 143 247 143 c 261
 247 0 l 261xc0
 239.532941194 -0.001953125 232.229717539 -0.0029296875 225.190429688 -0.0029296875 c 4
 118.365005254 -0.0029296875 29.8537694516 57.9849364618 30 208 c 4
EndSplineSet
PickledDataWithLists: "(dp1
S'com.fontlab.hintData'
p2
(dp3
S'hhints'
p4
(lp5
(dp6
S'position'
p7
I7
sS'width'
p8
I122
sa(dp9
g7
I465
sg8
I138
sass."
Layer: 2
SplineSet
30.0791015625 368 m 4
 30.419921875 484.262695312 87.7041015625 574 227 574 c 261
 247 574 l 5
 247 431 l 5
 227 431 l 261
 174.887695312 431 171 385.857421875 171 358 c 260
 171 206 l 260
 171 181.958984375 174.887695312 143 227 143 c 261
 247 143 l 5
 247 0 l 5
 227 0 l 261
 87.7041015625 0 30.419921875 89.7373046875 30.0791015625 206 c 4
 30.0791015625 368 l 4
EndSplineSet
Layer: 3
EndChar

StartChar: si_MatraI
Encoding: 66 3538 15
GlifName: si_M_atraI_i
Width: 583
VWidth: 0
Flags: HMW
LayerCount: 4
Back
Fore
SplineSet
30 602 m 5
 30 630 l 261
 29.623046875 723.409179688 106.741210938 789 206 789 c 5
 377 789 l 5
 476.258789062 789 553.376953125 723.409179688 553 630 c 261
 553 602 l 5
 423 602 l 261
 423 654.112304688 387.857421875 658 361 659 c 5
 222 659 l 5
 195.142578125 658 160 654.112304688 160 602 c 261
 30 602 l 5
EndSplineSet
PickledDataWithLists: "(dp1
S'com.fontlab.hintData'
p2
(dp3
S'vhints'
p4
(lp5
(dp6
S'position'
p7
I-391
sS'width'
p8
I114
sa(dp9
g7
I-6
sg8
I112
sasS'hhints'
p10
(lp11
(dp12
g7
I676
sg8
I104
sass."
Layer: 2
Layer: 3
SplineSet
236 818.920898438 m 4
 119.737304688 818.580078125 30 761.295898438 30 622 c 261
 30 612 l 5
 170 612 l 5
 170 622 l 261
 170 674.112304688 215.142578125 678 243 678 c 260
 341 678 l 260
 365.041015625 678 404 674.112304688 404 622 c 261
 404 612 l 5
 544 612 l 5
 544 622 l 261
 544 761.295898438 454.262695312 818.580078125 338 818.920898438 c 4
 236 818.920898438 l 4
EndSplineSet
EndChar

StartChar: si_Na
Encoding: 44 3505 16
GlifName: si_N_a
Width: 758
VWidth: 0
Flags: HW
HStem: -8 135<197.762 333.938> 436.016 137.732<403.08 539.257> 446 121<151.048 258.047>
VStem: 30 118<150.343 270 304 344> 125 23<165 303.963> 588 140<145.686 385.151>
LayerCount: 4
Back
Fore
SplineSet
32 439 m 257
 46 537 138.521484375 567 200 567 c 256
 268.510742188 567 331 522 331 506 c 1
 247 402 l 1xa4
 247 437 216.168945312 446 200 446 c 256
 166.069335938 446 149 422.741210938 149 402 c 257
 32 439 l 257
125 165 m 1
 125 304 l 0
 149.771484375 303.962890625 l 0
 176.3203125 303.962890625 251.206054688 435.953125 283.456054688 479 c 1
 325.869019203 542.879559025 400.299881514 573.747920454 476.267936218 573.747920454 c 0xcc
 600.09201197 573.747920454 728 491.738875311 728 337 c 2
 728 198 l 0
 727.580078125 81.7373046875 671.295898438 -8 532 -8 c 257
 532 135 l 257
 584.112304688 135 588 173.958984375 588 198 c 0
 588 317 l 2
 588 391.166540223 530.397024488 436.015836385 470.745044882 436.015836385 c 0
 434.879082029 436.015836385 399.422421666 418.932695614 373 384 c 2
 295.092773438 281 l 1
 239.657226562 208 201.848632812 165 154 165 c 1
 125 165 l 1
30 256 m 1
 30 344 l 257
 148 344 l 257
 148 313 148 301 148 270 c 0x94
 148 150.342773438 208.982421875 127 278 127 c 0
 358.633875847 127 389 218 336 251 c 1
 412.21484375 354.311523438 l 1
 569 271 518.120155921 -7.85061989292 282 -8 c 0
 133.999985513 -8.09363138833 30 85.072265625 30 256 c 1
EndSplineSet
Layer: 2
Layer: 3
SplineSet
228 402 m 1xa6
 228 437 197.168945312 446 181 446 c 256
 147.069335938 446 130 422.741210938 130 402 c 257
 13 439 l 257
 27 537 119.521484375 567 181 567 c 256
 249.510742188 567 312 522 312 506 c 1
 228 402 l 1xa6
264.456054688 479 m 1
 338.267578125 574.576171875 407.416992188 575.020507812 450 575.020507812 c 0
 457.845703125 575.020507812 461.220703125 575 469 575 c 0
 621.064453125 575 719 496.862304688 719 297 c 0
 719 223 l 0
 719 78.9248046875 667.037109375 -3 562 -3 c 0
 503 -3 l 1
 503 132 l 1
 507.787109375 131.995117188 l 0
 579 132 579 155.115234375 579 223 c 0
 579 297 l 0
 579 381.63671875 551.603515625 434.999023438 469 435.004882812 c 0
 450 435.004882812 l 0
 407.521484375 435 384.16015625 417.368164062 354 384 c 0
 276.34375 298.083007812 222.489257812 172 137 172 c 1
 106 172 l 1
 106 304 l 0xce
 138.771484375 303.962890625 l 0
 165.3203125 303.962890625 232.206054688 435.953125 264.456054688 479 c 1
395.997070312 363.041992188 m 5
 435.111328125 346.485351562 474 300.9765625 474 230 c 4
 474.083984375 175 l 4
 474 46 385.791992188 -7.9501953125 299 -7.9501953125 c 4
 237 -8 l 4
 89 -8 6 89.072265625 6 256 c 5
 6 344 l 261
 136 344 l 261
 136 313 136 302 136 271 c 5x96
 136 134.478515625 194.107421875 127 240 127 c 4
 269 127 l 4
 324 127 344 149.045898438 344 184 c 260
 344 218 l 4
 344 248.146484375 329.903320312 257.520507812 318.326171875 262.735351562 c 5
 395.997070312 363.041992188 l 5
EndSplineSet
EndChar

StartChar: si_Nna
Encoding: 38 3499 18
GlifName: si_N_na
Width: 1019
VWidth: 0
Flags: HMW
LayerCount: 4
Back
SplineSet
282 522 m 5
 487.720703125 793 l 5
 633 755 l 5
 388 433 l 5
 282 522 l 5
10 36 m 261
 28 106 90 163 182 163 c 260
 239.641601562 163 274 140 317 140 c 260
 375 140 376 190 376 253 c 260
 376 353 l 4
 376 419.788085938 372.548828125 466 317 466 c 4
 264 466 l 262
 221.25 466 201.383789062 435.506835938 201.383789062 404.762695312 c 4
 201.383789062 373.510742188 221.946289062 342 264 342 c 4
 284.512695312 342 281 342 297 342 c 261
 297 202 l 261
 287 202 289.90625 201.958984375 264 201.958984375 c 4
 127.934570312 201.958984375 63.2783203125 300.4375 63.2783203125 400.157226562 c 4
 63.2783203125 502.42578125 131.228515625 606 264 606 c 262
 317 606 l 4
 497 606 516.075195312 472.124023438 516.075195312 353.452148438 c 4
 516 253 l 260
 516 75 445 0 317 0 c 260
 261 0 241 29 196 29 c 260
 153 29 143 2 143 2 c 261
 10 36 l 261
535 534 m 261
 558.653320312 554.697265625 587.264648438 563.501953125 615.379882812 563.501953125 c 4
 653.827148438 563.501953125 691.348632812 547.036132812 714 522 c 261
 742.640625 550.640625 778.627929688 563.80078125 815.041015625 563.80078125 c 4
 900.838867188 563.80078125 989 520.741210938 989 375 c 262
 989 251 l 261
 849 251 l 261
 849 372 l 262
 849 406.783203125 830.844726562 418.055664062 812.642578125 418.055664062 c 4
 794.345703125 418.055664062 776 406.623046875 776 372 c 262
 776 251 l 261
 641 251 l 261
 641 370 l 262
 641 399.28125 622.833984375 417.020507812 600.174804688 417.020507812 c 4
 590.576171875 417.020507812 580.171875 413.837890625 570 407 c 261
 535 534 l 261
551 185 m 262
 551 202 l 261
 691 202 l 261
 691 187 l 262
 691 141 735 129 768 129 c 260
 803 129 849 136 849 185 c 262
 849 202 l 261
 989 202 l 261
 989 181 l 260
 989 56 885 -8 768 -8 c 260
 623 -8 551 70 551 185 c 262
EndSplineSet
Fore
SplineSet
294 522 m 1
 499.720703125 793 l 1
 645 755 l 1
 400 433 l 1
 294 522 l 1
4 26 m 257
 22.2470703125 76.4677734375 77 159 170 159 c 256
 224.287426001 159 277.201775883 139.727147404 317.301934656 139.727147404 c 0
 359.871454984 139.727147404 388 153.446289062 388 243 c 258
 388 343 l 4
 388 401.833984375 382.322265625 474 287 474 c 256
 229.170268897 474 201.707654891 435.680144628 201.707654891 399.426006443 c 0
 201.707654891 366.880657886 223.838834134 336 266 336 c 0
 286.512695312 336 306 336 322 336 c 257
 322 202 l 257
 312 202 271.15625 201.958984375 245.25 201.958984375 c 0
 148.377929688 201.958984375 65 275.274414062 65 398 c 256
 65 535 177 606 287 606 c 256
 497.698242188 606 519.075195312 470.731445312 519.075195312 343 c 0
 519.075195312 328.861328125 519 261.315429688 519 243 c 256
 519 95 464 0 346 0 c 256
 303 0 240 27 195 27 c 256
 150 27 138 -8 138 -8 c 257
 4 26 l 257
533 532 m 257
 537 538 566 563 623 563 c 256
 668 563 698 543 717 522 c 257
 738 543 773 563 826 563 c 256
 924.131835938 563 990.30078125 512.60546875 991 405 c 258
 992 251 l 257
 852 251 l 257
 852 372 l 258
 852 397 849 420 816 420 c 256
 785.983398438 420 779 396.998046875 779 372 c 258
 779 251 l 257
 644 251 l 257
 645 350 l 257
 645 404 626.025390625 421 606 421 c 256
 580 421 577 412 573 407 c 257
 533 532 l 257
554 164 m 258
 554 202 l 257
 694 202 l 257
 694 187 l 258
 694 141 738 126 771 126 c 256
 806 126 852 136 852 185 c 258
 852 202 l 257
 992 202 l 257
 991 181 l 256
 991 56 889 -6 772 -6 c 256
 627 -6 554 69 554 164 c 258
EndSplineSet
PickledDataWithLists: "(dp1
S'com.fontlab.hintData'
p2
(dp3
S'vhints'
p4
(lp5
(dp6
S'position'
p7
I128
sS'width'
p8
I40
sa(dp9
g7
I579
sg8
I40
sa(dp10
g7
I686
sg8
I38
sa(dp11
g7
I777
sg8
I40
sa(dp12
g7
I1035
sg8
I40
sasS'hhints'
p13
(lp14
(dp15
g7
I0
sg8
I41
sa(dp16
g7
I66
sg8
I40
sa(dp17
g7
I529
sg8
I40
sa(dp18
g7
I537
sg8
I40
sa(dp19
g7
I573
sg8
I40
sass."
Layer: 2
Layer: 3
SplineSet
294 522 m 5
 499.720703125 793 l 5
 645 755 l 5
 400 433 l 5
 294 522 l 5
10 62 m 261
 22.2470703125 99.4677734375 70.7861328125 164.040039062 160 163 c 260
 217.637695312 162.328125 243 133 318 133 c 260
 356 133 388 158 388 251 c 260
 388 343 l 4
 388 403.833984375 382.322265625 474 287 474 c 260
 234.482421875 474 200 439 200 398 c 260
 200 346.793945312 228.215820312 326 266 326 c 4
 286.512695312 326 306 326 322 326 c 261
 322 202 l 261
 312 202 271.15625 201.958984375 245.25 201.958984375 c 4
 148.377929688 201.958984375 65 275.274414062 65 398 c 260
 65 535 177 606 287 606 c 260
 497.698242188 606 519.075195312 451.18359375 519.075195312 323.452148438 c 4
 519.075195312 309.313476562 519 273.315429688 519 255 c 260
 519 107 454 0 316 0 c 260
 243 0 220 34 175 34 c 260
 131 34 125 0 125 0 c 261
 10 62 l 261
533 532 m 261
 537 538 566 563 623 563 c 260
 668 563 698 543 717 522 c 261
 738 543 773 563 826 563 c 260
 924.131835938 563 990.30078125 512.60546875 991 405 c 262
 992 251 l 261
 852 251 l 261
 852 372 l 262
 852 397 849 420 816 420 c 260
 785.983398438 420 779 396.998046875 779 372 c 262
 779 251 l 261
 644 251 l 261
 645 350 l 261
 645 404 626.025390625 421 606 421 c 260
 580 421 577 412 573 407 c 261
 533 532 l 261
554 164 m 262
 554 202 l 261
 694 202 l 261
 694 187 l 262
 694 141 738 126 771 126 c 260
 806 126 852 136 852 185 c 262
 852 202 l 261
 992 202 l 261
 991 181 l 260
 991 56 889 -6 772 -6 c 260
 627 -6 554 69 554 164 c 262
EndSplineSet
EndChar

StartChar: si_Pa
Encoding: 46 3508 19
GlifName: si_P_a
Width: 628
VWidth: 0
Flags: HW
HStem: -12 135<199.74 428.012> 283 119<175.85 250 378 452.174> 378 24<250 378> 451 123.548<152.464 240.697 387.31 475.537>
VStem: 34 140<151.819 202 251 277.921> 250 128<378 441.312> 454 140<153.184 202 251 278.718>
CounterMasks: 1 0e
LayerCount: 4
Back
SplineSet
584 422 m 261
 448 422 l 261
 448 446 431 460 410 460 c 260
 386 460 371 441 371 422 c 261
 250 422 l 261
 249 441 236 460 210 460 c 260
 187 460 173 440 173 422 c 261
 37 422 l 261
 37 515 101 574 200 574 c 260
 245 574 283 563 310 543 c 261
 341 568 386 574 420 574 c 260
 525 574 584 511 584 422 c 261
EndSplineSet
Fore
SplineSet
30 460 m 257
 54.0459795656 536.590711255 121.807570966 574.547851562 193.251953125 574.547851562 c 0
 234.892274751 574.547851562 277.783631928 561.653926051 314 536 c 257xbe
 350.253273422 561.680493648 393.12409454 574.564453125 434.729492188 574.564453125 c 0
 506.220365999 574.564453125 573.974994202 536.524147937 598 460 c 257
 480 421 l 257
 475.584045584 436 460.783216783 451 433 451 c 256
 417.668933796 451 378 443.165126768 378 397 c 1
 378 378 l 1
 250 378 l 1
 250 397 l 1
 250 443.165126768 210.331066204 451 195 451 c 256
 167.216783217 451 152.415954416 436 148 421 c 257
 30 460 l 257
34 202 m 257
 174 202 l 257
 174 148.80078125 215 123 278 123 c 0
 350 123 l 256
 415 123 454 151 454 202 c 257
 594 202 l 257
 594 64 511 -12 342 -12 c 256
 289 -12 l 0
 112 -12 34 59.24609375 34 202 c 257
35 251 m 257
 35 373 101 402 198 402 c 258
 423 402 l 258
 531 402 594 377 594 251 c 257
 455 251 l 257
 455 263 455 283 426 283 c 258xde
 209 283 l 258
 175.73828125 283 174.000976562 262.104492188 174 251 c 257
 35 251 l 257
EndSplineSet
Layer: 2
SplineSet
971 478 m 261
 968 478 l 262
 945 478 928 461 928 424 c 262
 928 420 l 261
 823 460 l 261
 823 462 l 262
 823 533 900 590 968 590 c 262
 971 590 l 261
 971 478 l 261
EndSplineSet
Layer: 3
SplineSet
377 389 m 1xbc
 377 377.908203125 l 1
 242 378 l 1
 242 389 l 1
 242 440.395507812 197.41796875 450 146 450 c 256
 125 450 71 446 46 431 c 257
 46 551 l 257
 68 564 111 571 157 571 c 256
 200.737304688 571 266 564 309 509 c 257
 352 564 418.262695312 571 462 571 c 256
 508 571 550 562 572 549 c 257
 572 431 l 257
 537 444 490 447 469 447 c 256
 417.58203125 447 377 440.395507812 377 389 c 1xbc
448 202 m 257
 588 202 l 257
 588 64 505 -12 336 -12 c 256
 283 -12 l 0
 106 -12 28 59.24609375 28 202 c 257
 168 202 l 257
 168 148.80078125 209 123 272 123 c 0
 344 123 l 256
 409 123 448 151 448 202 c 257
420 283 m 258xdc
 203 283 l 258
 169.73828125 283 168.000976562 262.104492188 168 251 c 257
 29 251 l 257
 29 373 95 402 192 402 c 258
 417 402 l 258
 525 402 588 377 588 251 c 257
 449 251 l 257
 449 263 449 283 420 283 c 258xdc
EndSplineSet
EndChar

StartChar: si_Ra
Encoding: 53 3515 20
GlifName: si_R_a
Width: 545
VWidth: 0
Flags: W
HStem: -6 145<186.218 244 300 356.663>
VStem: 30 140<157.843 508.195> 375 140<155.129 410.374>
LayerCount: 4
Back
SplineSet
305 -5 m 261
 305 126 l 261
 312 126 l 262
 370 126 380 167 380 242 c 262
 380 366 l 262
 380 469 305 477 247 478 c 262
 230 478 l 261
 307 603 l 261
 324 602 l 260
 427 602 510 500 510 366 c 262
 510 250 l 262
 510 69 419 -5 312 -5 c 262
 305 -5 l 261
242 -5 m 262
 146 -5 44 67 44 246 c 262
 44 417 l 262
 44 455 51 515 55 526 c 260
 83 604 164 706 201 769 c 260
 212 789 220 804 221 813 c 262
 222 819 l 261
 365 819 l 261
 365 811 l 262
 364 794 353 770 336 741 c 261
 293 665 181 525 181 474 c 261
 181 440 l 261
 180 233 l 262
 180 165 202 126 242 126 c 262
 250 126 l 261
 250 -5 l 261
 242 -5 l 262
EndSplineSet
Fore
SplineSet
30 235 m 258
 30 427 l 258
 30 478 31 559.141601562 123 634.001953125 c 256
 318 793 l 257
 483 749 l 257
 237 549 l 256
 162 489 170 487 170 420 c 256
 170 235 l 258
 170 167 184.221679688 139 244 139 c 257
 244 -6 l 257
 141.578125 -6 30 51.1748046875 30 235 c 258
208.92578125 456 m 1
 342 564 l 257
 365 563.981445312 l 1
 477.508789062 563.953125 515 491.189453125 515 328 c 258
 515 235 l 258
 515 42.8447265625 412.532226562 -5 300 -5 c 257
 300 139 l 257
 360.5859375 139 375 166.590820312 375 235 c 258
 375 322 l 258
 375 395.112304688 375 426 300 426 c 258
 209 426 l 257
 208.92578125 456 l 1
EndSplineSet
Layer: 2
Layer: 3
EndChar

StartChar: si_Sa
Encoding: 58 3523 21
GlifName: si_S_a
Width: 687
VWidth: 0
Flags: HMW
LayerCount: 4
Back
Fore
SplineSet
67 160 m 0
 67 202 l 257
 206 202 l 1
 206 171 l 2
 206 144.934689091 229.005735768 131.396782147 252.008603115 131.396782147 c 0
 275.005735053 131.396782147 298 144.927938996 298 173 c 2
 298 202 l 257
 426 202 l 257
 426 173 l 2
 426 145.085968661 449.285280698 131.382513218 472.426596846 131.382513218 c 0
 495.283522345 131.382513218 518 144.751226415 518 171 c 2
 518 202 l 1
 657 202 l 257
 657 160 l 0
 657 50 585.024533357 -8 475 -8 c 256
 432.054846939 -8 388.961734694 3.73333333333 359 36 c 257
 330.071428571 3.73333333333 291.464285714 -8 250 -8 c 256
 141.126953125 -8 67 58 67 160 c 0
78 460 m 257
 102.045964826 536.590850926 169.807514688 574.548060452 241.251853053 574.548060452 c 0
 282.892209188 574.548060452 325.783601913 561.654065069 362 536 c 257
 398.253384942 561.680264891 441.124337936 574.5641096 482.729863568 574.5641096 c 0
 554.220574764 574.5641096 621.97504885 536.523918476 646 460 c 257
 528 421 l 257
 523.584045584 436 508.783216783 451 481 451 c 256
 465.668933796 451 426 443.165126768 426 397 c 1
 426 378 l 1
 298 378 l 1
 298 397 l 1
 298 443.165126768 258.331066204 451 243 451 c 256
 215.216783217 451 200.415954416 436 196 421 c 257
 78 460 l 257
30 283 m 257
 30 402 l 257
 503 402 l 258
 565.360482743 402 657 391.936523438 657 279 c 2
 657 251 l 257
 518 251 l 257
 518 266 509 283 481 283 c 258
 246 283 l 258
 213 283 206 263 206 251 c 257
 67 251 l 257
 67.28125 256.169921875 68 281 71 283 c 257
 30 283 l 257
EndSplineSet
PickledDataWithLists: "(dp1
S'com.fontlab.hintData'
p2
(dp3
S'vhints'
p4
(lp5
(dp6
S'position'
p7
I63
sS'width'
p8
I139
sa(dp9
g7
I316
sg8
I123
sa(dp10
g7
I554
sg8
I139
sasS'hhints'
p11
(lp12
(dp13
g7
I-6
sg8
I132
sa(dp14
g7
I251
sg8
I163
sa(dp15
g7
I295
sg8
I119
sa(dp16
g7
I498
sg8
I113
sass."
Layer: 2
Layer: 3
EndChar

StartChar: si_Ssa
Encoding: 57 3522 22
GlifName: si_S_sa
Width: 660
VWidth: 0
Flags: HMW
LayerCount: 4
Back
Fore
SplineSet
48 460 m 257
 72.045979566 536.590711255 139.807570965 574.547851562 211.251953125 574.547851562 c 0
 252.89227475 574.547851562 295.783631928 561.653926051 332 536 c 257
 368.253273422 561.680493648 411.124094539 574.564453125 452.729492188 574.564453125 c 0
 524.220365999 574.564453125 591.974994202 536.524147936 616 460 c 257
 498 421 l 257
 493.584045584 436 478.783216783 451 451 451 c 256
 435.668933796 451 396 443.165126768 396 397 c 1
 396 378 l 1
 268 378 l 1
 268 397 l 1
 268 443.165126768 228.331066204 451 213 451 c 256
 185.216783217 451 170.415954416 436 166 421 c 257
 48 460 l 257
244 168 m 1
 244 276.976190476 330 345 392 367 c 1
 558 367 l 1
 483 342 378 259.975961538 378 170 c 1
 244 168 l 1
30 202 m 257
 170 202 l 257
 170 148.80078125 211 123 274 123 c 0
 386 123 l 256
 451 123 490 151 490 202 c 257
 630 202 l 257
 630 64 547 -12 378 -12 c 256
 285 -12 l 0
 108 -12 30 59.24609375 30 202 c 257
31 251 m 257
 31 377.039735099 97 407 194 407 c 258
 459 407 l 258
 567 407 630 381.17218543 630 251 c 257
 491 251 l 257
 491 264.875 491 288 462 288 c 258
 205 288 l 258
 171.73828125 288 170.000976562 263.839569092 170 251 c 257
 31 251 l 257
EndSplineSet
PickledDataWithLists: "(dp1
S'com.fontlab.hintData'
p2
(dp3
S'vhints'
p4
(lp5
(dp6
S'position'
p7
I49
sS'width'
p8
I130
sa(dp9
g7
I267
sg8
I109
sa(dp10
g7
I532
sg8
I120
sasS'hhints'
p11
(lp12
(dp13
g7
I-6
sg8
I131
sa(dp14
g7
I296
sg8
I118
sa(dp15
g7
I486
sg8
I124
sass."
Layer: 2
Layer: 3
EndChar

StartChar: si_Ta
Encoding: 40 3501 23
GlifName: si_T_a
Width: 771
VWidth: 0
Flags: HW
HStem: -7.9502 137.95<264.297 382.212 576 618.763> 435.005 139.995<416.346 587.186> 446 121<166.048 273.047>
VStem: 632 140<145.686 390.235>
LayerCount: 4
Back
SplineSet
255 402 m 5xb0
 255 437 224.168945312 446 208 446 c 260
 174.069335938 446 157 422.741210938 157 402 c 261
 40 439 l 261
 54 537 146.521484375 567 208 567 c 260
 276.510742188 567 339 522 339 506 c 5
 255 402 l 5xb0
325 258 m 261
 425 342 l 261
 585.951171875 226.397460938 502.317382812 -7.9501953125 314 -7.9501953125 c 4
 107.728515625 -7.9501953125 112 167.5 33 154 c 261
 77 254 l 261
 217.415039062 254 198.282226562 130 294 130 c 4
 386.887695312 130 391.385742188 236.400390625 325 258 c 261
304 480 m 5
 448.8203125 639.302734375 743 581.889648438 743 321 c 6
 743 205 l 4
 742.580078125 88.7373046875 686.295898438 -1 547 -1 c 261
 547 142 l 261
 599.112304688 142 603 180.958984375 603 205 c 4
 603 307 l 6
 603 416.044921875 499.70703125 455 428 400 c 5
 158 181.391601562 l 5
 33 154 l 5
 33 259 l 5
 304 480 l 5
EndSplineSet
Fore
SplineSet
30.234375 153.779296875 m 257
 74.234375 248.779296875 l 257
 203.458984375 286.311523438 189.541015625 127.219726562 292.270507812 127.219726562 c 0
 335.114257812 127.219726562 372.774414062 154.372070312 372.774414062 194.299804688 c 0
 372.774414062 219.890625 362.270507812 244.2109375 324 260 c 1
 421.223632812 338.095703125 l 1
 493 306.298828125 504.459960938 235.932617188 504.459960938 185.0546875 c 0
 504.459960938 82.5751953125 427.352539062 -8 296 -8 c 0
 234.065429688 -8 163.42578125 24.9990234375 111.234375 100.732421875 c 0
 90.234375 131.205078125 75.234375 165.557617188 30.234375 153.779296875 c 257
37.234375 438.779296875 m 257
 51.234375 536.779296875 143.755859375 566.779296875 205.234375 566.779296875 c 256
 273.745117188 566.779296875 336.234375 521.779296875 336.234375 505.779296875 c 1
 252.234375 401.779296875 l 1xb0
 252.234375 436.779296875 221.403320312 445.779296875 205.234375 445.779296875 c 256
 171.303710938 445.779296875 154.234375 422.520507812 154.234375 401.779296875 c 257
 37.234375 438.779296875 l 257
30.234375 153.779296875 m 1
 30.234375 258.779296875 l 1
 301.234375 479.779296875 l 1
 446.0546875 639.08203125 740.234375 581.668945312 740.234375 320.779296875 c 2
 740.234375 204.779296875 l 0
 739.814453125 88.5166015625 683.530273438 -1.220703125 544.234375 -1.220703125 c 257
 544.234375 141.779296875 l 257
 596.346679688 141.779296875 600.234375 180.73828125 600.234375 204.779296875 c 0
 600.234375 306.779296875 l 2
 600.234375 415.82421875 496.94140625 454.779296875 425.234375 399.779296875 c 1
 155.234375 188.170898438 l 1
 30.234375 153.779296875 l 1
EndSplineSet
PickledDataWithLists: "(dp1
S'com.fontlab.hintData'
p2
(dp3
S'vhints'
p4
(lp5
(dp6
S'position'
p7
I355
sS'width'
p8
I120
sa(dp9
g7
I584
sg8
I124
sasS'hhints'
p10
(lp11
(dp12
g7
I0
sg8
I118
sa(dp13
g7
I0
sg8
I110
sa(dp14
g7
I473
sg8
I122
sass."
Layer: 2
SplineSet
255 402 m 5xb0
 255 437 224.168945312 446 208 446 c 260
 174.069335938 446 157 422.741210938 157 402 c 261
 40 439 l 261
 54 537 146.521484375 567 208 567 c 260
 276.510742188 567 339 522 339 506 c 5
 255 402 l 5xb0
386 396 m 6
 128 68 l 5
 33.5546875 150.484375 l 5
 283 476 l 5
 405 645 765 607.510742188 765 313 c 6
 765 198 l 4
 764.580078125 81.7373046875 708.295898438 -8 569 -8 c 261
 569 135 l 261
 621.112304688 135 625 173.958984375 625 198 c 4
 625 313 l 6
 625 448.591796875 454.262695312 482.783203125 386 396 c 6
353 272 m 261
 431 374 l 261
 608 303 558.090820312 -7.9501953125 334 -7.9501953125 c 4
 212.107421875 -7.9501953125 171.416992188 110.137695312 128 68 c 261
 172 162 l 261
 244 244 256.954101562 130 324 130 c 4
 411.642578125 130 418.0703125 250.295898438 353 272 c 261
EndSplineSet
Layer: 3
SplineSet
263 402 m 5x1c
 263 439 233.760742188 446 220 446 c 260
 181.412109375 446 165 422.741210938 165 402 c 261
 49 450 l 261
 84.873046875 546 161.321289062 563 225 563 c 260
 289.849609375 563 347 520.951171875 347 506 c 5
 263 402 l 5x1c
409 196 m 260
 409 253.666992188 380.118164062 268.126953125 353 277 c 261
 427 376 l 261
 484.491210938 359.2265625 536.084960938 297.974609375 536.084960938 196.69140625 c 4
 536.084960938 51.591796875 477.224609375 -7.9501953125 341 -7.9501953125 c 4
 225.303710938 -7.9501953125 193.836914062 67.552734375 151.333007812 67.552734375 c 4
 145.013671875 67.552734375 138.266601562 65.2578125 130.583007812 59.8623046875 c 261
 185.666992188 175 l 261
 188.461914062 175.290039062 191.139648438 175.427734375 193.711914062 175.427734375 c 4
 256.467773438 175.427734375 268.888671875 119.478515625 341 119.478515625 c 4x8c
 393.29296875 119.478515625 409 146.095703125 409 196 c 260
298.456054688 479 m 5
 376.374023438 588 476.877929688 578 507 578 c 4
 526 578 l 4
 659.064453125 578 768 499.451171875 768 318 c 4
 768 206 l 4
 768 72.30859375 718.681640625 0 615 0 c 4
 554 0 l 5
 554 120 l 5
 558.787109375 119.995117188 l 4
 630 120 630 149.416992188 630 221 c 4
 630 310 l 4
 630 394.4375 587.328125 440 513.783203125 440.004882812 c 4
 490.783203125 440.004882812 l 4x6c
 443.42578125 440 413.815429688 420 384 384 c 4
 130.583007812 59.8623046875 l 5
 40.1376953125 138.346679688 l 5
 298.456054688 479 l 5
EndSplineSet
EndChar

StartChar: si_Tta
Encoding: 34 3495 24
GlifName: si_T_ta
Width: 558
VWidth: 0
Flags: HW
HStem: -5 140<190.924 240.667 297 363.199> 616.5 138.5<187.506 240.667 297 359.086>
VStem: 30 138<158.959 320.681 566 595.186> 388 140<162.547 248 508 588.145>
LayerCount: 4
Back
Fore
SplineSet
297 -5 m 257
 493 -5 528 138 528 237 c 256
 528 520 l 0
 528 678 456.408203125 755 297 755 c 257
 297 616 l 257
 346.5546875 616 388 603 388 508 c 0
 388 248 l 256
 388 148.601851852 346.5546875 135 297 135 c 257
 297 -5 l 257
30 566 m 261
 30 672.125976562 137.077148438 755 240.666992188 755 c 5
 240.666992188 616.5 l 5
 203.301757812 616.5 167 595.735351562 167 530 c 261
 30 566 l 261
29.9990234375 261.92578125 m 0
 29.9990234375 343.692808447 44.6669921875 474 240.666992188 474 c 257
 240.666992188 336 l 257
 200.666992188 336 168 322 168 262 c 256
 168 222 l 2
 168 182.580197218 189 135 240.666992188 135 c 257
 240.666992188 -5 l 257
 96.6669921875 -5 30 116.579646018 30 208 c 256
 29.9990234375 261.92578125 l 0
EndSplineSet
PickledDataWithLists: "(dp1
S'com.fontlab.hintData'
p2
(dp3
S'vhints'
p4
(lp5
(dp6
S'position'
p7
I73
sS'width'
p8
I40
sa(dp9
g7
I524
sg8
I41
sasS'hhints'
p10
(lp11
(dp12
g7
I0
sg8
I40
sa(dp13
g7
I434
sg8
I40
sa(dp14
g7
I712
sg8
I40
sass."
Layer: 2
Layer: 3
EndChar

StartChar: si_Va
Encoding: 55 3520 25
GlifName: si_V_a
Width: 568
VWidth: 0
Flags: HW
HStem: -5 140<190.43 247 303 363.917> 399.185 102.464<125.25 208.241> 616.5 138.5<191.992 246.667 303 368.92>
VStem: 33 138<152.203 242.935 566 595.186> 398 140<169.356 588.707>
AnchorPoint: "si_rakar" 303 -6 basechar 0
LayerCount: 4
Back
Fore
SplineSet
30.3330078125 566 m 257
 167.333007812 530 l 257
 167.333007812 595.735351562 206.591456815 616.5 247 616.5 c 1
 247 755 l 1
 140.459817157 755 30.3330078125 672.125976562 30.3330078125 566 c 257
30 401 m 257
 55 479.754436649 115.74340045 501.6484375 170 501.6484375 c 0
 251.635095257 501.6484375 314 449.685236451 314 369 c 258
 314 252 l 257
 230 252 l 258
 200 252 171 242 171 195 c 256
 171 165.780894886 193.503125 135 247 135 c 257
 247 -5 l 257
 119.557711088 -5 33 87.232421875 33 192 c 256
 33 241 34.1772669293 291.09323436 91 333 c 256
 123.542372881 357 159.13559322 369 211 369 c 257
 211 387.973632812 193.962810558 399.184570312 170 399.184570312 c 0
 152.769079152 399.184570312 133.131158838 393.124187526 129 375 c 257
 30 401 l 257
303 -5 m 261
 457.967828396 -4.833984375 538 78.4931640625 538 250 c 258
 538 520 l 258
 538 699.96875 437.272799141 755 303 755 c 257
 303 616 l 257
 381.25184581 616 398 577 398 498 c 258
 398 250 l 258
 398 149.137118253 345.410714286 135 303 135 c 257
 303 -5 l 261
EndSplineSet
PickledDataWithLists: "(dp1
S'com.fontlab.hintData'
p2
(dp3
S'vhints'
p4
(lp5
(dp6
S'position'
p7
I18
sS'width'
p8
I127
sa(dp9
g7
I398
sg8
I134
sasS'hhints'
p10
(lp11
(dp12
g7
I-4
sg8
I132
sa(dp13
g7
I629
sg8
I131
sass."
Layer: 2
SplineSet
240.666992188 616.5 m 5
 240.666992188 755 l 5
 137.077148438 755 30 672.125976562 30 566 c 261
 167 530 l 261
 167 595.735351562 203.301757812 616.5 240.666992188 616.5 c 5
241 140 m 261
 241 -5 l 261
 117.130859375 -5 33 87.232421875 33 192 c 260
 33 241 35 290 91 333 c 260
 123 357 158 369 209 369 c 261
 209 387.973632812 175.794921875 399.184570312 137.34375 399.184570312 c 4
 106.890625 399.184570312 73.146484375 391.034179688 50 382 c 261
 50 492 l 261
 77.0361328125 501.293945312 112.129882812 506.6484375 147.934570312 506.6484375 c 4
 196.887695312 506.6484375 247.168945312 496.638671875 280 473 c 260
 307 454 327 416 327 349 c 262
 327 252 l 261
 230 252 l 262
 200 252 171 242 171 195 c 260
 171 168.215820312 191.7265625 140 241 140 c 261
528 520 m 262
 528 250 l 262
 528 78.4931640625 449.330078125 -4.833984375 297 -5 c 261
 297 140 l 261
 337.625 140 388 153.522460938 388 250 c 262
 388 498 l 262
 388 577 371.95703125 616 297 616 c 261
 297 755 l 261
 428.987304688 755 528 699.96875 528 520 c 262
EndSplineSet
Layer: 3
SplineSet
240.666992188 616.5 m 5
 240.666992188 755 l 5
 137.077148438 755 30 672.125976562 30 566 c 261
 167 530 l 261
 167 595.735351562 203.301757812 616.5 240.666992188 616.5 c 5
241 140 m 261
 241 -5 l 261
 117.130859375 -5 33 87.232421875 33 192 c 260
 33 241 35 290 91 333 c 260
 123 357 158 369 209 369 c 261
 209 387.973632812 175.794921875 399.184570312 137.34375 399.184570312 c 4
 106.890625 399.184570312 73.146484375 391.034179688 50 382 c 261
 50 492 l 261
 77.0361328125 501.293945312 112.129882812 506.6484375 147.934570312 506.6484375 c 4
 196.887695312 506.6484375 247.168945312 496.638671875 280 473 c 260
 307 454 327 416 327 349 c 262
 327 252 l 261
 230 252 l 262
 200 252 171 242 171 195 c 260
 171 168.215820312 191.7265625 140 241 140 c 261
528 520 m 262
 528 250 l 262
 528 78.4931640625 449.330078125 -4.833984375 297 -5 c 261
 297 140 l 261
 337.625 140 388 153.522460938 388 250 c 262
 388 498 l 262
 388 577 371.95703125 616 297 616 c 261
 297 755 l 261
 428.987304688 755 528 699.96875 528 520 c 262
EndSplineSet
EndChar

StartChar: si_Ya
Encoding: 52 3514 26
GlifName: si_Y_a
Width: 655
VWidth: 0
Flags: HMW
LayerCount: 4
Back
Fore
SplineSet
30 160 m 0
 30 202 l 257
 169 202 l 1
 169 171 l 2
 169 144.934493109 192.005828747 131.396484375 215.008789062 131.396484375 c 0
 238.00582802 131.396484375 261 144.927738072 261 173 c 2
 261 202 l 257
 389 202 l 257
 389 173 l 2
 389 145.086169397 412.28536143 131.3828125 435.426757812 131.3828125 c 0
 458.28360258 131.3828125 481 144.751424706 481 171 c 2
 481 202 l 1
 620 202 l 257
 620 160 l 0
 620 50 548.024533357 -8 438 -8 c 256
 395.054846939 -8 351.961734694 3.73333333333 322 36 c 257
 293.071428571 3.73333333333 254.464285714 -8 213 -8 c 256
 104.126953125 -8 30 58 30 160 c 0
293 283 m 257
 293 366 l 262
 293 489.77734375 340.893554688 566 467 566 c 4
 522.747983871 566 589 543 625 458 c 261
 515 421 l 261
 503.118041992 441.99609375 485.367024739 445.798828125 467 445.798828125 c 4
 443.179643112 445.798828125 423 433.2265625 423 402 c 261
 479 402 l 258
 587 402 620 339 620 269 c 258
 620 251 l 257
 480 251 l 257
 480 254 l 258
 480 268 478 283 437 283 c 258
 293 283 l 257
30 251 m 257
 30 340 l 258
 30 493.265217833 132.282803769 563 248 563 c 258
 265 563 l 257
 265 433 l 257
 245 433 l 258
 191.20492088 433 169 389.937761321 169 317 c 258
 169 251 l 257
 30 251 l 257
EndSplineSet
PickledDataWithLists: "(dp1
S'com.fontlab.hintData'
p2
(dp3
S'vhints'
p4
(lp5
(dp6
S'position'
p7
I42
sS'width'
p8
I129
sa(dp9
g7
I279
sg8
I115
sa(dp10
g7
I505
sg8
I124
sasS'hhints'
p11
(lp12
(dp13
g7
I-11
sg8
I129
sa(dp14
g7
I251
sg8
I159
sa(dp15
g7
I297
sg8
I113
sa(dp16
g7
I481
sg8
I122
sass."
Layer: 2
SplineSet
429 -8 m 260
 378 -8 355 7 326 37 c 261
 296 4 267 -8 224 -8 c 260
 93 -8 30 79 30 202 c 261
 169 202 l 261
 169 189 l 262
 169 147 189 132 214 132 c 260
 237 132 263 141 263 186 c 261
 263 202 l 261
 386 202 l 261
 386 188 l 261
 386 145 405 132 433 132 c 260
 458 132 479 142 479 189 c 262
 479 202 l 261
 618 202 l 261
 618 51 531 -8 429 -8 c 260
292 366 m 262
 292 399 292.822265625 443.200195312 304 468 c 260
 345.631835938 560.3671875 462.7890625 584.802734375 597 552 c 261
 597 422 l 261
 523.7265625 458.078125 435 448.916015625 435 402 c 261
 478 402 l 262
 586 402 619 339 619 269 c 262
 619 251 l 261
 479 251 l 261
 479 254 l 262
 479 268 477 283 436 283 c 262
 292 283 l 261
 292 366 l 262
265 433 m 261
 245 433 l 262
 224 433 182 417 170 349 c 260
 169 339 169 314 169 277 c 262
 169 251 l 261
 30 251 l 261
 30 290 l 262
 30 369 41.1826171875 433.865234375 61 461 c 260
 126 550 207 563 248 563 c 262
 265 563 l 261
 265 433 l 261
EndSplineSet
Layer: 3
EndChar

StartChar: uni0021
Encoding: 65538 33 28
GlifName: uni0021
Width: 329
VWidth: 0
Flags: W
LayerCount: 4
Back
Fore
SplineSet
88 53 m 256
 88 95 121 129 163 129 c 256
 205 129 238 95 238 53 c 256
 238 11 205 -22 163 -22 c 256
 121 -22 88 11 88 53 c 256
100 166 m 257
 100 700 l 257
 229 700 l 257
 229 166 l 257
 100 166 l 257
EndSplineSet
Validated: 1
Layer: 2
Layer: 3
EndChar

StartChar: uni0022
Encoding: 65539 34 29
GlifName: uni0022
Width: 407
VWidth: 0
Flags: HW
LayerCount: 4
Back
Fore
SplineSet
50 465 m 257
 50 736 l 257
 177 736 l 257
 177 465 l 257
 50 465 l 257
230 465 m 257
 230 736 l 257
 357 736 l 257
 357 465 l 257
 230 465 l 257
EndSplineSet
Layer: 2
Layer: 3
EndChar

StartChar: uni0023
Encoding: 65540 35 30
GlifName: uni0023
Width: 888
VWidth: 0
Flags: HW
HStem: 176 121<126 241 101 263 126 362 126 383 126 467> 404 121<157 281 135 303 157 402 157 507>
LayerCount: 4
Back
Fore
SplineSet
101 176 m 257
 126 297 l 257
 263 297 l 257
 281 404 l 257
 135 404 l 257
 157 525 l 257
 303 525 l 257
 330 682 l 257
 451 682 l 257
 423 524 l 257
 529 524 l 257
 556 682 l 257
 677 682 l 257
 649 524 l 257
 787 524 l 257
 768 403 l 257
 628 404 l 257
 609 296 l 257
 752 296 l 257
 734 175 l 257
 588 176 l 257
 561 22 l 257
 441 22 l 257
 467 176 l 257
 362 176 l 257
 335 22 l 257
 214 22 l 257
 241 176 l 257
 101 176 l 257
383 297 m 257
 489 296 l 257
 507 404 l 257
 402 404 l 257
 383 297 l 257
EndSplineSet
PickledDataWithLists: "(dp1
S'com.fontlab.hintData'
p2
(dp3
S'hhints'
p4
(lp5
(dp6
S'position'
p7
I176
sS'width'
p8
I121
sa(dp9
g7
I404
sg8
I121
sass."
Layer: 2
Layer: 3
EndChar

StartChar: uni0024
Encoding: 65541 36 31
GlifName: uni0024
Width: 501
VWidth: 0
Flags: HW
VStem: 38 134<499.5 525 499.5 553.5> 142 71<-47 13 13 13 679 750> 268 71<-47 -3 -3 12 -47 127 682 750> 330 141<176.5 222>
LayerCount: 4
Back
Fore
SplineSet
268 -3 m 256
 268 127 l 257x20
 292 130 330 150 330 203 c 256x10
 330 241 303 263 268 280 c 257
 268 428 l 257x20
 294 418 320 407 343 394 c 256
 404 358 471 311 471 209 c 256x10
 471 122 414 44 339 12 c 257
 339 -47 l 257
 268 -47 l 257
 268 -3 l 256
38 508 m 256x80
 38 599 91 652 142 679 c 257
 142 750 l 257
 213 750 l 257x40
 213 568 l 257x40
 192 562 172 537 172 513 c 256x80
 172 486 189 469 213 454 c 257
 213 302 l 257x40
 194 309 176 316 161 323 c 256
 90 357 38 403 38 508 c 256x80
268 568 m 257
 268 750 l 257
 339 750 l 257
 339 682 l 257x20
 402 649 438 580 443 553 c 257
 313 510 l 257
 308 557 268 568 268 568 c 257
30 158 m 257
 157 203 l 257
 159 147 213 127 213 127 c 257
 213 -47 l 257x40
 142 -47 l 257
 142 13 l 257
 73 45 31 116 30 158 c 257
EndSplineSet
PickledDataWithLists: "(dp1
S'com.fontlab.hintData'
p2
(dp3
S'vhints'
p4
(lp5
(dp6
S'position'
p7
I38
sS'width'
p8
I134
sa(dp9
g7
I142
sg8
I71
sa(dp10
g7
I268
sg8
I71
sa(dp11
g7
I330
sg8
I141
sass."
Layer: 2
Layer: 3
EndChar

StartChar: uni0025
Encoding: 65542 37 32
GlifName: uni0025
Width: 629
VWidth: 0
Flags: W
HStem: 9 216<465 525> 467 216<104 164>
VStem: 26 216<545 605> 387 216<87 147>
LayerCount: 4
Back
Fore
SplineSet
160 -23 m 257
 335 716 l 257
 461 716 l 257
 287 -23 l 257
 160 -23 l 257
26 575 m 256
 26 635 74 683 134 683 c 256
 194 683 242 635 242 575 c 256
 242 515 194 467 134 467 c 256
 74 467 26 515 26 575 c 256
387 117 m 256
 387 177 435 225 495 225 c 256
 555 225 603 177 603 117 c 256
 603 57 555 9 495 9 c 256
 435 9 387 57 387 117 c 256
EndSplineSet
Validated: 1
PickledDataWithLists: "(dp1
S'com.fontlab.hintData'
p2
(dp3
S'vhints'
p4
(lp5
(dp6
S'position'
p7
I26
sS'width'
p8
I216
sa(dp9
g7
I387
sg8
I216
sasS'hhints'
p10
(lp11
(dp12
g7
I9
sg8
I216
sa(dp13
g7
I467
sg8
I216
sass."
Layer: 2
Layer: 3
EndChar

StartChar: uni0027
Encoding: 65544 39 34
GlifName: uni0027
Width: 227
VWidth: 0
Flags: HW
LayerCount: 4
Back
Fore
SplineSet
50 465 m 257
 50 736 l 257
 177 736 l 257
 177 465 l 257
 50 465 l 257
EndSplineSet
Layer: 2
Layer: 3
EndChar

StartChar: uni0028
Encoding: 65545 40 35
GlifName: uni0028
Width: 262
VWidth: 0
Flags: HW
LayerCount: 4
Back
Fore
SplineSet
50 189 m 257
 50 510 l 257
 50 652 113 696 212 735 c 257
 213 648 l 257
 174 625 154 593 153 521 c 258
 153 208 l 258
 153 206 153 204 153 202 c 256
 153 104 178 73 213 51 c 257
 213 -37 l 257
 71 22 50 93 50 189 c 257
EndSplineSet
Layer: 2
Layer: 3
EndChar

StartChar: uni0029
Encoding: 65546 41 36
GlifName: uni0029
Width: 330
VWidth: 0
Flags: HW
VStem: 161 119<202 208 208 510>
LayerCount: 4
Back
Fore
SplineSet
100 649 m 257
 101 746 l 257
 209 706 280 650 280 510 c 257
 280 189 l 257
 280 93 243 9 101 -47 c 257
 101 51 l 257
 136 73 161 104 161 202 c 256
 161 204 161 206 161 208 c 258
 161 521 l 258
 160 593 139 626 100 649 c 257
EndSplineSet
PickledDataWithLists: "(dp1
S'com.fontlab.hintData'
p2
(dp3
S'vhints'
p4
(lp5
(dp6
S'position'
p7
I161
sS'width'
p8
I119
sass."
Layer: 2
Layer: 3
EndChar

StartChar: uni002A
Encoding: 65547 42 37
GlifName: uni002A_
Width: 394
VWidth: 0
Flags: HW
HStem: 478 307<160 231 160 231> 517 21<92 92>
VStem: 160 71<478 564 564 564 704 785>
LayerCount: 4
Back
Fore
SplineSet
50 691 m 257
 92 748 l 257
 160 704 l 257
 160 785 l 257
 231 785 l 257
 231 702 l 257
 302 748 l 257
 344 691 l 257
 256 632 l 257
 343 572 l 257
 302 515 l 257
 231 565 l 257
 231 478 l 257xa0
 160 478 l 257xa0
 160 564 l 257
 92 517 l 257x60
 51 574 l 257
 138 633 l 257
 50 691 l 257
EndSplineSet
PickledDataWithLists: "(dp1
S'com.fontlab.hintData'
p2
(dp3
S'vhints'
p4
(lp5
(dp6
S'position'
p7
I160
sS'width'
p8
I71
sasS'hhints'
p9
(lp10
(dp11
g7
I478
sg8
I307
sa(dp12
g7
I517
sg8
I21
sass."
Layer: 2
Layer: 3
EndChar

StartChar: uni002B
Encoding: 65548 43 38
GlifName: uni002B_
Width: 475
VWidth: 0
Flags: HW
LayerCount: 4
Back
Fore
SplineSet
50 230 m 257
 50 357 l 257
 173 357 l 257
 173 498 l 257
 300 498 l 257
 300 357 l 257
 425 357 l 257
 425 230 l 257
 300 230 l 257
 300 87 l 257
 173 87 l 257
 173 230 l 257
 50 230 l 257
EndSplineSet
Layer: 2
Layer: 3
EndChar

StartChar: uni002C
Encoding: 65549 44 39
GlifName: uni002C_
Width: 265
VWidth: 0
Flags: HW
LayerCount: 4
Back
Fore
SplineSet
51 -23 m 257
 88 129 l 257
 215 129 l 257
 178 -23 l 257
 51 -23 l 257
EndSplineSet
Layer: 2
Layer: 3
EndChar

StartChar: uni002D
Encoding: 65550 45 40
GlifName: uni002D_
Width: 416
VWidth: 0
Flags: HW
LayerCount: 4
Back
Fore
SplineSet
50 230 m 257
 50 357 l 257
 366 357 l 257
 366 230 l 257
 50 230 l 257
EndSplineSet
Layer: 2
Layer: 3
EndChar

StartChar: uni002E
Encoding: 65551 46 41
GlifName: uni002E_
Width: 250
VWidth: 0
Flags: W
LayerCount: 4
Back
Fore
SplineSet
50 53 m 256
 50 95 83 129 125 129 c 256
 167 129 200 95 200 53 c 256
 200 11 167 -22 125 -22 c 256
 83 -22 50 11 50 53 c 256
EndSplineSet
Validated: 1
Layer: 2
Layer: 3
EndChar

StartChar: uni002F
Encoding: 65552 47 42
GlifName: uni002F_
Width: 401
VWidth: 0
Flags: W
LayerCount: 4
Back
Fore
SplineSet
50 -23 m 257
 225 716 l 257
 351 716 l 257
 177 -23 l 257
 50 -23 l 257
EndSplineSet
Validated: 1
Layer: 2
Layer: 3
EndChar

StartChar: uni0030
Encoding: 65553 48 43
GlifName: uni0030
Width: 1024
VWidth: 0
Flags: HW
LayerCount: 4
Back
Fore
SplineSet
221 353 m 256
 221 602 315 693 404 698 c 257
 404 573 l 257
 351 560 346 461 346 398 c 256
 346 371 346 360 346 339 c 256
 346 248 348 137 403 124 c 257
 403 0 l 257
 337 3 221 60 221 353 c 256
464 573 m 257
 464 698 l 257
 553 693 647 602 647 353 c 256
 647 60 531 3 465 0 c 257
 465 124 l 257
 520 137 522 248 522 339 c 256
 522 360 522 371 522 398 c 256
 522 461 517 560 464 573 c 257
EndSplineSet
Layer: 2
Layer: 3
EndChar

StartChar: uni0031
Encoding: 65554 49 44
GlifName: uni0031
Width: 266
VWidth: 0
Flags: HW
HStem: 0 21<106 236 106 106> 0 21<106 236 106 106> 679 20<106 236 236 236> 679 20<106 236 236 236>
VStem: 30 206<439 640 640 640> 106 130<0 499 499 499 0 699>
LayerCount: 4
Back
Fore
SplineSet
30 439 m 257
 30 640 l 257xa8
 106 699 l 257
 236 699 l 257
 236 0 l 257
 106 0 l 257
 106 499 l 257xa4
 30 439 l 257
EndSplineSet
PickledDataWithLists: "(dp1
S'com.fontlab.hintData'
p2
(dp3
S'vhints'
p4
(lp5
(dp6
S'position'
p7
I30
sS'width'
p8
I206
sa(dp9
g7
I106
sg8
I130
sasS'hhints'
p10
(lp11
(dp12
g7
I0
sg8
I21
sa(dp13
g7
I0
sg8
I21
sa(dp14
g7
I679
sg8
I20
sa(dp15
g7
I679
sg8
I20
sass."
Layer: 2
Layer: 3
EndChar

StartChar: uni0032
Encoding: 65555 50 45
GlifName: uni0032
Width: 480
VWidth: 0
Flags: HW
HStem: 0 127<43 447 43 447> 574 126<245 324>
VStem: 330 123<465 497 444 522>
LayerCount: 4
Back
Fore
SplineSet
43 0 m 257
 43 127 l 257
 447 127 l 257
 447 0 l 257
 43 0 l 257
24 520 m 257
 33 604 95 687 190 699 c 257
 190 573 l 258
 189 573 142 557 142 495 c 257
 24 520 l 257
45 179 m 257
 105 302 205 359 235 384 c 256
 278 421 330 433 330 497 c 256
 330 547 300 572 245 574 c 257
 245 700 l 257
 403 700 452 579 453 497 c 256
 453 391 404 359 342 315 c 256
 271 265 231 232 197 179 c 257
 45 179 l 257
EndSplineSet
PickledDataWithLists: "(dp1
S'com.fontlab.hintData'
p2
(dp3
S'vhints'
p4
(lp5
(dp6
S'position'
p7
I330
sS'width'
p8
I123
sasS'hhints'
p9
(lp10
(dp11
g7
I0
sg8
I127
sa(dp12
g7
I574
sg8
I126
sass."
Layer: 2
Layer: 3
EndChar

StartChar: uni0033
Encoding: 65556 51 46
GlifName: uni0033
Width: 484
VWidth: 0
Flags: HW
HStem: 0 122<255 257 255 255.5> 286 124<188 247> 574 124<156 256 156 252.5>
VStem: 327 131<181 231>
LayerCount: 4
Back
Fore
SplineSet
26 600 m 257
 59 656 117 698 195 698 c 257
 195 572 l 257
 166 570 146 558 132 537 c 257
 26 600 l 257
188 286 m 257
 188 410 l 257
 308 410 327 439 327 499 c 256
 327 553 286 574 256 574 c 256
 255 574 253 574 252 574 c 257
 252 698 l 257
 386 695 453 582 453 508 c 256
 453 411 422 366 391 350 c 257
 419 331 458 284 458 199 c 256
 458 75 337 0 257 0 c 256
 256 0 256 0 255 0 c 257
 254 122 l 257
 297 122 327 161 327 201 c 256
 327 261 306 286 188 286 c 257
26 97 m 257
 132 160 l 257
 146 139 166 127 195 125 c 257
 195 -1 l 257
 117 -1 60 30 26 97 c 257
EndSplineSet
PickledDataWithLists: "(dp1
S'com.fontlab.hintData'
p2
(dp3
S'vhints'
p4
(lp5
(dp6
S'position'
p7
I327
sS'width'
p8
I131
sasS'hhints'
p9
(lp10
(dp11
g7
I0
sg8
I122
sa(dp12
g7
I286
sg8
I124
sa(dp13
g7
I574
sg8
I124
sass."
Layer: 2
Layer: 3
EndChar

StartChar: uni0034
Encoding: 65557 52 47
GlifName: uni0034
Width: 483
VWidth: 0
Flags: HW
HStem: 0 21<273 403 273 273> 0 21<273 403 273 273> 145 127<170 216 26 26 403 457> 681 20<273 403 403 403>
VStem: 26 190<145 272 145 272> 273 184<145 272 145 701> 273 130<0 145 0 272 272 701>
LayerCount: 4
Back
Fore
SplineSet
26 145 m 257
 26 272 l 257
 216 598 l 257
 216 351 l 257
 170 272 l 257
 216 272 l 257x38
 216 145 l 257
 26 145 l 257
273 0 m 257xba
 273 701 l 257xbc
 403 701 l 257
 403 272 l 257xba
 457 272 l 257xbc
 457 145 l 257xbc
 403 145 l 257
 403 0 l 257
 273 0 l 257xba
EndSplineSet
PickledDataWithLists: "(dp1
S'com.fontlab.hintData'
p2
(dp3
S'vhints'
p4
(lp5
(dp6
S'position'
p7
I26
sS'width'
p8
I190
sa(dp9
g7
I273
sg8
I184
sa(dp10
g7
I273
sg8
I130
sasS'hhints'
p11
(lp12
(dp13
g7
I0
sg8
I21
sa(dp14
g7
I0
sg8
I21
sa(dp15
g7
I145
sg8
I127
sa(dp16
g7
I681
sg8
I20
sass."
Layer: 2
Layer: 3
EndChar

StartChar: uni0035
Encoding: 65558 53 48
GlifName: uni0035
Width: 492
VWidth: 0
Flags: HW
HStem: 0 126<162 204 204 258> 324 123<195.5 204 195.5 258> 573 127<171 171>
VStem: 338 128<199 252>
LayerCount: 4
Back
Fore
SplineSet
26 354 m 257
 55 700 l 257
 409 700 l 257
 409 574 l 257
 171 573 l 257
 159 442 l 257
 172 445 187 447 204 447 c 257
 204 324 l 257
 170 321 148 301 136 286 c 257
 26 354 l 257
258 0 m 257
 258 126 l 257
 307 135 338 174 338 224 c 256
 338 280 296 319 258 324 c 257
 258 447 l 257
 401 444 466 333 466 223 c 256
 466 82 363 2 258 0 c 257
28 107 m 257
 131 175 l 257
 147 144 177 131 204 126 c 257
 204 0 l 257
 120 0 60 46 28 107 c 257
EndSplineSet
PickledDataWithLists: "(dp1
S'com.fontlab.hintData'
p2
(dp3
S'vhints'
p4
(lp5
(dp6
S'position'
p7
I338
sS'width'
p8
I128
sasS'hhints'
p9
(lp10
(dp11
g7
I0
sg8
I126
sa(dp12
g7
I324
sg8
I123
sa(dp13
g7
I573
sg8
I127
sass."
Layer: 2
Layer: 3
EndChar

StartChar: uni0036
Encoding: 65559 54 49
GlifName: uni0036
Width: 497
VWidth: 0
Flags: HW
HStem: -1 125<140.5 228 228 282> 307 118<227 228 227 227> 573 125<282 293 282 284>
VStem: 26 124<399 416.5> 356 115<183.5 249>
LayerCount: 4
Back
Fore
SplineSet
282 -1 m 257
 282 123 l 257
 317 127 356 159 356 208 c 256
 356 290 302 304 283 309 c 257
 282 425 l 257
 406 425 471 327 471 209 c 256
 471 84 383 0 282 -1 c 257
282 573 m 257
 282 698 l 257
 360 698 415 659 450 600 c 257
 355 537 l 257
 339 559 321 573 293 573 c 256
 289 573 286 573 282 573 c 257
26 358 m 256
 26 475 55 675 228 697 c 257
 228 572 l 257
 165 565 150 448 150 399 c 257
 169 414 198 425 228 425 c 257
 228 307 l 257
 227 307 l 256
 207 302 160 286 160 209 c 256
 160 170 190 128 228 124 c 257
 228 -1 l 257
 53 -1 26 186 26 358 c 256
EndSplineSet
PickledDataWithLists: "(dp1
S'com.fontlab.hintData'
p2
(dp3
S'vhints'
p4
(lp5
(dp6
S'position'
p7
I26
sS'width'
p8
I124
sa(dp9
g7
I356
sg8
I115
sasS'hhints'
p10
(lp11
(dp12
g7
I-1
sg8
I125
sa(dp13
g7
I307
sg8
I118
sa(dp14
g7
I573
sg8
I125
sass."
Layer: 2
Layer: 3
EndChar

StartChar: uni0037
Encoding: 65560 55 50
GlifName: uni0037
Width: 435
VWidth: 0
Flags: HW
HStem: 0 21<136 273 136 136> 0 21<136 273 136 136> 510 188<236 371 236 236> 572 126<20 260 20 409>
LayerCount: 4
Back
Fore
SplineSet
20 572 m 257
 20 698 l 257x10
 409 698 l 257x10
 409 573 l 257
 397 562 378 529 371 510 c 257
 236 510 l 257x20
 260 572 l 257
 20 572 l 257
136 0 m 257x80
 153 158 181 295 223 450 c 257
 356 450 l 257
 317 300 289 154 273 0 c 257
 136 0 l 257x80
EndSplineSet
PickledDataWithLists: "(dp1
S'com.fontlab.hintData'
p2
(dp3
S'hhints'
p4
(lp5
(dp6
S'position'
p7
I0
sS'width'
p8
I21
sa(dp9
g7
I0
sg8
I21
sa(dp10
g7
I510
sg8
I188
sa(dp11
g7
I572
sg8
I126
sass."
Layer: 2
Layer: 3
EndChar

StartChar: uni0038
Encoding: 65561 56 51
GlifName: uni0038
Width: 486
VWidth: 0
Flags: HW
HStem: 0 125<190 212 210 212 212 276 212 275> 571 127<179 214 179 272>
VStem: 26 128<183 226 183 234> 329 123<471.5 524> 332 128<183 226>
LayerCount: 4
Back
Fore
SplineSet
272 571 m 257
 272 698 l 257
 342 698 452 619 452 499 c 256xf0
 452 415 409 352 395 349 c 257
 423 330 460 269 460 199 c 256
 460 53 316 0 276 0 c 258
 275 0 l 257
 274 125 l 257xe8
 307 134 332 165 332 201 c 256xe8
 332 251 305 274 273 283 c 257
 273 413 l 257
 309 424 329 446 329 497 c 256
 329 551 290 568 272 571 c 257
26 199 m 256
 26 269 63 330 91 349 c 257
 77 352 33 415 33 499 c 256
 33 619 144 698 214 698 c 257
 214 571 l 257
 196 568 157 551 157 497 c 256
 157 446 177 424 213 413 c 257
 213 283 l 257
 181 274 154 251 154 201 c 256
 154 165 179 134 212 125 c 257
 211 0 l 257
 210 0 l 258
 170 0 26 53 26 199 c 256
EndSplineSet
PickledDataWithLists: "(dp1
S'com.fontlab.hintData'
p2
(dp3
S'vhints'
p4
(lp5
(dp6
S'position'
p7
I26
sS'width'
p8
I128
sa(dp9
g7
I329
sg8
I123
sa(dp10
g7
I332
sg8
I128
sasS'hhints'
p11
(lp12
(dp13
g7
I0
sg8
I125
sa(dp14
g7
I571
sg8
I127
sass."
Layer: 2
Layer: 3
EndChar

StartChar: uni0039
Encoding: 65562 57 52
GlifName: uni0039
Width: 504
VWidth: 0
Flags: HW
HStem: 1 126<179 218> 274 118<156 273 272 273 272 287> 576 124<218 218>
VStem: 26 119<450 515.5 450 547.5> 349 129<282.5 300>
LayerCount: 4
Back
Fore
SplineSet
26 485 m 256
 26 610 117 699 218 700 c 257
 218 576 l 257
 183 572 145 540 145 491 c 256
 145 409 198 395 217 390 c 257
 218 274 l 257
 94 274 26 359 26 485 c 256
43 115 m 257
 142 178 l 257
 164 150 175 132 218 127 c 257
 218 1 l 257
 140 1 76 51 43 115 c 257
272 2 m 257
 272 127 l 257
 344 142 349 248 349 300 c 257
 330 285 302 274 272 274 c 257
 272 392 l 257
 273 392 l 256
 293 397 340 413 340 490 c 256
 340 529 310 571 272 575 c 257
 272 700 l 257
 447 700 478 513 478 341 c 256
 478 224 444 6 272 2 c 257
EndSplineSet
PickledDataWithLists: "(dp1
S'com.fontlab.hintData'
p2
(dp3
S'vhints'
p4
(lp5
(dp6
S'position'
p7
I26
sS'width'
p8
I119
sa(dp9
g7
I349
sg8
I129
sasS'hhints'
p10
(lp11
(dp12
g7
I1
sg8
I126
sa(dp13
g7
I274
sg8
I118
sa(dp14
g7
I576
sg8
I124
sass."
Layer: 2
Layer: 3
EndChar

StartChar: uni003A
Encoding: 65563 58 53
GlifName: uni003A_
Width: 250
VWidth: 0
Flags: W
HStem: -5 151<104 146> 285 151<104 146>
VStem: 50 150<49 91 339 381>
LayerCount: 4
Back
Fore
SplineSet
50 70 m 256
 50 112 83 146 125 146 c 256
 167 146 200 112 200 70 c 256
 200 28 167 -5 125 -5 c 256
 83 -5 50 28 50 70 c 256
50 360 m 256
 50 402 83 436 125 436 c 256
 167 436 200 402 200 360 c 256
 200 318 167 285 125 285 c 256
 83 285 50 318 50 360 c 256
EndSplineSet
Validated: 1
PickledDataWithLists: "(dp1
S'com.fontlab.hintData'
p2
(dp3
S'vhints'
p4
(lp5
(dp6
S'position'
p7
I50
sS'width'
p8
I150
sasS'hhints'
p9
(lp10
(dp11
g7
I-5
sg8
I151
sa(dp12
g7
I285
sg8
I151
sass."
Layer: 2
Layer: 3
EndChar

StartChar: uni003B
Encoding: 65564 59 54
GlifName: uni003B_
Width: 291
VWidth: 0
Flags: HW
HStem: -23 152<87 177 50 214> 285 151<145 187>
VStem: 91 150<339 381>
LayerCount: 4
Back
Fore
SplineSet
91 360 m 256
 91 402 124 436 166 436 c 256
 208 436 241 402 241 360 c 256
 241 318 208 285 166 285 c 256
 124 285 91 318 91 360 c 256
50 -23 m 257
 87 129 l 257
 214 129 l 257
 177 -23 l 257
 50 -23 l 257
EndSplineSet
PickledDataWithLists: "(dp1
S'com.fontlab.hintData'
p2
(dp3
S'vhints'
p4
(lp5
(dp6
S'position'
p7
I91
sS'width'
p8
I150
sasS'hhints'
p9
(lp10
(dp11
g7
I-23
sg8
I152
sa(dp12
g7
I285
sg8
I151
sass."
Layer: 2
Layer: 3
EndChar

StartChar: uni003C
Encoding: 65565 60 55
GlifName: uni003C_
Width: 414
VWidth: 0
Flags: HW
LayerCount: 4
Back
Fore
SplineSet
30 258 m 257
 30 322 l 257
 384 500 l 257
 384 370 l 257
 208 292 l 257
 384 206 l 257
 384 79 l 257
 30 258 l 257
EndSplineSet
Layer: 2
Layer: 3
EndChar

StartChar: uni003D
Encoding: 65566 61 56
GlifName: uni003D_
Width: 418
VWidth: 0
Flags: HW
HStem: 131 127<50 368 50 368> 325 127<50 368 50 368>
VStem: 50 318<131 258 131 258 325 452 131 452>
LayerCount: 4
Back
Fore
SplineSet
50 131 m 257
 50 258 l 257
 368 258 l 257
 368 131 l 257
 50 131 l 257
50 325 m 257
 50 452 l 257
 368 452 l 257
 368 325 l 257
 50 325 l 257
EndSplineSet
PickledDataWithLists: "(dp1
S'com.fontlab.hintData'
p2
(dp3
S'vhints'
p4
(lp5
(dp6
S'position'
p7
I50
sS'width'
p8
I318
sasS'hhints'
p9
(lp10
(dp11
g7
I131
sg8
I127
sa(dp12
g7
I325
sg8
I127
sass."
Layer: 2
Layer: 3
EndChar

StartChar: uni003E
Encoding: 65567 62 57
GlifName: uni003E_
Width: 414
VWidth: 0
Flags: HW
LayerCount: 4
Back
Fore
SplineSet
30 79 m 257
 30 206 l 257
 206 292 l 257
 30 370 l 257
 30 500 l 257
 384 322 l 257
 384 258 l 257
 30 79 l 257
EndSplineSet
Layer: 2
Layer: 3
EndChar

StartChar: uni003F
Encoding: 65568 63 58
GlifName: uni003F_
Width: 460
VWidth: 0
Flags: HW
HStem: -22 151<176 218> 166 220<134 263 134 134> 575 128<188.5 233.5>
VStem: 122 151<32 74> 134 129<166 276 166 386 166 386> 302 128<446.5 491 393 519>
LayerCount: 4
Back
Fore
SplineSet
122 53 m 256xf4
 122 95 155 129 197 129 c 256
 239 129 273 95 273 53 c 256
 273 11 239 -22 197 -22 c 256
 155 -22 122 11 122 53 c 256xf4
30 611 m 257
 60 649 110 703 218 703 c 256
 346 703 426 620 430 491 c 257
 430 295 263 276 263 276 c 257
 263 166 l 257
 134 166 l 257
 134 386 l 257xec
 251 388 302 400 302 493 c 256
 302 545 257 575 210 575 c 256
 167 575 133 554 112 526 c 257
 30 611 l 257
EndSplineSet
PickledDataWithLists: "(dp1
S'com.fontlab.hintData'
p2
(dp3
S'vhints'
p4
(lp5
(dp6
S'position'
p7
I122
sS'width'
p8
I151
sa(dp9
g7
I134
sg8
I129
sa(dp10
g7
I302
sg8
I128
sasS'hhints'
p11
(lp12
(dp13
g7
I-22
sg8
I151
sa(dp14
g7
I166
sg8
I220
sa(dp15
g7
I575
sg8
I128
sass."
Layer: 2
Layer: 3
EndChar

StartChar: uni0040
Encoding: 65569 64 59
GlifName: uni0040
Width: 803
VWidth: 0
InSpiro: 1
Flags: HW
HStem: -87 109<300.084 551.032> 116 403<326.449 430.329> 116 124<513 612.557> 602 113<332.61 547.83>
VStem: 16 120<185.906 417.659> 205 340<240.742 366.985> 666 120<304.625 493.205>
LayerCount: 4
Back
Fore
SplineSet
16 309 m 256
 16 533 191 715 448 715 c 256
 610 715 786 612 786 412 c 256
 786 201 654 116 532 116 c 256xbe
 494 116 463 137 453 161 c 257
 439 139 407 116 344 116 c 256
 268 116 205 193 205 289 c 256
 205 444 327 519 409 519 c 256xde
 473 519 495 493 510 477 c 257
 518 504 l 257
 602 504 l 257
 552 308 l 258
 549 297 545 280 545 266 c 256
 545 249 549 240 563 240 c 256
 598 240 666 280 666 412 c 256
 666 530 549 602 451 602 c 256
 284 602 136 481 136 312 c 256
 136 122 260 22 414 22 c 256
 501 22 587 47 667 103 c 257xbe
 717 12 l 257
 658 -45 538 -87 423 -87 c 256
 195 -87 16 47 16 309 c 256
EndSplineSet
PickledDataWithLists: "(dp1
S'com.fontlab.hintData'
p2
(dp3
S'vhints'
p4
(lp5
(dp6
S'position'
p7
I16
sS'width'
p8
I120
sa(dp9
g7
I205
sg8
I340
sa(dp10
g7
I666
sg8
I120
sasS'hhints'
p11
(lp12
(dp13
g7
I-87
sg8
I109
sa(dp14
g7
I116
sg8
I403
sa(dp15
g7
I116
sg8
I124
sa(dp16
g7
I602
sg8
I113
sass."
Layer: 2
Layer: 3
EndChar

StartChar: uni0041
Encoding: 65570 65 60
GlifName: uni0041
Width: 516
VWidth: 0
Flags: HW
HStem: 0 21<26 164 26 26 353 353 353 490> 0 21<26 164 26 26 353 353 353 490> 679 20<200 339 339 339> 679 20<200 339 339 339>
VStem: 155 15<582 582>
LayerCount: 4
Back
Fore
SplineSet
26 0 m 257
 155 582 l 257x88
 170 582 l 257
 230 302 l 257
 164 0 l 257
 26 0 l 257
200 699 m 257xa8
 339 699 l 257
 490 0 l 257
 353 0 l 257
 333 85 l 257
 239 85 l 257
 269 223 l 257
 305 223 l 257
 200 699 l 257xa8
EndSplineSet
PickledDataWithLists: "(dp1
S'com.fontlab.hintData'
p2
(dp3
S'vhints'
p4
(lp5
(dp6
S'position'
p7
I155
sS'width'
p8
I15
sasS'hhints'
p9
(lp10
(dp11
g7
I0
sg8
I21
sa(dp12
g7
I0
sg8
I21
sa(dp13
g7
I679
sg8
I20
sa(dp14
g7
I679
sg8
I20
sass."
Layer: 2
Layer: 3
EndChar

StartChar: uni0042
Encoding: 65571 66 61
GlifName: uni0042
Width: 484
VWidth: 0
Flags: HW
HStem: 0 122<26 264.5 221 264.5> 289 122<221 251 221 266> 577 123<26 221>
VStem: 26 141<0 700 0 700> 324 134<197 201 197 216>
LayerCount: 4
Back
Fore
SplineSet
221 0 m 261
 221 122 l 261
 308 122 324 179 324 205 c 260
 324 227 311 289 221 289 c 261
 221 411 l 261
 281 411 322 446 322 497 c 260
 322 547 280 576 221 577 c 261
 221 700 l 261
 229 701 237 701 245 701 c 260
 397 701 454 574 454 514 c 262
 454 513 l 262
 453 421 420 378 385 352 c 261
 423 322 458 285 458 201 c 260
 458 199 458 198 458 197 c 260
 457 86 366 -2 249 -2 c 260
 240 -2 230 -1 221 0 c 261
26 0 m 261
 26 700 l 261
 167 700 l 261
 167 0 l 261
 26 0 l 261
EndSplineSet
PickledDataWithLists: "(dp1
S'com.fontlab.hintData'
p2
(dp3
S'vhints'
p4
(lp5
(dp6
S'position'
p7
I26
sS'width'
p8
I141
sa(dp9
g7
I324
sg8
I134
sasS'hhints'
p10
(lp11
(dp12
g7
I0
sg8
I122
sa(dp13
g7
I289
sg8
I122
sa(dp14
g7
I577
sg8
I123
sass."
Layer: 2
Layer: 3
EndChar

StartChar: uni0043
Encoding: 65572 67 62
GlifName: uni0043
Width: 494
VWidth: 0
Flags: HW
HStem: 685 20<157.5 229 283 329>
VStem: 32 141<181 518> 330 138<129 215 129 215>
LayerCount: 4
Back
Fore
SplineSet
283 564 m 261
 283 705 l 257
 375 705 468 612 468 516 c 257
 330 480 l 257
 330 495 l 258
 330 509 330 520 325 532 c 256
 315 555 283 564 283 564 c 261
283 -5 m 257
 283 136 l 257
 283 136 315 143 325 166 c 256
 330 178 330 189 330 203 c 258
 330 215 l 257
 468 182 l 257
 468 76 375 -5 283 -5 c 257
32 181 m 257
 32 518 l 257
 32 578 86 705 229 705 c 257
 229 564 l 261
 183 563 173 523 173 518 c 257
 173 181 l 257
 173 176 183 136 229 136 c 257
 229 -5 l 257
 86 -5 32 121 32 181 c 257
EndSplineSet
PickledDataWithLists: "(dp1
S'com.fontlab.hintData'
p2
(dp3
S'vhints'
p4
(lp5
(dp6
S'position'
p7
I32
sS'width'
p8
I141
sa(dp9
g7
I330
sg8
I138
sasS'hhints'
p10
(lp11
(dp12
g7
I685
sg8
I20
sass."
Layer: 2
Layer: 3
EndChar

StartChar: uni0044
Encoding: 65573 68 63
GlifName: uni0044
Width: 452
VWidth: 0
Flags: W
HStem: 0 21<32 32 32 173 227 257> 0 21<32 32 32 173 227 257> 680 20<32 173 173 173 227 298.5>
VStem: 32 141<0 700 0 700> 283 141<197 503>
LayerCount: 4
Back
Fore
SplineSet
227 0 m 257xb8
 227 141 l 257
 233 141 282 149 283 197 c 258
 283 503 l 261
 283 508 275 558 227 559 c 261
 227 700 l 261
 370 700 424 566 424 503 c 261
 424 197 l 257
 424 50 287 0 227 0 c 257xb8
32 0 m 257
 32 700 l 257
 173 700 l 257
 173 0 l 257
 32 0 l 257
EndSplineSet
Validated: 1
PickledDataWithLists: "(dp1
S'com.fontlab.hintData'
p2
(dp3
S'vhints'
p4
(lp5
(dp6
S'position'
p7
I32
sS'width'
p8
I141
sa(dp9
g7
I283
sg8
I141
sasS'hhints'
p10
(lp11
(dp12
g7
I0
sg8
I21
sa(dp13
g7
I0
sg8
I21
sa(dp14
g7
I680
sg8
I20
sass."
Layer: 2
Layer: 3
EndChar

StartChar: uni0045
Encoding: 65574 69 64
GlifName: uni0045
Width: 422
VWidth: 0
Flags: HW
HStem: 0 141<173 396 173 396> 277 141<173 302 173 302> 560 140<173 396 173 173>
VStem: 32 364<0 141 560 700> 32 141<141 277 418 560>
LayerCount: 4
Back
Fore
SplineSet
32 0 m 257
 32 700 l 257
 396 700 l 257
 396 560 l 257xf0
 173 560 l 257
 173 418 l 257
 302 418 l 257
 302 277 l 257
 173 277 l 257
 173 141 l 257xe8
 396 141 l 257xf0
 396 0 l 257
 32 0 l 257
EndSplineSet
PickledDataWithLists: "(dp1
S'com.fontlab.hintData'
p2
(dp3
S'vhints'
p4
(lp5
(dp6
S'position'
p7
I32
sS'width'
p8
I364
sa(dp9
g7
I32
sg8
I141
sasS'hhints'
p10
(lp11
(dp12
g7
I0
sg8
I141
sa(dp13
g7
I277
sg8
I141
sa(dp14
g7
I560
sg8
I140
sass."
Layer: 2
Layer: 3
EndChar

StartChar: uni0046
Encoding: 65575 70 65
GlifName: uni0046
Width: 422
VWidth: 0
Flags: HW
HStem: 1 21<32 173 32 32> 1 21<32 173 32 32> 277 141<173 302 173 302> 560 140<173 396 173 173>
VStem: 32 141<1 277 418 560>
LayerCount: 4
Back
Fore
SplineSet
32 1 m 257
 32 700 l 257
 396 700 l 257
 396 560 l 257
 173 560 l 257
 173 418 l 257
 302 418 l 257xb8
 302 277 l 257
 173 277 l 257
 173 1 l 257
 32 1 l 257
EndSplineSet
PickledDataWithLists: "(dp1
S'com.fontlab.hintData'
p2
(dp3
S'vhints'
p4
(lp5
(dp6
S'position'
p7
I32
sS'width'
p8
I141
sasS'hhints'
p9
(lp10
(dp11
g7
I1
sg8
I21
sa(dp12
g7
I1
sg8
I21
sa(dp13
g7
I277
sg8
I141
sa(dp14
g7
I560
sg8
I140
sass."
Layer: 2
Layer: 3
EndChar

StartChar: uni0047
Encoding: 65576 71 66
GlifName: uni0047
Width: 493
VWidth: 0
Flags: HW
HStem: -5 141<219.5 222 219.5 222 219.5 276> 685 20<156 222 276 322.5>
VStem: 26 141<192 508 192 524 192 524> 276 185<135.5 136 136 136 223 353 135.5 353> 319 142<190 223 223 223>
LayerCount: 4
Back
Fore
SplineSet
276 564 m 257xf0
 276 705 l 257xf0
 369 705 461 612 461 516 c 257xe8
 323 465 l 257
 323 495 l 258
 323 509 323 520 318 532 c 256
 308 555 276 564 276 564 c 257xf0
276 -5 m 257
 276 136 l 257xf0
 282 136 319 155 319 190 c 258
 319 223 l 257xe8
 276 223 l 257
 276 353 l 257
 461 353 l 257
 461 176 l 258
 461 95 358 -4 276 -5 c 257
26 192 m 257
 26 524 l 257
 34 589 90 705 222 705 c 257
 222 564 l 257
 176 563 167 513 167 508 c 257
 167 192 l 258
 168 146 217 136 222 136 c 257
 222 -5 l 257
 162 -5 26 48 26 192 c 257
EndSplineSet
PickledDataWithLists: "(dp1
S'com.fontlab.hintData'
p2
(dp3
S'vhints'
p4
(lp5
(dp6
S'position'
p7
I26
sS'width'
p8
I141
sa(dp9
g7
I276
sg8
I185
sa(dp10
g7
I319
sg8
I142
sasS'hhints'
p11
(lp12
(dp13
g7
I-5
sg8
I141
sa(dp14
g7
I685
sg8
I20
sass."
Layer: 2
Layer: 3
EndChar

StartChar: uni0048
Encoding: 65577 72 67
GlifName: uni0048
Width: 458
VWidth: 0
Flags: HW
HStem: 0 21<32 173 32 32 285 285 285 426> 0 21<32 173 32 32 285 285 285 426> 680 20<32 173 173 173 285 426 426 426>
VStem: 32 170<283 421 283 700> 32 141<0 283 0 421 421 700> 256 170<283 421 421 421> 285 141<0 283 283 283 421 700 0 700>
LayerCount: 4
Back
Fore
SplineSet
32 0 m 257xa8
 32 700 l 257xb0
 173 700 l 257
 173 421 l 257xa8
 202 421 l 257xb0
 202 283 l 257xb0
 173 283 l 257
 173 0 l 257
 32 0 l 257xa8
256 283 m 257
 256 421 l 257xa4
 285 421 l 257
 285 700 l 257xa2
 426 700 l 257
 426 0 l 257
 285 0 l 257
 285 283 l 257xa2
 256 283 l 257
EndSplineSet
PickledDataWithLists: "(dp1
S'com.fontlab.hintData'
p2
(dp3
S'vhints'
p4
(lp5
(dp6
S'position'
p7
I32
sS'width'
p8
I170
sa(dp9
g7
I32
sg8
I141
sa(dp10
g7
I256
sg8
I170
sa(dp11
g7
I285
sg8
I141
sasS'hhints'
p12
(lp13
(dp14
g7
I0
sg8
I21
sa(dp15
g7
I0
sg8
I21
sa(dp16
g7
I680
sg8
I20
sass."
Layer: 2
Layer: 3
EndChar

StartChar: uni0049
Encoding: 65578 73 68
GlifName: uni0049
Width: 209
VWidth: 0
Flags: HW
HStem: 0 21<34 175 34 34> 0 21<34 175 34 34> 680 20<34 175 175 175>
VStem: 34 141<0 700 0 700>
LayerCount: 4
Back
Fore
SplineSet
34 0 m 257
 34 700 l 257xb0
 175 700 l 257
 175 0 l 257
 34 0 l 257
EndSplineSet
PickledDataWithLists: "(dp1
S'com.fontlab.hintData'
p2
(dp3
S'vhints'
p4
(lp5
(dp6
S'position'
p7
I34
sS'width'
p8
I141
sasS'hhints'
p9
(lp10
(dp11
g7
I0
sg8
I21
sa(dp12
g7
I0
sg8
I21
sa(dp13
g7
I680
sg8
I20
sass."
Layer: 2
Layer: 3
EndChar

StartChar: uni004A
Encoding: 65579 74 69
GlifName: uni004A_
Width: 495
VWidth: 0
Flags: HW
HStem: -5 142<210.5 213 210.5 213 267 269.5 210.5 297> 680 20<323 463 463 463>
VStem: 26 141<193 242 193 242> 323 140<193 700>
LayerCount: 4
Back
Fore
SplineSet
26 193 m 257
 26 242 l 257
 167 242 l 257
 167 193 l 258
 168 147 208 137 213 137 c 257
 213 -5 l 257
 153 -5 26 54 26 193 c 257
267 -5 m 257
 267 137 l 257
 272 137 322 147 323 193 c 258
 323 700 l 257
 463 700 l 257
 463 193 l 257
 463 49 327 -5 267 -5 c 257
EndSplineSet
PickledDataWithLists: "(dp1
S'com.fontlab.hintData'
p2
(dp3
S'vhints'
p4
(lp5
(dp6
S'position'
p7
I26
sS'width'
p8
I141
sa(dp9
g7
I323
sg8
I140
sasS'hhints'
p10
(lp11
(dp12
g7
I-5
sg8
I142
sa(dp13
g7
I680
sg8
I20
sass."
Layer: 2
Layer: 3
EndChar

StartChar: uni004B
Encoding: 65580 75 70
GlifName: uni004B_
Width: 475
VWidth: 0
Flags: HW
HStem: 0 21<26 167 26 26 319 457 319 319> 0 21<26 167 26 26 319 457 319 319> 680 20<26 167 167 167 314 453 453 453>
VStem: 26 141<0 700 0 700>
LayerCount: 4
Back
Fore
SplineSet
207 341 m 257
 314 700 l 257xb0
 453 700 l 257
 347 341 l 257
 457 0 l 257
 319 0 l 257
 207 341 l 257
26 0 m 257
 26 700 l 257
 167 700 l 257
 167 0 l 257
 26 0 l 257
EndSplineSet
PickledDataWithLists: "(dp1
S'com.fontlab.hintData'
p2
(dp3
S'vhints'
p4
(lp5
(dp6
S'position'
p7
I26
sS'width'
p8
I141
sasS'hhints'
p9
(lp10
(dp11
g7
I0
sg8
I21
sa(dp12
g7
I0
sg8
I21
sa(dp13
g7
I680
sg8
I20
sass."
Layer: 2
Layer: 3
EndChar

StartChar: uni004C
Encoding: 65581 76 71
GlifName: uni004C_
Width: 428
VWidth: 0
Flags: HW
HStem: 0 139<167 402 167 402> 680 20<26 167 167 167>
VStem: 26 141<139 700 139 700 139 700>
LayerCount: 4
Back
Fore
SplineSet
26 0 m 257
 26 700 l 257
 167 700 l 257
 167 139 l 257
 402 139 l 257
 402 0 l 257
 26 0 l 257
EndSplineSet
PickledDataWithLists: "(dp1
S'com.fontlab.hintData'
p2
(dp3
S'vhints'
p4
(lp5
(dp6
S'position'
p7
I26
sS'width'
p8
I141
sasS'hhints'
p9
(lp10
(dp11
g7
I0
sg8
I139
sa(dp12
g7
I680
sg8
I20
sass."
Layer: 2
Layer: 3
EndChar

StartChar: uni004D
Encoding: 65582 77 72
GlifName: uni004D_
Width: 676
VWidth: 0
Flags: HW
HStem: 0 21<32 32 32 173 285 285 285 382 503 503 503 644> 0 21<32 32 32 173 285 285 285 382 503 503 503 644> 680 20<32 142 142 142 503 644 644 644>
VStem: 32 141<0 127 0 444> 503 141<0 700 0 700>
LayerCount: 4
Back
Fore
SplineSet
32 0 m 257xb8
 32 444 l 257
 41 444 l 257
 173 127 l 257
 173 0 l 257
 32 0 l 257xb8
32 608 m 257
 32 700 l 257
 142 700 l 257
 333 237 l 257
 439 476 l 257
 449 476 l 257
 449 151 l 257
 382 0 l 257
 285 0 l 257
 32 608 l 257
503 0 m 257
 503 700 l 257
 644 700 l 257
 644 0 l 257
 503 0 l 257
EndSplineSet
PickledDataWithLists: "(dp1
S'com.fontlab.hintData'
p2
(dp3
S'vhints'
p4
(lp5
(dp6
S'position'
p7
I32
sS'width'
p8
I141
sa(dp9
g7
I503
sg8
I141
sasS'hhints'
p10
(lp11
(dp12
g7
I0
sg8
I21
sa(dp13
g7
I0
sg8
I21
sa(dp14
g7
I680
sg8
I20
sass."
Layer: 2
Layer: 3
EndChar

StartChar: uni004E
Encoding: 65583 78 73
GlifName: uni004E_
Width: 509
VWidth: 0
Flags: HW
HStem: 0 21<32 32 32 173 410 410 410 477> 0 21<32 32 32 173 410 410 410 477> 680 20<32 147 147 147 336 477 477 477>
VStem: 32 141<0 278 0 492> 336 141<498 700>
LayerCount: 4
Back
Fore
SplineSet
32 0 m 257xb8
 32 492 l 257
 40 492 l 257
 173 278 l 257
 173 0 l 257
 32 0 l 257xb8
336 498 m 257
 336 700 l 257
 477 700 l 257
 477 284 l 257
 469 284 l 257
 336 498 l 257
32 608 m 257
 32 700 l 257
 147 700 l 257
 477 168 l 257
 477 0 l 257
 410 0 l 257
 32 608 l 257
EndSplineSet
PickledDataWithLists: "(dp1
S'com.fontlab.hintData'
p2
(dp3
S'vhints'
p4
(lp5
(dp6
S'position'
p7
I32
sS'width'
p8
I141
sa(dp9
g7
I336
sg8
I141
sasS'hhints'
p10
(lp11
(dp12
g7
I0
sg8
I21
sa(dp13
g7
I0
sg8
I21
sa(dp14
g7
I680
sg8
I20
sass."
Layer: 2
Layer: 3
EndChar

StartChar: uni004F
Encoding: 65584 79 74
GlifName: uni004F_
Width: 508
VWidth: 0
Flags: HW
HStem: -5 142<223.5 226 223.5 226 281 283.5 223.5 311> 564 141<161 227 161 281>
VStem: 30 141<195 508> 337 141<195 508 508 510.5>
LayerCount: 4
Back
Fore
SplineSet
30 195 m 258
 30 524 l 258
 30 584 95 705 227 705 c 257
 227 564 l 257
 181 563 171 513 171 508 c 258
 171 195 l 258
 171 149 221 137 226 137 c 257
 226 -5 l 257
 166 -5 30 51 30 195 c 258
281 -5 m 257
 281 137 l 257
 286 137 336 149 337 195 c 258
 337 508 l 258
 337 513 327 563 281 564 c 257
 281 705 l 257
 412 705 478 583 478 524 c 258
 478 195 l 258
 478 51 341 -5 281 -5 c 257
EndSplineSet
PickledDataWithLists: "(dp1
S'com.fontlab.hintData'
p2
(dp3
S'vhints'
p4
(lp5
(dp6
S'position'
p7
I30
sS'width'
p8
I141
sa(dp9
g7
I337
sg8
I141
sasS'hhints'
p10
(lp11
(dp12
g7
I-5
sg8
I142
sa(dp13
g7
I564
sg8
I141
sass."
Layer: 2
Layer: 3
EndChar

StartChar: uni0050
Encoding: 65585 80 75
GlifName: uni0050
Width: 474
VWidth: 0
Flags: HW
HStem: 0 21<26 167 26 26> 0 21<26 167 26 26> 318 139<221 254 254 257.5 221 299.5> 561 139<221 254 26 221>
VStem: 26 141<0 700 0 700> 305 143<483 533.5>
LayerCount: 4
Back
Fore
SplineSet
221 318 m 257
 221 457 l 257x3c
 254 457 l 258
 261 457 305 458 305 508 c 256
 305 559 263 561 254 561 c 258
 221 561 l 257
 221 700 l 257
 402 700 448 626 448 512 c 256
 448 369 378 318 221 318 c 257
26 0 m 257xbc
 26 700 l 257
 167 700 l 257
 167 0 l 257
 26 0 l 257xbc
EndSplineSet
PickledDataWithLists: "(dp1
S'com.fontlab.hintData'
p2
(dp3
S'vhints'
p4
(lp5
(dp6
S'position'
p7
I26
sS'width'
p8
I141
sa(dp9
g7
I305
sg8
I143
sasS'hhints'
p10
(lp11
(dp12
g7
I0
sg8
I21
sa(dp13
g7
I0
sg8
I21
sa(dp14
g7
I318
sg8
I139
sa(dp15
g7
I561
sg8
I139
sass."
Layer: 2
Layer: 3
EndChar

StartChar: uni0051
Encoding: 65586 81 76
GlifName: uni0051
Width: 500
VWidth: 0
Flags: HW
HStem: 564 141<157 223 157 277>
VStem: 26 141<195 508> 333 141<195 508 508 510.5>
LayerCount: 4
Back
Fore
SplineSet
26 195 m 258
 26 524 l 258
 26 584 91 705 223 705 c 257
 223 564 l 257
 177 563 167 513 167 508 c 258
 167 195 l 258
 167 149 217 137 222 137 c 257
 222 -5 l 257
 162 -5 26 51 26 195 c 258
277 -5 m 257
 277 137 l 257
 282 137 332 149 333 195 c 258
 333 508 l 258
 333 513 323 563 277 564 c 257
 277 705 l 257
 408 705 474 583 474 524 c 258
 474 195 l 258
 474 127 444 79 405 47 c 257
 460 -32 l 257
 348 -107 l 257
 277 -5 l 257
EndSplineSet
PickledDataWithLists: "(dp1
S'com.fontlab.hintData'
p2
(dp3
S'vhints'
p4
(lp5
(dp6
S'position'
p7
I26
sS'width'
p8
I141
sa(dp9
g7
I333
sg8
I141
sasS'hhints'
p10
(lp11
(dp12
g7
I564
sg8
I141
sass."
Layer: 2
Layer: 3
EndChar

StartChar: uni0052
Encoding: 65587 82 77
GlifName: uni0052
Width: 495
VWidth: 0
Flags: HW
HStem: 0 21<32 173 32 32 343 469 343 343> 0 21<32 173 32 32 343 469 343 343> 286 125<227 240> 567 133<227 240 32 227>
VStem: 32 141<0 700 0 700> 326 127<467.5 512>
LayerCount: 4
Back
Fore
SplineSet
227 286 m 257
 227 411 l 257xbc
 240 411 l 258
 300 411 326 447 326 488 c 256
 326 536 289 567 240 567 c 258
 227 567 l 257
 227 700 l 257
 377 700 453 616 453 496 c 256
 453 428 432 381 386 352 c 257
 422 325 448 266 452 217 c 258
 469 0 l 257
 343 0 l 257
 328 178 l 258
 321 257 298 285 227 286 c 257
32 0 m 257
 32 700 l 257
 173 700 l 257
 173 0 l 257
 32 0 l 257
EndSplineSet
PickledDataWithLists: "(dp1
S'com.fontlab.hintData'
p2
(dp3
S'vhints'
p4
(lp5
(dp6
S'position'
p7
I32
sS'width'
p8
I141
sa(dp9
g7
I326
sg8
I127
sasS'hhints'
p10
(lp11
(dp12
g7
I0
sg8
I21
sa(dp13
g7
I0
sg8
I21
sa(dp14
g7
I286
sg8
I125
sa(dp15
g7
I567
sg8
I133
sass."
Layer: 2
Layer: 3
EndChar

StartChar: uni0053
Encoding: 65588 83 78
GlifName: uni0053
Width: 497
VWidth: 0
Flags: HW
HStem: 680 20<216 216 271 324>
VStem: 41 134<479.5 525 479.5 577.5> 333 141<176.5 240.5>
LayerCount: 4
Back
Fore
SplineSet
41 508 m 256
 41 647 165 699 216 700 c 257
 216 568 l 257
 195 562 175 537 175 513 c 256
 175 446 279 434 346 394 c 256
 407 358 474 311 474 209 c 256
 474 96 379 -3 271 -3 c 257
 271 127 l 257
 295 130 333 150 333 203 c 256
 333 278 224 294 164 323 c 256
 93 357 41 403 41 508 c 256
271 568 m 257
 271 700 l 257
 377 700 440 589 446 553 c 257
 316 510 l 257
 311 557 271 568 271 568 c 257
33 158 m 257
 160 203 l 257
 162 147 216 127 216 127 c 257
 216 -3 l 257
 107 -3 34 103 33 158 c 257
EndSplineSet
PickledDataWithLists: "(dp1
S'com.fontlab.hintData'
p2
(dp3
S'vhints'
p4
(lp5
(dp6
S'position'
p7
I41
sS'width'
p8
I134
sa(dp9
g7
I333
sg8
I141
sasS'hhints'
p10
(lp11
(dp12
g7
I680
sg8
I20
sass."
Layer: 2
Layer: 3
EndChar

StartChar: uni0054
Encoding: 65589 84 79
GlifName: uni0054
Width: 485
VWidth: 0
Flags: HW
HStem: 0 21<172 313 172 172> 0 21<172 313 172 172> 562 138<26 172 26 459 313 459 313 313>
VStem: 172 141<0 562 0 562>
LayerCount: 4
Back
Fore
SplineSet
26 562 m 257
 26 700 l 257
 459 700 l 257xb0
 459 562 l 257
 313 562 l 257
 313 0 l 257
 172 0 l 257
 172 562 l 257
 26 562 l 257
EndSplineSet
PickledDataWithLists: "(dp1
S'com.fontlab.hintData'
p2
(dp3
S'vhints'
p4
(lp5
(dp6
S'position'
p7
I172
sS'width'
p8
I141
sasS'hhints'
p9
(lp10
(dp11
g7
I0
sg8
I21
sa(dp12
g7
I0
sg8
I21
sa(dp13
g7
I562
sg8
I138
sass."
Layer: 2
Layer: 3
EndChar

StartChar: uni0055
Encoding: 65590 85 80
GlifName: uni0055
Width: 512
VWidth: 0
Flags: HW
HStem: -5 142<226.5 229 226.5 229 283 285.5 226.5 313.5> 680 20<32 173 173 173 339 479 479 479>
VStem: 32 141<193 700 193 700> 339 140<193 700>
LayerCount: 4
Back
Fore
SplineSet
32 193 m 258
 32 700 l 257
 173 700 l 257
 173 193 l 257
 174 147 224 137 229 137 c 257
 229 -5 l 257
 169 -5 32 49 32 193 c 258
283 -5 m 257
 283 137 l 257
 288 137 338 147 339 193 c 257
 339 700 l 257
 479 700 l 257
 479 193 l 258
 479 48 344 -5 283 -5 c 257
EndSplineSet
PickledDataWithLists: "(dp1
S'com.fontlab.hintData'
p2
(dp3
S'vhints'
p4
(lp5
(dp6
S'position'
p7
I32
sS'width'
p8
I141
sa(dp9
g7
I339
sg8
I140
sasS'hhints'
p10
(lp11
(dp12
g7
I-5
sg8
I142
sa(dp13
g7
I680
sg8
I20
sass."
Layer: 2
Layer: 3
EndChar

StartChar: uni0056
Encoding: 65591 86 81
GlifName: uni0056
Width: 508
VWidth: 0
Flags: HW
HStem: 0 21<229 276 229 229> 0 21<229 276 229 229> 680 20<26 170 170 170 338 482 482 482>
LayerCount: 4
Back
Fore
SplineSet
26 700 m 257xa0
 170 700 l 257
 329 158 l 257
 276 0 l 257
 229 0 l 257
 26 700 l 257xa0
283 514 m 257
 338 700 l 257
 482 700 l 257
 442 569 401 430 359 290 c 257
 349 290 l 257
 283 514 l 257
EndSplineSet
PickledDataWithLists: "(dp1
S'com.fontlab.hintData'
p2
(dp3
S'hhints'
p4
(lp5
(dp6
S'position'
p7
I0
sS'width'
p8
I21
sa(dp9
g7
I0
sg8
I21
sa(dp10
g7
I680
sg8
I20
sass."
Layer: 2
Layer: 3
EndChar

StartChar: uni0057
Encoding: 65592 87 82
GlifName: uni0057
Width: 725
VWidth: 0
Flags: HW
HStem: 0 21<229 276 229 229 442 442 442 489> 0 21<229 276 229 229 442 442 442 489> 680 20<26 170 170 170 239 383 383 383 555 699 699 699>
LayerCount: 4
Back
Fore
SplineSet
26 700 m 257xa0
 170 700 l 257
 328 158 l 257
 276 0 l 257
 229 0 l 257
 26 700 l 257xa0
239 700 m 257
 383 700 l 257
 541 158 l 257
 489 0 l 257
 442 0 l 257
 239 700 l 257
500 514 m 257
 555 700 l 257
 699 700 l 257
 576 290 l 257
 566 290 l 257
 500 514 l 257
EndSplineSet
PickledDataWithLists: "(dp1
S'com.fontlab.hintData'
p2
(dp3
S'hhints'
p4
(lp5
(dp6
S'position'
p7
I0
sS'width'
p8
I21
sa(dp9
g7
I0
sg8
I21
sa(dp10
g7
I680
sg8
I20
sass."
Layer: 2
Layer: 3
EndChar

StartChar: uni0058
Encoding: 65593 88 83
GlifName: uni0058
Width: 464
VWidth: 0
Flags: HW
HStem: 0 21<26 171 26 26 293 438 293 293> 0 21<26 171 26 26 293 438 293 293> 680 20<38 175 175 175 289 426 426 426>
LayerCount: 4
Back
Fore
SplineSet
26 0 m 257
 162 361 l 257
 38 700 l 257
 175 700 l 257
 232 548 l 257
 289 700 l 257
 426 700 l 257xa0
 302 361 l 257
 438 0 l 257
 293 0 l 257
 232 167 l 257
 171 0 l 257
 26 0 l 257
EndSplineSet
PickledDataWithLists: "(dp1
S'com.fontlab.hintData'
p2
(dp3
S'hhints'
p4
(lp5
(dp6
S'position'
p7
I0
sS'width'
p8
I21
sa(dp9
g7
I0
sg8
I21
sa(dp10
g7
I680
sg8
I20
sass."
Layer: 2
Layer: 3
EndChar

StartChar: uni0059
Encoding: 65594 89 84
GlifName: uni0059
Width: 479
VWidth: 0
Flags: W
HStem: 0 21<157 303 157 157> 0 21<157 303 157 157> 680 20<26 173 173 173 308 453 453 453>
VStem: 157 146<0 252 252 252>
LayerCount: 4
Back
Fore
SplineSet
26 700 m 257xb0
 173 700 l 257
 303 253 l 257
 303 0 l 257
 157 0 l 257
 157 252 l 257
 26 700 l 257xb0
269 565 m 257
 308 700 l 257
 453 700 l 257
 344 331 l 257
 335 331 l 257
 269 565 l 257
EndSplineSet
Validated: 1
PickledDataWithLists: "(dp1
S'com.fontlab.hintData'
p2
(dp3
S'vhints'
p4
(lp5
(dp6
S'position'
p7
I157
sS'width'
p8
I146
sasS'hhints'
p9
(lp10
(dp11
g7
I0
sg8
I21
sa(dp12
g7
I0
sg8
I21
sa(dp13
g7
I680
sg8
I20
sass."
Layer: 2
Layer: 3
EndChar

StartChar: uni005A
Encoding: 65595 90 85
GlifName: uni005A_
Width: 418
VWidth: 0
Flags: HW
HStem: 0 144<182 392 182 392> 560 140<26 236 26 392>
VStem: 26 366<0 141 141 141 563 700>
LayerCount: 4
Back
Fore
SplineSet
26 0 m 257
 26 141 l 257
 236 560 l 257
 26 560 l 257
 26 700 l 257
 392 700 l 257
 392 563 l 257
 182 144 l 257
 392 144 l 257
 392 0 l 257
 26 0 l 257
EndSplineSet
PickledDataWithLists: "(dp1
S'com.fontlab.hintData'
p2
(dp3
S'vhints'
p4
(lp5
(dp6
S'position'
p7
I26
sS'width'
p8
I366
sasS'hhints'
p9
(lp10
(dp11
g7
I0
sg8
I144
sa(dp12
g7
I560
sg8
I140
sass."
Layer: 2
Layer: 3
EndChar

StartChar: uni005B
Encoding: 65596 91 86
GlifName: uni005B_
Width: 258
VWidth: 0
Flags: HW
HStem: -36 110<180 244 180 244> 629 110<183 244 183 183>
VStem: 50 194<-36 74 629 739> 50 130<74 74 74 739>
LayerCount: 4
Back
Fore
SplineSet
50 -36 m 257
 50 739 l 257
 244 739 l 257xe0
 244 629 l 257xe0
 183 629 l 257
 180 74 l 257xd0
 244 74 l 257
 244 -36 l 257
 50 -36 l 257
EndSplineSet
PickledDataWithLists: "(dp1
S'com.fontlab.hintData'
p2
(dp3
S'vhints'
p4
(lp5
(dp6
S'position'
p7
I50
sS'width'
p8
I194
sa(dp9
g7
I50
sg8
I130
sasS'hhints'
p10
(lp11
(dp12
g7
I-36
sg8
I110
sa(dp13
g7
I629
sg8
I110
sass."
Layer: 2
Layer: 3
EndChar

StartChar: uni005C
Encoding: 65597 92 87
GlifName: uni005C_
Width: 402
VWidth: 0
Flags: HW
VStem: 50 301
LayerCount: 4
Back
Fore
SplineSet
50 716 m 257
 176 716 l 257
 351 -23 l 257
 224 -23 l 257
 50 716 l 257
EndSplineSet
PickledDataWithLists: "(dp1
S'com.fontlab.hintData'
p2
(dp3
S'vhints'
p4
(lp5
(dp6
S'position'
p7
I50
sS'width'
p8
I301
sass."
Layer: 2
Layer: 3
EndChar

StartChar: uni005D
Encoding: 65598 93 88
GlifName: uni005D_
Width: 258
VWidth: 0
Flags: HW
HStem: -36 110<14 78 14 208 14 78> 629 110<14 75 14 208>
VStem: 14 194<-36 74 74 74 629 739 -36 739> 78 130<74 74>
LayerCount: 4
Back
Fore
SplineSet
14 -36 m 257
 14 74 l 257xe0
 78 74 l 257xd0
 75 629 l 257
 14 629 l 257
 14 739 l 257xe0
 208 739 l 257
 208 -36 l 257
 14 -36 l 257
EndSplineSet
PickledDataWithLists: "(dp1
S'com.fontlab.hintData'
p2
(dp3
S'vhints'
p4
(lp5
(dp6
S'position'
p7
I14
sS'width'
p8
I194
sa(dp9
g7
I78
sg8
I130
sasS'hhints'
p10
(lp11
(dp12
g7
I-36
sg8
I110
sa(dp13
g7
I629
sg8
I110
sass."
Layer: 2
Layer: 3
EndChar

StartChar: uni005E
Encoding: 65599 94 89
GlifName: uni005E_
Width: 374
VWidth: 0
Flags: W
HStem: 460 296<27 264 27 264 176 290 176 413>
LayerCount: 4
Back
Fore
SplineSet
27 460 m 257
 176 756 l 257
 264 756 l 257
 413 460 l 257
 290 460 l 257
 219 603 l 257
 149 460 l 257
 27 460 l 257
EndSplineSet
Validated: 1
PickledDataWithLists: "(dp1
S'com.fontlab.hintData'
p2
(dp3
S'hhints'
p4
(lp5
(dp6
S'position'
p7
I460
sS'width'
p8
I296
sass."
Layer: 2
Layer: 3
EndChar

StartChar: uni005F
Encoding: 65600 95 90
GlifName: uni005F_
Width: 510
VWidth: 0
Flags: HW
HStem: -205 107<30 480 30 480>
LayerCount: 4
Back
Fore
SplineSet
30 -98 m 257
 480 -98 l 257
 480 -205 l 257
 30 -205 l 257
 30 -98 l 257
EndSplineSet
PickledDataWithLists: "(dp1
S'com.fontlab.hintData'
p2
(dp3
S'hhints'
p4
(lp5
(dp6
S'position'
p7
I-205
sS'width'
p8
I107
sass."
Layer: 2
Layer: 3
EndChar

StartChar: uni0060
Encoding: 65601 96 91
GlifName: uni0060
Width: 263
VWidth: 0
Flags: HW
HStem: 605 152<122 122 122 176 49 213>
VStem: 49 164<605 757>
LayerCount: 4
Back
Fore
SplineSet
49 757 m 257
 176 757 l 257
 213 605 l 257
 122 605 l 257
 49 757 l 257
EndSplineSet
PickledDataWithLists: "(dp1
S'com.fontlab.hintData'
p2
(dp3
S'vhints'
p4
(lp5
(dp6
S'position'
p7
I49
sS'width'
p8
I164
sasS'hhints'
p9
(lp10
(dp11
g7
I605
sg8
I152
sass."
Layer: 2
Layer: 3
EndChar

StartChar: uni0061
Encoding: 65602 97 92
GlifName: uni0061
Width: 435
VWidth: 0
Flags: HW
HStem: 1 112<163 180 163 180 229 232 163 229>
VStem: 26 101<139 149 149 162 139 167 139 183.5> 268 116<149 227 227 227 351 363 361 375>
LayerCount: 4
Back
Fore
SplineSet
26 121 m 262
 26 167 l 262
 26 200 33 233 75 257 c 260
 118 282 268 311 268 351 c 260
 268 355 268 359 268 363 c 260
 268 387 266 404 231 407 c 260
 228 408 l 261
 228 519 l 261
 231 519 l 262
 334 519 384 424 384 380 c 262
 384 143 l 262
 384 138 386 114 407 114 c 262
 410 114 l 261
 410 1 l 261
 407 1 l 262
 370 1 341 13 321 30 c 261
 298 12 268 1 232 1 c 262
 229 1 l 261
 229 113 l 261
 232 113 l 262
 262 114 268 146 268 149 c 262
 268 227 l 261
 230 205 153 190 139 183 c 260
 133 180 127 173 127 162 c 262
 127 149 l 262
 127 129 137 113 163 113 c 262
 180 113 l 261
 180 1 l 261
 83 1 26 64 26 121 c 262
33 389 m 261
 33 391 l 262
 33 462 110 519 178 519 c 262
 181 519 l 261
 181 407 l 261
 178 407 l 262
 155 405 138 390 138 353 c 262
 138 349 l 261
 33 389 l 261
EndSplineSet
PickledDataWithLists: "(dp1
S'com.fontlab.hintData'
p2
(dp3
S'vhints'
p4
(lp5
(dp6
S'position'
p7
I26
sS'width'
p8
I101
sa(dp9
g7
I268
sg8
I116
sasS'hhints'
p10
(lp11
(dp12
g7
I1
sg8
I112
sass."
Layer: 2
Layer: 3
EndChar

StartChar: uni0062
Encoding: 65603 98 93
GlifName: uni0062
Width: 414
VWidth: 0
Flags: HW
HStem: 0 118<30 236 203 236 203 236> 398 118<203 236 236 237 203 236> 679 20<30 155 155 155> 679 20<30 155 155 155>
VStem: 30 125<0 699 0 699> 270 118<143 373 373 374>
LayerCount: 4
Back
Fore
SplineSet
30 0 m 257xec
 30 699 l 257
 155 699 l 257
 155 0 l 257
 30 0 l 257xec
203 0 m 257
 203 118 l 257
 236 118 l 258
 264 118 270 142 270 143 c 257
 270 373 l 257
 270 375 264 397 237 398 c 258
 203 398 l 257
 203 516 l 257
 236 516 l 258
 338 516 387 422 388 377 c 257
 388 141 l 258
 388 97 339 0 236 0 c 258
 203 0 l 257
EndSplineSet
PickledDataWithLists: "(dp1
S'com.fontlab.hintData'
p2
(dp3
S'vhints'
p4
(lp5
(dp6
S'position'
p7
I30
sS'width'
p8
I125
sa(dp9
g7
I270
sg8
I118
sasS'hhints'
p10
(lp11
(dp12
g7
I0
sg8
I118
sa(dp13
g7
I398
sg8
I118
sa(dp14
g7
I679
sg8
I20
sa(dp15
g7
I679
sg8
I20
sass."
Layer: 2
Layer: 3
EndChar

StartChar: uni0063
Encoding: 65604 99 94
GlifName: uni0063
Width: 418
VWidth: 0
Flags: HW
HStem: -1 117<243 249 243 249 249 250> 496 20<185 191 191 191 233 239 239 275.5>
VStem: 30 119<141 375>
LayerCount: 4
Back
Fore
SplineSet
233 399 m 257
 233 516 l 257
 239 516 l 258
 312 516 381 448 381 376 c 258
 381 372 l 257
 270 330 l 257
 270 360 l 258
 270 370 270 375 266 383 c 257
 261 397 239 399 239 399 c 258
 238 399 237 399 236 399 c 258
 233 399 l 257
243 -1 m 257
 243 116 l 257
 249 116 l 257
 251 116 272 119 277 132 c 257
 281 140 281 146 281 156 c 258
 281 186 l 257
 392 144 l 257
 392 140 l 258
 392 68 323 -1 250 -1 c 258
 243 -1 l 257
30 141 m 258
 30 377 l 257
 31 421 80 516 185 516 c 258
 191 516 l 257
 191 400 l 257
 185 400 l 258
 154 400 149 377 149 375 c 258
 149 141 l 258
 149 139 154 115 194 115 c 256
 199 114 l 257
 199 0 l 257
 194 0 l 258
 79 0 30 97 30 141 c 258
EndSplineSet
PickledDataWithLists: "(dp1
S'com.fontlab.hintData'
p2
(dp3
S'vhints'
p4
(lp5
(dp6
S'position'
p7
I30
sS'width'
p8
I119
sasS'hhints'
p9
(lp10
(dp11
g7
I-1
sg8
I117
sa(dp12
g7
I496
sg8
I20
sass."
Layer: 2
Layer: 3
EndChar

StartChar: uni0064
Encoding: 65605 100 95
GlifName: uni0064
Width: 414
VWidth: 0
Flags: HW
HStem: 0 118<130 210 182 210 182 258 182 384> 398 118<180 210 180 210> 678 20<258 384 384 384>
VStem: 30 118<142 143 143 373> 258 126<0 698>
LayerCount: 4
Back
Fore
SplineSet
30 141 m 258
 30 377 l 257
 31 422 79 516 180 516 c 258
 210 516 l 257
 210 398 l 257
 180 398 l 257
 153 397 148 375 148 373 c 258
 148 143 l 257
 148 141 154 118 182 118 c 258
 210 118 l 257
 210 0 l 257
 182 0 l 258
 78 0 30 97 30 141 c 258
258 0 m 257
 258 698 l 257
 384 698 l 257
 384 0 l 257
 258 0 l 257
EndSplineSet
PickledDataWithLists: "(dp1
S'com.fontlab.hintData'
p2
(dp3
S'vhints'
p4
(lp5
(dp6
S'position'
p7
I30
sS'width'
p8
I118
sa(dp9
g7
I258
sg8
I126
sasS'hhints'
p10
(lp11
(dp12
g7
I0
sg8
I118
sa(dp13
g7
I398
sg8
I118
sa(dp14
g7
I678
sg8
I20
sass."
Layer: 2
Layer: 3
EndChar

StartChar: uni0065
Encoding: 65606 101 96
GlifName: uni0065
Width: 424
VWidth: 0
Flags: HW
HStem: 0 111<131 242 183 242 236 242 236 242> 208 116<148 283 148 397 148 283> 402 114<236 240 182 236>
VStem: 26 122<141 208 324 369> 283 114<324 369 369 378>
LayerCount: 4
Back
Fore
SplineSet
26 141 m 258
 26 377 l 257
 27 422 80 516 182 516 c 258
 187 516 l 257
 187 400 l 257
 184 400 l 258
 155 400 148 380 148 369 c 258
 148 324 l 257
 283 324 l 257
 283 369 l 258
 283 396 260 402 240 402 c 258
 236 402 l 257
 236 516 l 257
 242 516 l 258
 312 516 397 450 397 378 c 258
 397 208 l 257
 148 208 l 257
 148 141 l 258
 148 138 155 109 183 108 c 258
 188 108 l 257
 188 0 l 257
 183 0 l 258
 79 0 26 96 26 141 c 258
236 0 m 257
 236 111 l 257
 242 111 l 258
 273 113 294 132 298 153 c 258
 299 157 l 257
 398 120 l 257
 397 118 l 256
 382 54 312 0 242 0 c 258
 236 0 l 257
EndSplineSet
PickledDataWithLists: "(dp1
S'com.fontlab.hintData'
p2
(dp3
S'vhints'
p4
(lp5
(dp6
S'position'
p7
I26
sS'width'
p8
I122
sa(dp9
g7
I283
sg8
I114
sasS'hhints'
p10
(lp11
(dp12
g7
I0
sg8
I111
sa(dp13
g7
I208
sg8
I116
sa(dp14
g7
I402
sg8
I114
sass."
Layer: 2
Layer: 3
EndChar

StartChar: uni0066
Encoding: 65607 102 97
GlifName: uni0066
Width: 304
VWidth: 0
Flags: HW
HStem: 0 21<89 211 89 89> 0 21<89 211 89 89> 400 116<26 89 26 89> 579 117<244 277 244 244>
VStem: 89 122<0 400 0 400 516 552>
LayerCount: 4
Back
Fore
SplineSet
26 400 m 257
 26 516 l 257
 89 516 l 257
 89 552 l 258xb8
 89 597 140 695 243 696 c 258
 304 696 l 257
 277 579 l 257
 244 579 l 257
 216 578 211 555 211 552 c 258
 211 515 l 257
 277 516 l 257
 277 400 l 257
 211 400 l 257
 211 0 l 257
 89 0 l 257
 89 400 l 257
 26 400 l 257
EndSplineSet
PickledDataWithLists: "(dp1
S'com.fontlab.hintData'
p2
(dp3
S'vhints'
p4
(lp5
(dp6
S'position'
p7
I89
sS'width'
p8
I122
sasS'hhints'
p9
(lp10
(dp11
g7
I0
sg8
I21
sa(dp12
g7
I0
sg8
I21
sa(dp13
g7
I400
sg8
I116
sa(dp14
g7
I579
sg8
I117
sass."
Layer: 2
Layer: 3
EndChar

StartChar: uni0067
Encoding: 65608 103 98
GlifName: uni0067
Width: 415
VWidth: 0
Flags: HW
HStem: -181 112<54 234 54 236 26 234> -1 113<136.5 192 189 192 189 234 189 231> 403 113<173 192 189 192 231 234 189 231>
VStem: 35 115<139 140 140 375> 231 158<-1 109 109 109 403 516> 272 117<-40 3 3 3 139 374 374 375.5 511 516>
LayerCount: 4
Back
Fore
SplineSet
26 -181 m 257
 54 -69 l 257
 234 -69 l 257
 265 -68 272 -43 272 -40 c 258
 272 3 l 257xf4
 260 0 248 -1 234 -1 c 258
 231 -1 l 257
 231 109 l 257xf8
 234 109 l 258
 265 110 272 136 272 139 c 258
 272 374 l 258xf4
 272 377 265 403 234 403 c 258
 231 403 l 257
 231 516 l 257xf8
 234 516 l 258
 247 516 261 514 272 511 c 257
 272 516 l 257xf4
 389 516 l 257xf8
 389 -40 l 258
 389 -83 339 -180 236 -181 c 257xf4
 26 -181 l 257
35 139 m 258
 35 378 l 257
 36 422 85 516 189 516 c 258
 192 516 l 257
 192 403 l 257
 189 403 l 258
 157 403 150 378 150 375 c 258
 150 140 l 258
 150 137 158 112 189 112 c 258
 192 112 l 257
 192 -1 l 257
 189 -1 l 258
 84 -1 35 96 35 139 c 258
EndSplineSet
PickledDataWithLists: "(dp1
S'com.fontlab.hintData'
p2
(dp3
S'vhints'
p4
(lp5
(dp6
S'position'
p7
I35
sS'width'
p8
I115
sa(dp9
g7
I231
sg8
I158
sa(dp10
g7
I272
sg8
I117
sasS'hhints'
p11
(lp12
(dp13
g7
I-181
sg8
I112
sa(dp14
g7
I-1
sg8
I113
sa(dp15
g7
I403
sg8
I113
sass."
Layer: 2
Layer: 3
EndChar

StartChar: uni0068
Encoding: 65609 104 99
GlifName: uni0068
Width: 421
VWidth: 0
Flags: HW
HStem: 1 21<30 145 30 30 281 281 281 395> 1 21<30 145 30 30 281 281 281 395> 399 112<190 193 190 193 190 238 238 241> 678 20<30 144 144 144>
VStem: 30 163<399 511 399 698> 30 115<1 365> 281 114<1 365 365 367>
LayerCount: 4
Back
Fore
SplineSet
30 1 m 257xb6
 30 698 l 257
 144 698 l 257
 144 505 l 257
 147 506 l 258
 159 509 176 511 190 511 c 258
 193 511 l 257
 193 399 l 257xba
 190 399 l 258
 158 396 145 370 145 365 c 258
 145 1 l 257xb6
 30 1 l 257xb6
238 399 m 257
 238 511 l 257
 241 511 l 256
 338 507 395 444 395 374 c 258
 395 1 l 257
 281 1 l 257
 281 365 l 258
 281 369 275 396 241 399 c 258
 238 399 l 257
EndSplineSet
PickledDataWithLists: "(dp1
S'com.fontlab.hintData'
p2
(dp3
S'vhints'
p4
(lp5
(dp6
S'position'
p7
I30
sS'width'
p8
I163
sa(dp9
g7
I30
sg8
I115
sa(dp10
g7
I281
sg8
I114
sasS'hhints'
p11
(lp12
(dp13
g7
I1
sg8
I21
sa(dp14
g7
I1
sg8
I21
sa(dp15
g7
I399
sg8
I112
sa(dp16
g7
I678
sg8
I20
sass."
Layer: 2
Layer: 3
EndChar

StartChar: uni0069
Encoding: 65610 105 100
GlifName: uni0069
Width: 199
VWidth: 0
Flags: HW
HStem: 0 21<39 161 39 39> 0 21<39 161 39 39> 496 20<39 161 161 161> 558 145<79 119>
VStem: 26 146<610.5 650> 39 122<0 516>
LayerCount: 4
Back
Fore
SplineSet
26 630 m 260
 26 670 59 703 99 703 c 260
 139 703 172 670 172 630 c 260x38
 172 591 139 558 99 558 c 260
 59 558 26 591 26 630 c 260
39 0 m 257
 39 516 l 257
 161 516 l 257
 161 0 l 257xb4
 39 0 l 257
EndSplineSet
PickledDataWithLists: "(dp1
S'com.fontlab.hintData'
p2
(dp3
S'vhints'
p4
(lp5
(dp6
S'position'
p7
I26
sS'width'
p8
I146
sa(dp9
g7
I39
sg8
I122
sasS'hhints'
p10
(lp11
(dp12
g7
I0
sg8
I21
sa(dp13
g7
I0
sg8
I21
sa(dp14
g7
I496
sg8
I20
sa(dp15
g7
I558
sg8
I145
sass."
Layer: 2
Layer: 3
EndChar

StartChar: uni006A
Encoding: 65611 106 101
GlifName: uni006A_
Width: 194
VWidth: 0
Flags: HW
HStem: -181 117<-23 4 -23 7 -50 4> 496 20<37 159 159 159> 556 146<77 117>
VStem: 24 146<608 648> 37 122<-38 516>
LayerCount: 4
Back
Fore
SplineSet
-50 -181 m 257
 -23 -64 l 257
 4 -64 l 257
 32 -63 37 -40 37 -38 c 258
 37 516 l 257
 159 516 l 257
 159 -38 l 258xe8
 159 -85 109 -181 7 -181 c 258
 -50 -181 l 257
24 628 m 256
 24 668 57 702 97 702 c 256
 137 702 170 668 170 628 c 256xf0
 170 588 137 556 97 556 c 256
 57 556 24 588 24 628 c 256
EndSplineSet
PickledDataWithLists: "(dp1
S'com.fontlab.hintData'
p2
(dp3
S'vhints'
p4
(lp5
(dp6
S'position'
p7
I24
sS'width'
p8
I146
sa(dp9
g7
I37
sg8
I122
sasS'hhints'
p10
(lp11
(dp12
g7
I-181
sg8
I117
sa(dp13
g7
I496
sg8
I20
sa(dp14
g7
I556
sg8
I146
sass."
Layer: 2
Layer: 3
EndChar

StartChar: uni006B
Encoding: 65612 107 102
GlifName: uni006B_
Width: 452
VWidth: 0
Flags: HW
HStem: 0 21<30 155 30 30 296 428 296 296> 0 21<30 155 30 30 296 428 296 296> 494 20<295 428 428 428> 678 20<30 155 155 155>
VStem: 30 125<0 698>
LayerCount: 4
Back
Fore
SplineSet
30 0 m 257
 30 698 l 257
 155 698 l 257
 155 0 l 257xb8
 30 0 l 257
183 257 m 257
 295 514 l 257
 428 514 l 257
 313 257 l 257
 428 0 l 257
 296 0 l 257
 183 257 l 257
EndSplineSet
PickledDataWithLists: "(dp1
S'com.fontlab.hintData'
p2
(dp3
S'vhints'
p4
(lp5
(dp6
S'position'
p7
I30
sS'width'
p8
I125
sasS'hhints'
p9
(lp10
(dp11
g7
I0
sg8
I21
sa(dp12
g7
I0
sg8
I21
sa(dp13
g7
I494
sg8
I20
sa(dp14
g7
I678
sg8
I20
sass."
Layer: 2
Layer: 3
EndChar

StartChar: uni006C
Encoding: 65613 108 103
GlifName: uni006C_
Width: 184
VWidth: 0
Flags: HW
HStem: 0 21<30 161 30 30> 0 21<30 161 30 30> 678 20<30 161 161 161>
VStem: 30 131<0 698>
LayerCount: 4
Back
Fore
SplineSet
30 0 m 257
 30 698 l 257
 161 698 l 257
 161 0 l 257xb0
 30 0 l 257
EndSplineSet
PickledDataWithLists: "(dp1
S'com.fontlab.hintData'
p2
(dp3
S'vhints'
p4
(lp5
(dp6
S'position'
p7
I30
sS'width'
p8
I131
sasS'hhints'
p9
(lp10
(dp11
g7
I0
sg8
I21
sa(dp12
g7
I0
sg8
I21
sa(dp13
g7
I678
sg8
I20
sass."
Layer: 2
Layer: 3
EndChar

StartChar: uni006D
Encoding: 65614 109 104
GlifName: uni006D_
Width: 684
VWidth: 0
Flags: HW
HStem: 0 21<30 154 30 30 280 404 280 280 530 530 530 654> 0 21<30 154 30 30 280 404 280 280 530 530 530 654> 398 121<174 195 189 195 189 237 237 243 441 447 488 494>
VStem: 30 124<0 372 0 377 0 401> 280 124<0 372 0 373.5> 530 124<0 372 372 373.5>
CounterMasks: 1 1c
LayerCount: 4
Back
Fore
SplineSet
30 0 m 257
 30 377 l 258
 30 425 84 519 189 519 c 258
 195 519 l 257
 195 398 l 257
 189 398 l 258
 159 398 154 374 154 372 c 257xbc
 154 0 l 257
 30 0 l 257
488 398 m 257
 488 519 l 257
 494 519 l 258
 600 519 654 422 654 377 c 258
 654 0 l 257
 530 0 l 257
 530 372 l 257
 530 375 524 398 494 398 c 258
 488 398 l 257
237 398 m 257
 237 519 l 257
 243 519 l 258
 285 519 317 505 342 486 c 257
 367 506 399 519 441 519 c 258
 447 519 l 257
 447 398 l 257
 441 398 l 258
 410 398 404 374 404 372 c 257
 404 0 l 257
 280 0 l 257
 280 372 l 258
 280 375 273 398 243 398 c 258
 237 398 l 257
EndSplineSet
PickledDataWithLists: "(dp1
S'com.fontlab.hintData'
p2
(dp3
S'vhints'
p4
(lp5
(dp6
S'position'
p7
I30
sS'width'
p8
I124
sa(dp9
g7
I280
sg8
I124
sa(dp10
g7
I530
sg8
I124
sasS'hhints'
p11
(lp12
(dp13
g7
I0
sg8
I21
sa(dp14
g7
I0
sg8
I21
sa(dp15
g7
I398
sg8
I121
sass."
Layer: 2
Layer: 3
EndChar

StartChar: uni006E
Encoding: 65615 110 105
GlifName: uni006E_
Width: 434
VWidth: 0
Flags: HW
HStem: 0 21<30 154 30 30 280 404 280 280> 0 21<30 154 30 30 280 404 280 280> 398 121<175.5 196 191 196 238 243 191 238>
VStem: 30 124<0 372 0 377 0 401> 280 124<0 372 372 373.5>
LayerCount: 4
Back
Fore
SplineSet
238 398 m 257
 238 519 l 257
 243 519 l 258
 350 519 404 422 404 377 c 258
 404 0 l 257
 280 0 l 257
 280 372 l 257xb8
 280 375 273 398 243 398 c 258
 238 398 l 257
30 0 m 257
 30 377 l 258
 30 425 84 519 191 519 c 258
 196 519 l 257
 196 398 l 257
 191 398 l 258
 160 398 154 374 154 372 c 257
 154 0 l 257
 30 0 l 257
EndSplineSet
PickledDataWithLists: "(dp1
S'com.fontlab.hintData'
p2
(dp3
S'vhints'
p4
(lp5
(dp6
S'position'
p7
I30
sS'width'
p8
I124
sa(dp9
g7
I280
sg8
I124
sasS'hhints'
p10
(lp11
(dp12
g7
I0
sg8
I21
sa(dp13
g7
I0
sg8
I21
sa(dp14
g7
I398
sg8
I121
sass."
Layer: 2
Layer: 3
EndChar

StartChar: uni006F
Encoding: 65616 111 106
GlifName: uni006F_
Width: 420
VWidth: 0
Flags: HW
HStem: -1 118<132 192 186 192 186 233 233 239> 398 118<169.5 192 186 192 233 239 186 233>
VStem: 28 120<144.5 154 154 363> 275 117<152 363 363 371.5>
LayerCount: 4
Back
Fore
SplineSet
28 141 m 258
 28 376 l 258
 28 421 79 516 186 516 c 258
 192 516 l 257
 192 398 l 257
 186 398 l 258
 153 398 148 373 148 363 c 257
 148 154 l 257
 148 135 156 117 186 117 c 258
 192 117 l 257
 192 -1 l 257
 186 -1 l 258
 78 -1 28 97 28 141 c 258
233 -1 m 257
 233 117 l 257
 239 117 l 258
 270 118 275 141 275 152 c 257
 275 363 l 257
 275 380 269 398 239 398 c 258
 233 398 l 257
 233 516 l 257
 239 516 l 258
 342 516 392 421 392 376 c 258
 392 141 l 258
 392 96 343 -1 239 -1 c 258
 233 -1 l 257
EndSplineSet
PickledDataWithLists: "(dp1
S'com.fontlab.hintData'
p2
(dp3
S'vhints'
p4
(lp5
(dp6
S'position'
p7
I28
sS'width'
p8
I120
sa(dp9
g7
I275
sg8
I117
sasS'hhints'
p10
(lp11
(dp12
g7
I-1
sg8
I118
sa(dp13
g7
I398
sg8
I118
sass."
Layer: 2
Layer: 3
EndChar

StartChar: uni0070
Encoding: 65617 112 107
GlifName: uni0070
Width: 422
VWidth: 0
Flags: HW
HStem: 0 118<203 232 203 234> 398 118<196 228 30 196>
VStem: 30 125<-182 516 -182 516> 276 120<143 372 372 375>
LayerCount: 4
Back
Fore
SplineSet
196 398 m 257
 196 516 l 257
 228 516 l 258
 335 516 396 431 396 375 c 258
 396 139 l 257
 396 86 345 0 232 0 c 258
 203 0 l 257
 203 118 l 257
 234 118 l 257
 271 119 276 134 276 143 c 258
 276 372 l 257
 276 385 258 398 228 398 c 258
 196 398 l 257
30 -182 m 257
 30 516 l 257
 155 516 l 257
 155 -182 l 257
 30 -182 l 257
EndSplineSet
PickledDataWithLists: "(dp1
S'com.fontlab.hintData'
p2
(dp3
S'vhints'
p4
(lp5
(dp6
S'position'
p7
I30
sS'width'
p8
I125
sa(dp9
g7
I276
sg8
I120
sasS'hhints'
p10
(lp11
(dp12
g7
I0
sg8
I118
sa(dp13
g7
I398
sg8
I118
sass."
Layer: 2
Layer: 3
EndChar

StartChar: uni0071
Encoding: 65618 113 108
GlifName: uni0071
Width: 416
VWidth: 0
Flags: HW
HStem: 0 118<188 190 190 219> 398 118<167 214 183 214>
VStem: 26 120<142 143 143 373> 262 124<-182 -182>
LayerCount: 4
Back
Fore
SplineSet
26 139 m 257
 26 375 l 258
 26 420 76 516 183 516 c 258
 214 516 l 257
 214 398 l 257
 183 398 l 258
 151 398 146 375 146 373 c 257
 146 143 l 258
 146 141 150 119 188 118 c 258
 219 118 l 257
 219 0 l 257
 190 0 l 258
 77 0 27 93 26 139 c 257
261 516 m 257
 385 516 l 257
 386 -182 l 257
 262 -182 l 257
 261 516 l 257
EndSplineSet
PickledDataWithLists: "(dp1
S'com.fontlab.hintData'
p2
(dp3
S'vhints'
p4
(lp5
(dp6
S'position'
p7
I26
sS'width'
p8
I120
sa(dp9
g7
I262
sg8
I124
sasS'hhints'
p10
(lp11
(dp12
g7
I0
sg8
I118
sa(dp13
g7
I398
sg8
I118
sass."
Layer: 2
Layer: 3
EndChar

StartChar: uni0072
Encoding: 65619 114 109
GlifName: uni0072
Width: 316
VWidth: 0
Flags: HW
HStem: 0 21<36 160 36 36> 395 121<289 289>
VStem: 36 124<0 271 454 516>
LayerCount: 4
Back
Fore
SplineSet
36 0 m 257
 36 516 l 257
 160 516 l 257
 160 454 l 257
 181 481 229 516 284 516 c 258
 317 516 l 257
 289 395 l 257
 222 394 160 331 160 271 c 258
 160 0 l 257
 36 0 l 257
EndSplineSet
PickledDataWithLists: "(dp1
S'com.fontlab.hintData'
p2
(dp3
S'vhints'
p4
(lp5
(dp6
S'position'
p7
I36
sS'width'
p8
I124
sasS'hhints'
p9
(lp10
(dp11
g7
I0
sg8
I21
sa(dp12
g7
I395
sg8
I121
sass."
Layer: 2
Layer: 3
EndChar

StartChar: uni0073
Encoding: 65620 115 110
GlifName: uni0073
Width: 418
VWidth: 0
Flags: HW
HStem: 404 113<224 226 179 223>
VStem: 26 112<353 369.5 353 422> 280 117<136.5 175.5>
LayerCount: 4
Back
Fore
SplineSet
21 136 m 257
 133 157 l 257
 133 154 l 258
 135 135 157 113 181 111 c 256
 184 110 l 257
 184 -5 l 257
 181 -5 l 258
 87 -5 25 70 22 134 c 256
 21 136 l 257
223 404 m 257
 224 517 l 257
 227 517 l 258
 321 517 388 440 388 376 c 258
 388 374 l 257
 276 355 l 257
 276 358 l 256
 272 399 234 404 226 404 c 258
 223 404 l 257
26 371 m 256
 26 473 125 517 179 517 c 258
 182 517 l 257
 182 406 l 257
 180 406 l 256
 140 402 138 377 138 362 c 256
 138 344 153 323 294 296 c 256
 346 286 397 243 397 160 c 256
 397 57 321 -5 228 -5 c 258
 225 -5 l 257
 225 109 l 257
 228 109 l 258
 243 110 280 120 280 153 c 256
 280 198 168 206 111 232 c 256
 62 256 26 287 26 371 c 256
EndSplineSet
PickledDataWithLists: "(dp1
S'com.fontlab.hintData'
p2
(dp3
S'vhints'
p4
(lp5
(dp6
S'position'
p7
I26
sS'width'
p8
I112
sa(dp9
g7
I280
sg8
I117
sasS'hhints'
p10
(lp11
(dp12
g7
I404
sg8
I113
sass."
Layer: 2
Layer: 3
EndChar

StartChar: uni0074
Encoding: 65621 116 111
GlifName: uni0074
Width: 324
VWidth: 0
Flags: HW
HStem: 0 125<244 271 244 298 243 271> 398 118<26 89 26 89 211 271> 680 20<89 211 211 211>
VStem: 89 122<168 398 516 700>
LayerCount: 4
Back
Fore
SplineSet
26 398 m 257
 26 516 l 257
 89 516 l 257
 89 700 l 257
 211 700 l 257
 211 516 l 257
 271 516 l 257
 271 398 l 257
 211 398 l 257
 211 159 l 258
 211 145 216 126 244 125 c 258
 271 125 l 257
 298 0 l 257
 243 0 l 258
 121 1 89 66 89 168 c 258
 89 398 l 257
 26 398 l 257
EndSplineSet
PickledDataWithLists: "(dp1
S'com.fontlab.hintData'
p2
(dp3
S'vhints'
p4
(lp5
(dp6
S'position'
p7
I89
sS'width'
p8
I122
sasS'hhints'
p9
(lp10
(dp11
g7
I0
sg8
I125
sa(dp12
g7
I398
sg8
I118
sa(dp13
g7
I680
sg8
I20
sass."
Layer: 2
Layer: 3
EndChar

StartChar: uni0075
Encoding: 65622 117 112
GlifName: uni0075
Width: 434
VWidth: 0
Flags: HW
HStem: -5 121<137.5 196 191 196 238 243 191 238> 494 20<30 154 154 154 280 404 404 404>
VStem: 30 124<140.5 142 142 514> 280 124<142 514>
LayerCount: 4
Back
Fore
SplineSet
238 -5 m 257
 238 116 l 257
 243 116 l 258
 274 116 280 140 280 142 c 257
 280 514 l 257
 404 514 l 257
 404 137 l 258
 404 92 350 -5 243 -5 c 258
 238 -5 l 257
30 137 m 258
 30 514 l 257
 154 514 l 257
 154 142 l 257
 154 139 160 116 191 116 c 258
 196 116 l 257
 196 -5 l 257
 191 -5 l 258
 84 -5 30 89 30 137 c 258
EndSplineSet
PickledDataWithLists: "(dp1
S'com.fontlab.hintData'
p2
(dp3
S'vhints'
p4
(lp5
(dp6
S'position'
p7
I30
sS'width'
p8
I124
sa(dp9
g7
I280
sg8
I124
sasS'hhints'
p10
(lp11
(dp12
g7
I-5
sg8
I121
sa(dp13
g7
I494
sg8
I20
sass."
Layer: 2
Layer: 3
EndChar

StartChar: uni0076
Encoding: 65623 118 113
GlifName: uni0076
Width: 400
VWidth: 0
Flags: HW
HStem: 0 21<174 174 174 243> 0 21<174 174 174 243> 496 20<151 151 269 269>
LayerCount: 4
Back
Fore
SplineSet
16 515 m 257
 151 516 l 257
 286 120 l 257
 243 0 l 257
 174 0 l 257xa0
 16 515 l 257
232 394 m 257
 269 516 l 257
 400 515 l 257
 308 208 l 257
 296 208 l 257
 232 394 l 257
EndSplineSet
PickledDataWithLists: "(dp1
S'com.fontlab.hintData'
p2
(dp3
S'hhints'
p4
(lp5
(dp6
S'position'
p7
I0
sS'width'
p8
I21
sa(dp9
g7
I0
sg8
I21
sa(dp10
g7
I496
sg8
I20
sass."
Layer: 2
Layer: 3
EndChar

StartChar: uni0077
Encoding: 65624 119 114
GlifName: uni0077
Width: 577
VWidth: 0
Flags: HW
HStem: 0 21<160 160 160 222 348 412 348 348> 0 21<160 160 160 222 348 412 348 348> 496 20<144 144 328 328 443 443>
LayerCount: 4
Back
Fore
SplineSet
8 515 m 257
 144 516 l 257
 261 120 l 257
 222 0 l 257
 160 0 l 257xa0
 8 515 l 257
190 515 m 257
 328 516 l 257
 449 120 l 257
 412 0 l 257
 348 0 l 257
 190 515 l 257
407 394 m 257
 443 516 l 257
 569 515 l 257
 471 208 l 257
 463 208 l 257
 407 394 l 257
EndSplineSet
PickledDataWithLists: "(dp1
S'com.fontlab.hintData'
p2
(dp3
S'hhints'
p4
(lp5
(dp6
S'position'
p7
I0
sS'width'
p8
I21
sa(dp9
g7
I0
sg8
I21
sa(dp10
g7
I496
sg8
I20
sass."
Layer: 2
Layer: 3
EndChar

StartChar: uni0078
Encoding: 65625 120 115
GlifName: uni0078
Width: 381
VWidth: 0
Flags: HW
HStem: 0 21<18 143 18 18 257 382 257 257> 0 21<18 143 18 18 257 382 257 257> 496 19
LayerCount: 4
Back
Fore
SplineSet
18 0 m 257
 132 262 l 257xa0
 22 516 l 257
 147 516 l 257
 200 399 l 257
 252 515 l 257
 378 515 l 257
 269 262 l 257
 382 0 l 257
 257 0 l 257
 200 126 l 257
 143 0 l 257
 18 0 l 257
EndSplineSet
PickledDataWithLists: "(dp1
S'com.fontlab.hintData'
p2
(dp3
S'hhints'
p4
(lp5
(dp6
S'position'
p7
I0
sS'width'
p8
I21
sa(dp9
g7
I0
sg8
I21
sa(dp10
g7
I496
sg8
I19
sass."
Layer: 2
Layer: 3
EndChar

StartChar: uni0079
Encoding: 65626 121 116
GlifName: uni0079
Width: 383
VWidth: 0
Flags: HW
HStem: 495 20<131 131 251 251>
VStem: 188 1
LayerCount: 4
Back
Fore
SplineSet
0 514 m 257
 131 515 l 257
 188 327 l 257
 188 328 189 328 189 329 c 257
 252 111 l 257
 155 -182 l 257
 29 -182 l 257
 118 113 l 257
 0 514 l 257
213 393 m 257
 251 515 l 257
 382 514 l 257
 279 208 l 257
 267 208 l 257
 213 393 l 257
EndSplineSet
PickledDataWithLists: "(dp1
S'com.fontlab.hintData'
p2
(dp3
S'vhints'
p4
(lp5
(dp6
S'position'
p7
I188
sS'width'
p8
I1
sasS'hhints'
p9
(lp10
(dp11
g7
I495
sg8
I20
sass."
Layer: 2
Layer: 3
EndChar

StartChar: uni007A
Encoding: 65627 122 117
GlifName: uni007A_
Width: 348
VWidth: 0
Flags: HW
HStem: 0 118<169 169 169 322> 394 120<26 183 26 322>
VStem: 26 296<0 116 116 116 400 514>
LayerCount: 4
Back
Fore
SplineSet
26 0 m 257
 26 116 l 257
 183 394 l 257
 26 394 l 257
 26 514 l 257
 322 514 l 257
 322 400 l 257
 169 118 l 257
 322 117 l 257
 322 0 l 257
 26 0 l 257
EndSplineSet
PickledDataWithLists: "(dp1
S'com.fontlab.hintData'
p2
(dp3
S'vhints'
p4
(lp5
(dp6
S'position'
p7
I26
sS'width'
p8
I296
sasS'hhints'
p9
(lp10
(dp11
g7
I0
sg8
I118
sa(dp12
g7
I394
sg8
I120
sass."
Layer: 2
Layer: 3
EndChar

StartChar: uni007B
Encoding: 65628 123 118
GlifName: uni007B_
Width: 407
VWidth: 0
Flags: HW
HStem: -38 99<280 292 289 307> 635 100<273 307>
VStem: 112 127<192 207 207 290 290 304 146.5 306 408 469>
LayerCount: 4
Back
Fore
SplineSet
50 348 m 257
 86 363 111 370 112 408 c 258
 112 504 l 258
 112 715 198 735 307 735 c 257
 307 635 l 257
 239 635 240 591 239 469 c 257
 239 383 l 258
 239 366 219 354 195 348 c 257
 220 340 239 325 239 304 c 258
 239 207 l 258
 239 86 253 61 307 61 c 257
 307 -38 l 257
 301 -38 295 -38 289 -38 c 256
 200 -38 112 -31 112 192 c 258
 112 290 l 258
 112 322 86 329 50 348 c 257
EndSplineSet
PickledDataWithLists: "(dp1
S'com.fontlab.hintData'
p2
(dp3
S'vhints'
p4
(lp5
(dp6
S'position'
p7
I112
sS'width'
p8
I127
sasS'hhints'
p9
(lp10
(dp11
g7
I-38
sg8
I99
sa(dp12
g7
I635
sg8
I100
sass."
Layer: 2
Layer: 3
EndChar

StartChar: uni007C
Encoding: 65629 124 119
GlifName: uni007C_
Width: 205
VWidth: 0
Flags: HW
VStem: 50 105<-134 754 -134 754>
LayerCount: 4
Back
Fore
SplineSet
50 -134 m 257
 50 754 l 257
 155 754 l 257
 155 -134 l 257
 50 -134 l 257
EndSplineSet
PickledDataWithLists: "(dp1
S'com.fontlab.hintData'
p2
(dp3
S'vhints'
p4
(lp5
(dp6
S'position'
p7
I50
sS'width'
p8
I105
sass."
Layer: 2
Layer: 3
EndChar

StartChar: uni007D
Encoding: 65630 125 120
GlifName: uni007D_
Width: 407
VWidth: 0
Flags: HW
HStem: -38 99<100 118 100 103> 635 100<100 134>
VStem: 168 127<208 290 80.5 304 80.5 314.5 408 469 469 469>
LayerCount: 4
Back
Fore
SplineSet
100 -38 m 257
 100 61 l 257
 154 61 168 87 168 208 c 258
 168 304 l 258
 168 325 187 340 212 348 c 257
 188 354 168 366 168 383 c 256
 168 384 168 384 168 384 c 256
 168 469 l 258
 167 591 168 635 100 635 c 257
 100 735 l 257
 209 735 295 715 295 504 c 258
 295 408 l 258
 296 370 321 363 357 348 c 257
 321 329 295 322 295 290 c 258
 295 192 l 258
 295 -31 207 -38 118 -38 c 256
 112 -38 106 -38 100 -38 c 257
EndSplineSet
PickledDataWithLists: "(dp1
S'com.fontlab.hintData'
p2
(dp3
S'vhints'
p4
(lp5
(dp6
S'position'
p7
I168
sS'width'
p8
I127
sasS'hhints'
p9
(lp10
(dp11
g7
I-38
sg8
I99
sa(dp12
g7
I635
sg8
I100
sass."
Layer: 2
Layer: 3
EndChar

StartChar: uni007E
Encoding: 65631 126 121
GlifName: uni007E_
Width: 568
VWidth: 0
Flags: HW
HStem: 235 132<343 399.5> 308 132<147.5 198>
LayerCount: 4
Back
Fore
SplineSet
50 272 m 257
 50 405 l 257
 95 431 132 440 163 440 c 256x40
 250 440 299 367 387 367 c 256
 422 367 464 379 518 412 c 257
 518 281 l 257x80
 462 247 418 235 381 235 c 256x80
 289 235 239 308 157 308 c 256
 127 308 92 299 50 272 c 257
EndSplineSet
PickledDataWithLists: "(dp1
S'com.fontlab.hintData'
p2
(dp3
S'hhints'
p4
(lp5
(dp6
S'position'
p7
I235
sS'width'
p8
I132
sa(dp9
g7
I308
sg8
I132
sass."
Layer: 2
Layer: 3
EndChar

StartChar: uni00A2
Encoding: 65633 162 123
GlifName: uni00A_2
Width: 494
VWidth: 0
Flags: HW
VStem: 32 141<181 518> 158 71<-48 -5 -5 7 7 7 693 705 705 749> 283 71<-48 -5 -5 11 -48 86 687 705 705 749> 330 138<143 215 143 215>
LayerCount: 4
Back
Fore
SplineSet
32 181 m 258
 32 518 l 258x80
 32 567 68 660 158 693 c 257
 158 749 l 257x40
 229 749 l 257
 229 705 l 257
 229 595 l 257
 229 564 l 257x40
 183 563 173 523 173 518 c 258
 173 181 l 258x80
 173 176 183 136 229 136 c 257
 229 86 l 257
 229 -5 l 257
 229 -48 l 257
 158 -48 l 257
 158 7 l 257x40
 68 40 32 132 32 181 c 258
283 564 m 257
 283 595 l 257
 283 705 l 257
 283 749 l 257x20
 354 749 l 257
 354 687 l 257x20
 417 656 468 587 468 516 c 257
 330 480 l 257
 330 495 l 258x10
 330 509 330 520 325 532 c 256
 315 555 283 564 283 564 c 257
283 -5 m 257
 283 86 l 257
 283 136 l 257
 283 136 315 143 325 166 c 256
 330 178 330 189 330 203 c 258
 330 215 l 257
 468 182 l 257x10
 468 104 417 40 354 11 c 257
 354 -48 l 257
 283 -48 l 257
 283 -5 l 257
EndSplineSet
PickledDataWithLists: "(dp1
S'com.fontlab.hintData'
p2
(dp3
S'vhints'
p4
(lp5
(dp6
S'position'
p7
I32
sS'width'
p8
I141
sa(dp9
g7
I158
sg8
I71
sa(dp10
g7
I283
sg8
I71
sa(dp11
g7
I330
sg8
I138
sass."
Layer: 2
Layer: 3
EndChar

StartChar: uni00A3
Encoding: 65634 163 124
GlifName: uni00A_3
Width: 520
VWidth: 0
Flags: HW
HStem: 0 108<238 462 238 462> 289 107<239 378 239 378 238 378> 584 121<291 293 293 307 291 319>
VStem: 106 132<108 288 288 288 108 514>
LayerCount: 4
Back
Fore
SplineSet
50 288 m 257
 50 395 l 257
 106 395 l 257
 106 514 l 258
 106 617 161 705 291 705 c 256
 292 705 292 705 293 705 c 256
 321 705 345 700 366 691 c 256
 424 668 459 618 470 570 c 257
 371 520 l 257
 361 551 341 584 297 584 c 256
 265 584 239 568 239 517 c 258
 239 396 l 257
 378 396 l 257
 378 289 l 257
 238 289 l 257
 238 108 l 257
 462 108 l 257
 462 0 l 257
 106 0 l 257
 106 288 l 257
 50 288 l 257
EndSplineSet
PickledDataWithLists: "(dp1
S'com.fontlab.hintData'
p2
(dp3
S'vhints'
p4
(lp5
(dp6
S'position'
p7
I106
sS'width'
p8
I132
sasS'hhints'
p9
(lp10
(dp11
g7
I0
sg8
I108
sa(dp12
g7
I289
sg8
I107
sa(dp13
g7
I584
sg8
I121
sass."
Layer: 2
Layer: 3
EndChar

StartChar: uni00A4
Encoding: 65635 164 125
GlifName: uni00A_4
Width: 656
VWidth: 0
Flags: HW
HStem: 133 118<281 310 304 310 304 357 304 351> 477 118<287.5 310 304 310 304 351 351 357>
VStem: 146 120<275 275 275 276 276 452> 393 117<275 451 451 452.5>
LayerCount: 4
Back
Fore
SplineSet
351 133 m 257
 351 247 l 257
 357 247 l 258
 388 248 393 272 393 274 c 258
 393 451 l 258
 393 454 387 477 357 477 c 258
 351 477 l 257
 351 595 l 257
 357 595 l 258
 400 595 434 578 459 555 c 257
 534 622 l 257
 606 540 l 257
 510 456 l 258
 510 455 510 455 510 455 c 256
 510 275 l 256
 510 275 510 275 510 275 c 256
 605 190 l 257
 534 109 l 257
 460 174 l 257
 435 150 401 133 357 133 c 258
 351 133 l 257
50 540 m 257
 122 622 l 257
 198 555 l 257
 223 578 259 595 304 595 c 258
 310 595 l 257
 310 477 l 257
 304 477 l 258
 271 477 266 453 266 452 c 258
 266 276 l 258
 266 273 274 251 304 251 c 258
 310 251 l 257
 310 133 l 257
 304 133 l 258
 258 133 222 151 197 175 c 257
 122 109 l 257
 51 190 l 257
 146 275 l 256
 146 275 146 275 146 275 c 256
 146 455 l 256
 146 455 146 455 146 456 c 258
 50 540 l 257
EndSplineSet
PickledDataWithLists: "(dp1
S'com.fontlab.hintData'
p2
(dp3
S'vhints'
p4
(lp5
(dp6
S'position'
p7
I146
sS'width'
p8
I120
sa(dp9
g7
I393
sg8
I117
sasS'hhints'
p10
(lp11
(dp12
g7
I133
sg8
I118
sa(dp13
g7
I477
sg8
I118
sass."
Layer: 2
Layer: 3
EndChar

StartChar: uni00A5
Encoding: 65636 165 126
GlifName: uni00A_5
Width: 542
VWidth: 0
Flags: HW
HStem: 0 21<203 340 203 203> 0 21<203 340 203 203> 238 57<50 193 50 203 50 193> 351 58<50 162 50 177 50 162> 678 20<73 210 210 210 333 470 470 470>
VStem: 203 137<0 236 0 238 0 238>
LayerCount: 4
Back
Fore
SplineSet
50 238 m 257
 50 295 l 257
 193 295 l 257
 177 351 l 257
 50 351 l 257
 50 409 l 257
 162 409 l 257
 73 698 l 257xbc
 210 698 l 257
 273 485 l 257
 333 698 l 257
 470 698 l 257
 382 408 l 257
 492 408 l 257
 492 350 l 257
 365 350 l 257
 351 295 l 257
 492 295 l 257
 492 236 l 257
 340 236 l 257
 340 0 l 257
 203 0 l 257
 203 238 l 257
 50 238 l 257
EndSplineSet
PickledDataWithLists: "(dp1
S'com.fontlab.hintData'
p2
(dp3
S'vhints'
p4
(lp5
(dp6
S'position'
p7
I203
sS'width'
p8
I137
sasS'hhints'
p9
(lp10
(dp11
g7
I0
sg8
I21
sa(dp12
g7
I0
sg8
I21
sa(dp13
g7
I238
sg8
I57
sa(dp14
g7
I351
sg8
I58
sa(dp15
g7
I678
sg8
I20
sass."
Layer: 2
Layer: 3
EndChar

StartChar: uni00A6
Encoding: 65637 166 127
GlifName: uni00A_6
Width: 222
VWidth: 0
Flags: HW
VStem: 50 122<-134 221 -134 221 399 754>
LayerCount: 4
Back
Fore
SplineSet
50 399 m 257
 50 754 l 257
 172 754 l 257
 172 399 l 257
 50 399 l 257
50 -134 m 257
 50 221 l 257
 172 221 l 257
 172 -134 l 257
 50 -134 l 257
EndSplineSet
PickledDataWithLists: "(dp1
S'com.fontlab.hintData'
p2
(dp3
S'vhints'
p4
(lp5
(dp6
S'position'
p7
I50
sS'width'
p8
I122
sass."
Layer: 2
Layer: 3
EndChar

StartChar: uni00A7
Encoding: 65638 167 128
GlifName: uni00A_7
Width: 547
VWidth: 0
Flags: HW
HStem: -136 132<170 274 274 282 170 274> 627 132<265 273 273 377>
VStem: 26 141<335.5 368.5 335.5 382> 88 131<565.5 591 565.5 640.5> 328 131<32 57.5> 380 141<254.5 288>
LayerCount: 4
Back
Fore
SplineSet
170 -4 m 257
 274 -4 l 258
 307 -4 328 17 328 47 c 256
 328 68 317 84 300 97 c 257
 300 252 l 257
 313 247 325 242 336 237 c 256
 345 232 354 228 363 223 c 257xc8
 373 231 380 243 380 266 c 256
 380 310 343 333 300 351 c 257
 300 498 l 257
 331 485 365 473 393 457 c 256
 454 421 521 374 521 272 c 256xc4
 521 210 493 158 449 124 c 257
 456 104 459 80 459 52 c 256
 459 -87 350 -136 282 -136 c 258
 170 -136 l 257
 170 -4 l 257
26 351 m 256xe0
 26 413 54 465 98 499 c 257
 91 519 88 543 88 571 c 256xd0
 88 710 197 759 265 759 c 258
 377 759 l 257
 377 627 l 257
 273 627 l 258
 240 627 219 606 219 576 c 256xd0
 219 555 230 540 246 527 c 257
 246 372 l 257
 233 377 221 381 211 386 c 256
 202 391 193 395 184 400 c 257
 174 392 167 380 167 357 c 256
 167 314 204 290 246 272 c 257
 246 125 l 257
 215 138 181 150 154 166 c 256
 93 202 26 249 26 351 c 256xe0
EndSplineSet
PickledDataWithLists: "(dp1
S'com.fontlab.hintData'
p2
(dp3
S'vhints'
p4
(lp5
(dp6
S'position'
p7
I26
sS'width'
p8
I141
sa(dp9
g7
I88
sg8
I131
sa(dp10
g7
I328
sg8
I131
sa(dp11
g7
I380
sg8
I141
sasS'hhints'
p12
(lp13
(dp14
g7
I-136
sg8
I132
sa(dp15
g7
I627
sg8
I132
sass."
Layer: 2
Layer: 3
EndChar

StartChar: uni00A8
Encoding: 65639 168 129
GlifName: uni00A_8
Width: 320
VWidth: 0
Flags: W
LayerCount: 4
Back
Fore
SplineSet
170 678 m 256
 170 720 203 754 245 754 c 256
 287 754 320 720 320 678 c 256
 320 636 287 603 245 603 c 256
 203 603 170 636 170 678 c 256
0 678 m 256
 0 720 33 754 75 754 c 256
 117 754 150 720 150 678 c 256
 150 636 117 603 75 603 c 256
 33 603 0 636 0 678 c 256
EndSplineSet
Validated: 1
Layer: 2
Layer: 3
EndChar

StartChar: uni00A9
Encoding: 65640 169 130
GlifName: uni00A_9
Width: 859
VWidth: 0
Flags: HW
HStem: -49 93<412 412 412 447> 112 89<366.5 447 447 476.5> 476 90<397.5 412 366.5 447> 636 90<412 412 412 447>
VStem: 50 89<332 339 332 339 337 339 332 464> 287 90<231 447> 720 89<332 339 338 339 327 427.5>
LayerCount: 4
Back
Fore
SplineSet
50 327 m 256
 50 331 50 335 50 339 c 256
 50 589 264 725 412 726 c 257
 412 636 l 257
 283 635 139 516 139 339 c 256
 139 337 139 334 139 332 c 256
 142 179 266 51 412 44 c 257
 412 -49 l 257
 240 -43 56 104 50 327 c 256
447 476 m 257
 447 566 l 257
 506 566 565 507 565 446 c 257
 477 413 l 257
 477 432 l 258
 477 441 477 448 474 456 c 256
 468 470 447 476 447 476 c 257
447 112 m 257
 447 201 l 257
 447 201 468 207 474 222 c 256
 477 229 477 236 477 245 c 258
 477 264 l 257
 565 232 l 257
 565 171 506 112 447 112 c 257
287 231 m 257
 287 447 l 257
 287 485 321 566 412 566 c 257
 412 476 l 257
 383 476 377 450 377 447 c 257
 377 231 l 257
 377 228 383 203 412 203 c 257
 412 112 l 257
 321 112 287 193 287 231 c 257
447 44 m 257
 593 51 717 179 720 332 c 256
 720 334 720 337 720 339 c 256
 720 516 576 635 447 636 c 257
 447 726 l 257
 595 725 809 589 809 339 c 256
 809 335 809 331 809 327 c 256
 803 104 619 -43 447 -49 c 257
 447 44 l 257
EndSplineSet
PickledDataWithLists: "(dp1
S'com.fontlab.hintData'
p2
(dp3
S'vhints'
p4
(lp5
(dp6
S'position'
p7
I50
sS'width'
p8
I89
sa(dp9
g7
I287
sg8
I90
sa(dp10
g7
I720
sg8
I89
sasS'hhints'
p11
(lp12
(dp13
g7
I-49
sg8
I93
sa(dp14
g7
I112
sg8
I89
sa(dp15
g7
I476
sg8
I90
sa(dp16
g7
I636
sg8
I90
sass."
Layer: 2
Layer: 3
EndChar

StartChar: uni00AA
Encoding: 65641 170 131
GlifName: uni00A_A_
Width: 227
VWidth: 0
Flags: HW
LayerCount: 4
Back
Fore
SplineSet
26 362 m 257
 26 430 l 257
 201 430 l 257
 201 362 l 257
 26 362 l 257
31 642 m 257
 31 644 l 258
 31 676 65 701 96 701 c 258
 99 701 l 257
 99 649 l 257
 96 649 l 258
 87 648 80 643 80 627 c 258
 80 623 l 257
 31 642 l 257
28 520 m 258
 28 551 l 258
 28 566 31 575 50 586 c 256
 70 598 134 610 134 626 c 258
 134 631 l 258
 134 641 133 648 119 649 c 258
 116 650 l 257
 116 701 l 257
 119 701 l 258
 165 701 188 659 188 639 c 258
 188 535 l 258
 188 533 189 523 197 523 c 258
 200 523 l 257
 200 471 l 257
 197 471 l 258
 181 471 168 476 159 483 c 257
 148 475 136 471 120 471 c 258
 117 471 l 257
 117 523 l 257
 120 523 l 258
 132 523 134 536 134 537 c 258
 134 569 l 257
 115 559 85 554 79 551 c 256
 77 550 75 547 75 543 c 258
 75 537 l 258
 75 529 78 523 89 523 c 258
 99 523 l 257
 99 471 l 257
 97 471 l 258
 54 471 28 494 28 520 c 258
EndSplineSet
Layer: 2
Layer: 3
EndChar

StartChar: uni00AB
Encoding: 65642 171 132
GlifName: uni00A_B_
Width: 475
VWidth: 0
Flags: HW
LayerCount: 4
Back
Fore
SplineSet
27 259 m 257
 27 321 l 257
 238 477 l 257
 238 352 l 257
 149 292 l 257
 238 224 l 257
 238 102 l 257
 27 259 l 257
238 259 m 257
 238 321 l 257
 449 477 l 257
 449 352 l 257
 360 292 l 257
 449 224 l 257
 449 102 l 257
 238 259 l 257
EndSplineSet
Layer: 2
Layer: 3
EndChar

StartChar: uni00AC
Encoding: 65643 172 133
GlifName: uni00A_C_
Width: 502
VWidth: 0
Flags: HW
HStem: 327 115<26 358 26 476>
VStem: 358 118<208 327 327 327>
LayerCount: 4
Back
Fore
SplineSet
26 327 m 257
 26 442 l 257
 476 442 l 257
 476 208 l 257
 358 208 l 257
 358 327 l 257
 26 327 l 257
EndSplineSet
PickledDataWithLists: "(dp1
S'com.fontlab.hintData'
p2
(dp3
S'vhints'
p4
(lp5
(dp6
S'position'
p7
I358
sS'width'
p8
I118
sasS'hhints'
p9
(lp10
(dp11
g7
I327
sg8
I115
sass."
Layer: 2
Layer: 3
EndChar

StartChar: uni00AE
Encoding: 65645 174 135
GlifName: uni00A_E_
Width: 404
VWidth: 0
Flags: HW
HStem: 354 42<191 192 191 211> 511 36<206 210 210 216> 591 37<206 210 206 227> 662 41<193 195 193 195 193 240.5>
VStem: 30 40<523 567.5 526 567.5 526 587> 151 39<430 627 430 627> 234 36<562.5 575> 334 40<525 527 526.5 528 473 567.5>
LayerCount: 4
Back
Fore
SplineSet
30 523 m 256
 30 524 30 524 30 525 c 256
 30 649 133 703 193 703 c 256
 194 703 194 703 195 703 c 257
 195 662 l 257
 136 662 70 609 70 526 c 256
 71 457 126 399 191 396 c 257
 192 354 l 257
 111 355 30 432 30 523 c 256
211 354 m 257
 211 396 l 257
 276 399 332 456 334 525 c 256
 334 526 334 526 334 527 c 256
 334 608 270 662 211 662 c 257
 211 703 l 257
 277 702 374 641 374 528 c 256
 374 526 374 525 374 523 c 256
 374 423 288 357 211 354 c 257
206 511 m 257
 206 547 l 257
 210 547 l 258
 227 547 234 557 234 568 c 256
 234 582 224 591 210 591 c 258
 206 591 l 257
 206 628 l 257
 248 628 270 604 270 570 c 256
 270 551 264 538 251 530 c 257
 261 522 269 506 270 492 c 258
 270 431 l 257
 235 431 l 257
 235 481 l 258
 235 504 226 511 206 511 c 257
151 430 m 257
 151 627 l 257
 190 627 l 257
 190 430 l 257
 151 430 l 257
EndSplineSet
PickledDataWithLists: "(dp1
S'com.fontlab.hintData'
p2
(dp3
S'vhints'
p4
(lp5
(dp6
S'position'
p7
I30
sS'width'
p8
I40
sa(dp9
g7
I151
sg8
I39
sa(dp10
g7
I234
sg8
I36
sa(dp11
g7
I334
sg8
I40
sasS'hhints'
p12
(lp13
(dp14
g7
I354
sg8
I42
sa(dp15
g7
I511
sg8
I36
sa(dp16
g7
I591
sg8
I37
sa(dp17
g7
I662
sg8
I41
sass."
Layer: 2
Layer: 3
EndChar

StartChar: uni00B0
Encoding: 65647 176 137
GlifName: uni00B_0
Width: 282
VWidth: 0
Flags: W
HStem: 468 77<129.5 151 129.5 172> 622 77
VStem: 25 77<572.5 594 572.5 615> 179 77<572.5 594>
LayerCount: 4
Back
Fore
SplineSet
102 583 m 256
 102 562 119 545 140 545 c 256
 162 545 179 562 179 583 c 256
 179 605 162 622 140 622 c 256
 119 622 102 605 102 583 c 256
25 583 m 256
 25 647 77 698 140 698 c 256
 204 698 256 647 256 583 c 256
 256 520 204 468 140 468 c 256
 77 468 25 520 25 583 c 256
EndSplineSet
Validated: 1
PickledDataWithLists: "(dp1
S'com.fontlab.hintData'
p2
(dp3
S'vhints'
p4
(lp5
(dp6
S'position'
p7
I25
sS'width'
p8
I77
sa(dp9
g7
I179
sg8
I77
sasS'hhints'
p10
(lp11
(dp12
g7
I468
sg8
I77
sa(dp13
g7
I622
sg8
I77
sass."
Layer: 2
Layer: 3
EndChar

StartChar: uni00B1
Encoding: 65648 177 138
GlifName: uni00B_1
Width: 575
VWidth: 0
Flags: HW
HStem: 40 127<100 476 100 476> 391 127
VStem: 223 127
LayerCount: 4
Back
Fore
SplineSet
100 40 m 257
 100 167 l 257
 476 167 l 257
 476 40 l 257
 100 40 l 257
EndSplineSet
Refer: 38 43 N 1 0 0 1 0 161 2
PickledDataWithLists: "(dp1
S'com.fontlab.hintData'
p2
(dp3
S'vhints'
p4
(lp5
(dp6
S'position'
p7
I223
sS'width'
p8
I127
sasS'hhints'
p9
(lp10
(dp11
g7
I40
sg8
I127
sa(dp12
g7
I391
sg8
I127
sass."
Layer: 2
Layer: 3
EndChar

StartChar: uni00B2
Encoding: 65649 178 139
GlifName: uni00B_2
Width: 245
VWidth: 0
Flags: HW
LayerCount: 4
Back
Fore
SplineSet
26 616 m 257
 26 619 l 257
 30 657 58 695 101 700 c 257
 105 700 l 257
 105 645 l 257
 105 638 l 257
 102 638 l 258
 98 636 85 629 85 608 c 258
 85 604 l 257
 26 616 l 257
34 389 m 257
 34 451 l 257
 216 451 l 257
 216 389 l 257
 34 389 l 257
34 469 m 257
 37 475 l 258
 63 529 107 553 119 563 c 256
 139 580 159 584 159 608 c 256
 159 629 148 638 125 639 c 258
 122 639 l 257
 122 700 l 257
 129 700 l 258
 198 700 219 643 219 609 c 256
 219 560 196 546 170 527 c 256
 139 505 123 493 109 471 c 258
 108 469 l 257
 34 469 l 257
EndSplineSet
Layer: 2
Layer: 3
EndChar

StartChar: uni00B3
Encoding: 65650 179 140
GlifName: uni00B_3
Width: 247
VWidth: 0
Flags: HW
HStem: 392 60<86.5 129 104 129 126 129 126 129 129 131> 516 61<97 101 97 101> 640 61<104 107 104 107 125 128 104 130 104 125>
VStem: 157 64<475 495>
LayerCount: 4
Back
Fore
SplineSet
26 439 m 257
 78 470 l 257
 80 467 l 258
 85 459 92 455 104 454 c 258
 107 453 l 257
 107 392 l 257
 104 392 l 258
 69 392 43 406 28 436 c 257
 26 439 l 257
97 516 m 257
 97 577 l 257
 101 577 l 258
 152 577 157 588 157 612 c 256
 157 633 141 640 130 640 c 258
 125 640 l 257
 125 701 l 257
 128 701 l 258
 188 700 219 650 219 616 c 256
 219 578 208 557 195 547 c 257
 207 537 221 516 221 482 c 256
 221 426 167 392 131 392 c 258
 126 392 l 257
 126 452 l 257
 129 452 l 258
 145 452 157 467 157 483 c 256
 157 507 151 516 101 516 c 258
 97 516 l 257
26 654 m 257
 28 657 l 258
 43 682 69 701 104 701 c 258
 107 701 l 257
 107 640 l 257
 104 640 l 258
 92 639 85 634 80 626 c 258
 78 623 l 257
 26 654 l 257
EndSplineSet
PickledDataWithLists: "(dp1
S'com.fontlab.hintData'
p2
(dp3
S'vhints'
p4
(lp5
(dp6
S'position'
p7
I157
sS'width'
p8
I64
sasS'hhints'
p9
(lp10
(dp11
g7
I392
sg8
I60
sa(dp12
g7
I516
sg8
I61
sa(dp13
g7
I640
sg8
I61
sass."
Layer: 2
Layer: 3
EndChar

StartChar: uni00B4
Encoding: 65651 180 141
GlifName: uni00B_4
Width: 263
VWidth: 0
Flags: HW
HStem: 605 152<87 141 50 214>
VStem: 50 164<605 757>
LayerCount: 4
Back
Fore
SplineSet
50 605 m 257
 87 757 l 257
 214 757 l 257
 141 605 l 257
 50 605 l 257
EndSplineSet
PickledDataWithLists: "(dp1
S'com.fontlab.hintData'
p2
(dp3
S'vhints'
p4
(lp5
(dp6
S'position'
p7
I50
sS'width'
p8
I164
sasS'hhints'
p9
(lp10
(dp11
g7
I605
sg8
I152
sass."
Layer: 2
Layer: 3
EndChar

StartChar: uni00B5
Encoding: 65652 181 142
GlifName: uni00B_5
Width: 468
VWidth: 0
Flags: HW
HStem: 0 21<26 150 26 26> 0 21<26 150 26 26> 179 121<180.5 192 187 192 187 234 234 239> 678 20<26 150 150 150 276 276 400 400> 680 20<276 400 400 400>
VStem: 26 166<179 300 179 321 179 356 179 698> 26 124<0 183 0 321 324.5 326 326 356 356 698> 276 124<326.5 328 328 698 698 700>
LayerCount: 4
Back
Fore
SplineSet
26 0 m 257xb3
 26 321 l 257
 26 356 l 257
 26 698 l 257xb5
 150 698 l 257
 150 356 l 257
 150 326 l 258xb3
 150 323 156 300 187 300 c 258
 192 300 l 257
 192 179 l 257xb5
 187 179 l 258
 174 179 162 180 150 183 c 257
 150 0 l 257
 26 0 l 257xb3
234 179 m 257
 234 300 l 257
 239 300 l 258
 270 300 276 324 276 326 c 258
 276 698 l 257x31
 276 700 l 257x29
 400 700 l 257x29
 400 698 l 257
 400 328 l 258
 400 325 406 302 437 302 c 258
 442 302 l 257
 442 181 l 257
 437 181 l 258
 397 181 364 194 339 213 c 257
 313 193 280 179 239 179 c 258
 234 179 l 257
EndSplineSet
PickledDataWithLists: "(dp1
S'com.fontlab.hintData'
p2
(dp3
S'vhints'
p4
(lp5
(dp6
S'position'
p7
I26
sS'width'
p8
I166
sa(dp9
g7
I26
sg8
I124
sa(dp10
g7
I276
sg8
I124
sasS'hhints'
p11
(lp12
(dp13
g7
I0
sg8
I21
sa(dp14
g7
I0
sg8
I21
sa(dp15
g7
I179
sg8
I121
sa(dp16
g7
I678
sg8
I20
sa(dp17
g7
I680
sg8
I20
sass."
Layer: 2
Layer: 3
EndChar

StartChar: uni00B6
Encoding: 65653 182 143
GlifName: uni00B_6
Width: 444
VWidth: 0
Flags: HW
LayerCount: 4
Back
Fore
SplineSet
26 517 m 256
 26 617 93 705 195 705 c 256
 223 705 250 705 278 705 c 257
 278 -5 l 257
 195 -5 l 257
 195 329 l 257
 91 329 26 403 26 517 c 256
335 -5 m 257
 335 705 l 257
 418 705 l 257
 418 -5 l 257
 335 -5 l 257
EndSplineSet
Layer: 2
Layer: 3
EndChar

StartChar: uni00B8
Encoding: 65655 184 145
GlifName: uni00B_8
Width: 219
VWidth: 0
Flags: HW
HStem: -36 91<26 44 26 89.5>
VStem: 102 92<95.5 123>
LayerCount: 4
Back
Fore
SplineSet
26 -36 m 257
 26 55 l 257
 62 55 102 68 102 123 c 257
 194 123 l 257
 194 47 153 -36 26 -36 c 257
EndSplineSet
PickledDataWithLists: "(dp1
S'com.fontlab.hintData'
p2
(dp3
S'vhints'
p4
(lp5
(dp6
S'position'
p7
I102
sS'width'
p8
I92
sasS'hhints'
p9
(lp10
(dp11
g7
I-36
sg8
I91
sass."
Layer: 2
Layer: 3
EndChar

StartChar: uni00B9
Encoding: 65656 185 146
GlifName: uni00B_9
Width: 186
VWidth: 0
Flags: HW
HStem: 391 309<95 161 95 161 93 161>
VStem: 60 101<584 673 673 673> 93 68<391 610 610 610>
LayerCount: 4
Back
Fore
SplineSet
60 584 m 257
 60 673 l 257xc0
 95 700 l 257
 161 700 l 257
 161 391 l 257
 93 391 l 257
 93 610 l 257xa0
 60 584 l 257
EndSplineSet
PickledDataWithLists: "(dp1
S'com.fontlab.hintData'
p2
(dp3
S'vhints'
p4
(lp5
(dp6
S'position'
p7
I60
sS'width'
p8
I101
sa(dp9
g7
I93
sg8
I68
sasS'hhints'
p10
(lp11
(dp12
g7
I391
sg8
I309
sass."
Layer: 2
Layer: 3
EndChar

StartChar: uni00BA
Encoding: 65657 186 147
GlifName: uni00B_A_
Width: 230
VWidth: 0
Flags: HW
HStem: 361 71<26 204 26 204> 470 55<78.5 108 103 108 103 127 103 123> 645 55<96.5 108 103 108 103 123 123 127>
VStem: 32 56<533.5 534 534 635> 141 55<533 635 635 635.5>
LayerCount: 4
Back
Fore
SplineSet
26 361 m 257
 26 432 l 257
 204 432 l 257
 204 361 l 257
 26 361 l 257
123 470 m 257
 123 523 l 257
 127 523 l 258
 139 523 141 532 141 533 c 258
 141 635 l 258
 141 636 139 645 127 645 c 258
 123 645 l 257
 123 700 l 257
 127 700 l 258
 173 700 196 658 196 637 c 258
 196 533 l 258
 196 513 174 470 127 470 c 258
 123 470 l 257
32 533 m 258
 32 637 l 258
 32 658 55 700 103 700 c 258
 108 700 l 257
 108 645 l 257
 103 645 l 258
 90 645 88 636 88 635 c 258
 88 534 l 258
 88 533 91 525 103 525 c 258
 108 525 l 257
 108 470 l 257
 103 470 l 258
 54 470 32 513 32 533 c 258
EndSplineSet
PickledDataWithLists: "(dp1
S'com.fontlab.hintData'
p2
(dp3
S'vhints'
p4
(lp5
(dp6
S'position'
p7
I32
sS'width'
p8
I56
sa(dp9
g7
I141
sg8
I55
sasS'hhints'
p10
(lp11
(dp12
g7
I361
sg8
I71
sa(dp13
g7
I470
sg8
I55
sa(dp14
g7
I645
sg8
I55
sass."
Layer: 2
Layer: 3
EndChar

StartChar: uni00BB
Encoding: 65658 187 148
GlifName: uni00B_B_
Width: 414
VWidth: 0
Flags: HW
LayerCount: 4
Back
Fore
SplineSet
26 102 m 257
 26 224 l 257
 115 292 l 257
 26 352 l 257
 26 477 l 257
 237 321 l 257
 237 259 l 257
 26 102 l 257
237 102 m 257
 237 224 l 257
 326 292 l 257
 237 352 l 257
 237 477 l 257
 448 321 l 257
 448 259 l 257
 237 102 l 257
EndSplineSet
Layer: 2
Layer: 3
EndChar

StartChar: uni00BC
Encoding: 65659 188 149
GlifName: uni00B_C_
Width: 560
VWidth: 0
Flags: HW
HStem: -1 21<393 461 393 393> -1 21<393 461 393 393> 71 66<346 368 270 270 461 488> 682 20<114 181 181 181 458 534 534 534>
VStem: 75 106<567 671 671 671> 113 68<349 597 597 597> 270 98<71 137 71 137> 393 95<71 137 71 352> 393 68<-1 71 -1 137 137 352>
LayerCount: 4
Back
Fore
SplineSet
75 567 m 257
 75 671 l 257x3a
 114 702 l 257
 181 702 l 257
 181 349 l 257
 113 349 l 257
 113 597 l 257x36
 75 567 l 257
393 -1 m 257xb280
 393 352 l 257xb3
 461 352 l 257
 461 137 l 257xb280
 488 137 l 257xb3
 488 71 l 257xb3
 461 71 l 257
 461 -1 l 257
 393 -1 l 257xb280
270 71 m 257
 270 137 l 257
 368 305 l 257
 368 175 l 257
 346 137 l 257
 368 137 l 257
 368 71 l 257
 270 71 l 257
26 -2 m 257
 458 702 l 257
 534 702 l 257
 109 -2 l 257
 26 -2 l 257
EndSplineSet
PickledDataWithLists: "(dp1
S'com.fontlab.hintData'
p2
(dp3
S'vhints'
p4
(lp5
(dp6
S'position'
p7
I75
sS'width'
p8
I106
sa(dp9
g7
I113
sg8
I68
sa(dp10
g7
I270
sg8
I98
sa(dp11
g7
I393
sg8
I95
sa(dp12
g7
I393
sg8
I68
sasS'hhints'
p13
(lp14
(dp15
g7
I-1
sg8
I21
sa(dp16
g7
I-1
sg8
I21
sa(dp17
g7
I71
sg8
I66
sa(dp18
g7
I682
sg8
I20
sass."
Layer: 2
Layer: 3
EndChar

StartChar: uni00BD
Encoding: 65660 189 150
GlifName: uni00B_D_
Width: 581
VWidth: 0
Flags: HW
HStem: -1 66<346 551 346 551> 288 66<422 424 422 424 448 449 424 448> 682 20<114 182 182 182 458 534 534 534>
VStem: 76 106<567 671 671 671> 114 68<349 597 597 597 349 702> 490 64<235.5 251 224 263>
LayerCount: 4
Back
Fore
SplineSet
337 261 m 257
 338 263 l 257
 343 306 374 347 422 353 c 257
 424 354 l 257
 424 290 l 257
 424 288 l 257
 422 288 l 258xe4
 420 287 400 278 400 250 c 258
 400 248 l 257
 337 261 l 257
26 -2 m 257
 458 702 l 257
 534 702 l 257
 109 -2 l 257
 26 -2 l 257
346 -1 m 257
 346 65 l 257
 551 65 l 257
 551 -1 l 257
 346 -1 l 257
348 92 m 257
 349 94 l 258
 379 156 429 184 444 196 c 256
 467 215 490 220 490 251 c 256
 490 275 476 287 449 288 c 258
 448 288 l 257
 448 354 l 257
 453 354 l 258
 531 354 553 290 554 251 c 256
 554 197 529 180 499 159 c 256
 464 134 445 119 428 93 c 257
 427 92 l 257
 348 92 l 257
76 567 m 257
 76 671 l 257xf4
 114 702 l 257
 182 702 l 257
 182 349 l 257
 114 349 l 257
 114 597 l 257xec
 76 567 l 257
EndSplineSet
PickledDataWithLists: "(dp1
S'com.fontlab.hintData'
p2
(dp3
S'vhints'
p4
(lp5
(dp6
S'position'
p7
I76
sS'width'
p8
I106
sa(dp9
g7
I114
sg8
I68
sa(dp10
g7
I490
sg8
I64
sasS'hhints'
p11
(lp12
(dp13
g7
I-1
sg8
I66
sa(dp14
g7
I288
sg8
I66
sa(dp15
g7
I682
sg8
I20
sass."
Layer: 2
Layer: 3
EndChar

StartChar: uni00BE
Encoding: 65661 190 151
GlifName: uni00B_E_
Width: 584
VWidth: 0
Flags: HW
HStem: -1 21<417 485 417 417> -1 21<417 485 417 417> 71 66<370 392 294 294 485 512> 348 66<93.5 114 113 114 113 141 113 144> 492 65<108 109 109 137.5> 636 64<94 141 94 143 94 140>
VStem: 177 68<440.5 464.5> 294 98<71 137 71 137> 417 95<71 137 71 352> 417 68<-1 71 -1 137 137 352>
LayerCount: 4
Back
Fore
SplineSet
26 399 m 257
 82 432 l 257
 83 431 l 258x3f
 90 421 99 415 113 414 c 258
 114 414 l 257
 114 348 l 257
 113 348 l 258
 74 348 44 364 27 398 c 257
 26 399 l 257
108 492 m 257
 108 557 l 257
 109 557 l 258
 169 557 177 571 177 600 c 256
 177 626 157 636 143 636 c 258
 140 636 l 257
 140 701 l 257
 141 700 l 257
 209 698 243 642 243 604 c 256
 243 557 229 534 214 525 c 257
 229 514 245 491 245 450 c 256
 245 387 185 348 144 348 c 258
 141 348 l 257
 141 412 l 257
 142 412 l 258
 163 412 177 431 177 450 c 256
 177 479 167 492 108 492 c 257
26 649 m 257
 27 651 l 258
 44 679 74 700 114 700 c 257
 114 635 l 257
 113 635 l 258
 99 634 90 628 83 618 c 258
 82 616 l 257
 26 649 l 257
417 -1 m 257xbf40
 417 352 l 257xbf80
 485 352 l 257
 485 137 l 257xbf40
 512 137 l 257xbf80
 512 71 l 257xbf80
 485 71 l 257
 485 -1 l 257
 417 -1 l 257xbf40
294 71 m 257
 294 137 l 257
 392 305 l 257
 392 175 l 257
 370 137 l 257
 392 137 l 257
 392 71 l 257
 294 71 l 257
50 -2 m 257
 482 702 l 257
 558 702 l 257
 133 -2 l 257
 50 -2 l 257
EndSplineSet
PickledDataWithLists: "(dp1
S'com.fontlab.hintData'
p2
(dp3
S'vhints'
p4
(lp5
(dp6
S'position'
p7
I177
sS'width'
p8
I68
sa(dp9
g7
I294
sg8
I98
sa(dp10
g7
I417
sg8
I95
sa(dp11
g7
I417
sg8
I68
sasS'hhints'
p12
(lp13
(dp14
g7
I-1
sg8
I21
sa(dp15
g7
I-1
sg8
I21
sa(dp16
g7
I71
sg8
I66
sa(dp17
g7
I348
sg8
I66
sa(dp18
g7
I492
sg8
I65
sa(dp19
g7
I636
sg8
I64
sass."
Layer: 2
Layer: 3
EndChar

StartChar: uni00BF
Encoding: 65662 191 152
GlifName: uni00B_F_
Width: 460
VWidth: 0
Flags: HW
HStem: -14 128<188.5 233.5 188.5 283.5> 303 220<134 263> 560 151<176 218>
VStem: 122 151<615 657> 134 129<413 523 413 523 413 523> 302 128<170 242.5>
LayerCount: 4
Back
Fore
SplineSet
30 78 m 257
 112 163 l 257xec
 133 135 167 114 210 114 c 256
 257 114 302 144 302 196 c 256
 302 289 251 301 134 303 c 257
 134 523 l 257
 263 523 l 257
 263 413 l 257
 263 413 430 400 430 208 c 256
 430 72 349 -14 218 -14 c 256
 110 -14 60 40 30 78 c 257
122 636 m 256xf4
 122 678 155 711 197 711 c 256
 239 711 273 678 273 636 c 256
 273 594 239 560 197 560 c 256
 155 560 122 594 122 636 c 256xf4
EndSplineSet
PickledDataWithLists: "(dp1
S'com.fontlab.hintData'
p2
(dp3
S'vhints'
p4
(lp5
(dp6
S'position'
p7
I122
sS'width'
p8
I151
sa(dp9
g7
I134
sg8
I129
sa(dp10
g7
I302
sg8
I128
sasS'hhints'
p11
(lp12
(dp13
g7
I-14
sg8
I128
sa(dp14
g7
I303
sg8
I220
sa(dp15
g7
I560
sg8
I151
sass."
Layer: 2
Layer: 3
EndChar

StartChar: uni00C5
Encoding: 65668 197 158
GlifName: uni00C_5
Width: 516
VWidth: 0
Flags: HW
HStem: 0 21<26 164 26 26 353 490 353 353> 669 64 679 20<339 339 339 339> 797 64<260 278>
VStem: 155 15<582 582> 173 64<756 774 756 791.5> 301 64<756 774>
LayerCount: 4
Back
Fore
SplineSet
173 765 m 256xbe
 173 818 216 861 269 861 c 256
 322 861 365 818 365 765 c 256
 365 739 355 716 339 699 c 257
 339 699 l 257
 490 0 l 257
 353 0 l 257
 333 85 l 257
 239 85 l 257
 269 223 l 257
 305 223 l 257
 200 698 l 257
 183 715 173 739 173 765 c 256xbe
237 765 m 256
 237 747 251 733 269 733 c 256xde
 287 733 301 747 301 765 c 256
 301 783 287 797 269 797 c 256
 251 797 237 783 237 765 c 256
26 0 m 257
 155 582 l 257
 170 582 l 257
 230 302 l 257
 164 0 l 257
 26 0 l 257
EndSplineSet
PickledDataWithLists: "(dp1
S'com.fontlab.hintData'
p2
(dp3
S'vhints'
p4
(lp5
(dp6
S'position'
p7
I155
sS'width'
p8
I15
sa(dp9
g7
I173
sg8
I64
sa(dp10
g7
I301
sg8
I64
sasS'hhints'
p11
(lp12
(dp13
g7
I0
sg8
I21
sa(dp14
g7
I669
sg8
I64
sa(dp15
g7
I679
sg8
I20
sa(dp16
g7
I797
sg8
I64
sass."
Layer: 2
Layer: 3
EndChar

StartChar: uni00C6
Encoding: 65669 198 159
GlifName: uni00C_6
Width: 727
VWidth: 0
Flags: HW
HStem: 0 141<478 701 478 701> 277 141<478 607 478 607> 560 140<320 337 320 320 478 478 478 483 483 701>
VStem: 337 141<141 148 148 148 268 277 418 560>
LayerCount: 4
Back
Fore
SplineSet
26 0 m 257
 206 700 l 257
 701 700 l 257
 701 560 l 257
 483 560 l 257
 478 560 l 257
 478 418 l 257
 607 418 l 257
 607 277 l 257
 478 277 l 257
 478 141 l 257
 701 141 l 257
 701 0 l 257
 337 0 l 257
 337 148 l 257
 272 148 l 257
 301 268 l 257
 337 268 l 257
 337 560 l 257
 320 560 l 257
 182 0 l 257
 26 0 l 257
EndSplineSet
PickledDataWithLists: "(dp1
S'com.fontlab.hintData'
p2
(dp3
S'vhints'
p4
(lp5
(dp6
S'position'
p7
I337
sS'width'
p8
I141
sasS'hhints'
p9
(lp10
(dp11
g7
I0
sg8
I141
sa(dp12
g7
I277
sg8
I141
sa(dp13
g7
I560
sg8
I140
sass."
Layer: 2
Layer: 3
EndChar

StartChar: uni00D0
Encoding: 65679 208 169
GlifName: uni00D_0
Width: 501
VWidth: 0
Flags: HW
HStem: 0 21<83 224 83 83 278 308> 292 128<26 83 26 83 224 280> 680 20<83 224 224 224 278 349.5>
VStem: 83 141<0 292 0 292 420 700> 334 141<197 503>
LayerCount: 4
Back
Fore
SplineSet
278 0 m 257
 278 141 l 257
 284 141 333 149 334 197 c 258
 334 503 l 258
 334 508 326 558 278 559 c 257
 278 700 l 257
 421 700 475 566 475 503 c 258
 475 197 l 258
 475 50 338 0 278 0 c 257
26 292 m 257
 26 420 l 257
 83 420 l 257
 83 700 l 257
 224 700 l 257
 224 420 l 257
 280 420 l 257
 280 292 l 257
 224 292 l 257
 224 0 l 257
 83 0 l 257
 83 292 l 257
 26 292 l 257
EndSplineSet
PickledDataWithLists: "(dp1
S'com.fontlab.hintData'
p2
(dp3
S'vhints'
p4
(lp5
(dp6
S'position'
p7
I83
sS'width'
p8
I141
sa(dp9
g7
I334
sg8
I141
sasS'hhints'
p10
(lp11
(dp12
g7
I0
sg8
I21
sa(dp13
g7
I292
sg8
I128
sa(dp14
g7
I680
sg8
I20
sass."
Layer: 2
Layer: 3
EndChar

StartChar: uni00D7
Encoding: 65686 215 176
GlifName: uni00D_7
Width: 697
VWidth: 0
Flags: HW
LayerCount: 4
Back
Fore
SplineSet
100 578 m 257
 189 667 l 257
 349 507 l 257
 508 666 l 257
 597 577 l 257
 438 418 l 257
 597 259 l 257
 507 170 l 257
 349 328 l 257
 190 168 l 257
 101 257 l 257
 260 417 l 257
 100 578 l 257
EndSplineSet
Layer: 2
Layer: 3
EndChar

StartChar: uni00D8
Encoding: 65687 216 177
GlifName: uni00D_8
Width: 662
VWidth: 0
Flags: HW
HStem: -5 142<301.5 304 301.5 304 359 361.5 301.5 389> 564 141<239 305 239 359>
VStem: 108 141<356 508> 415 141<195 347 347 347>
LayerCount: 4
Back
Fore
SplineSet
0 131 m 257
 108 228 l 257
 108 524 l 258
 108 584 173 705 305 705 c 257
 305 564 l 257
 259 563 249 513 249 508 c 258
 249 356 l 257
 415 505 l 257
 415 508 l 258
 415 513 405 563 359 564 c 257
 359 705 l 257
 441 705 497 658 528 607 c 257
 584 658 l 257
 662 570 l 257
 556 474 l 257
 556 195 l 258
 556 51 419 -5 359 -5 c 257
 359 137 l 257
 364 137 414 149 415 195 c 258
 415 347 l 257
 249 197 l 257
 249 195 l 258
 249 149 299 137 304 137 c 257
 304 -5 l 257
 261 -5 178 24 135 94 c 257
 78 43 l 257
 0 131 l 257
EndSplineSet
PickledDataWithLists: "(dp1
S'com.fontlab.hintData'
p2
(dp3
S'vhints'
p4
(lp5
(dp6
S'position'
p7
I108
sS'width'
p8
I141
sa(dp9
g7
I415
sg8
I141
sasS'hhints'
p10
(lp11
(dp12
g7
I-5
sg8
I142
sa(dp13
g7
I564
sg8
I141
sass."
Layer: 2
Layer: 3
EndChar

StartChar: uni00DE
Encoding: 65693 222 183
GlifName: uni00D_E_
Width: 474
VWidth: 0
Flags: HW
HStem: 0 21<26 167 26 26> 0 21<26 167 26 26> 208 139<221 254 254 257.5 221 299.5> 451 139<221 254 221 311.5> 680 20<26 167 167 167>
VStem: 26 141<0 700 0 700> 305 143<373 423.5>
LayerCount: 4
Back
Fore
SplineSet
221 208 m 257
 221 347 l 257x3e
 254 347 l 258
 261 347 305 348 305 398 c 256
 305 449 263 451 254 451 c 258
 221 451 l 257
 221 590 l 257
 402 590 448 516 448 402 c 256
 448 259 378 208 221 208 c 257
26 0 m 257xbe
 26 700 l 257
 167 700 l 257
 167 0 l 257
 26 0 l 257xbe
EndSplineSet
PickledDataWithLists: "(dp1
S'com.fontlab.hintData'
p2
(dp3
S'vhints'
p4
(lp5
(dp6
S'position'
p7
I26
sS'width'
p8
I141
sa(dp9
g7
I305
sg8
I143
sasS'hhints'
p10
(lp11
(dp12
g7
I0
sg8
I21
sa(dp13
g7
I0
sg8
I21
sa(dp14
g7
I208
sg8
I139
sa(dp15
g7
I451
sg8
I139
sa(dp16
g7
I680
sg8
I20
sass."
Layer: 2
Layer: 3
EndChar

StartChar: uni00DF
Encoding: 65694 223 184
GlifName: uni00D_F_
Width: 522
VWidth: 0
Flags: HW
HStem: 0 109<26 327 199 327 199 327> 586 119<199.5 242>
VStem: 26 129<0 457 457 457> 191 114<355 364.5 355 408.5> 294 112<507 518 405 519 405 545.5> 379 117<136.5 175.5>
LayerCount: 4
Back
Fore
SplineSet
26 0 m 257
 26 457 l 258
 27 531 16 705 226 705 c 256
 396 705 406 575 406 518 c 258
 406 405 l 257xe8
 342 406 l 257
 308 400 305 368 305 361 c 256
 305 349 310 326 391 299 c 256
 441 282 496 243 496 160 c 256
 496 57 420 0 327 0 c 258
 199 0 l 257
 199 109 l 257
 327 109 l 258
 342 110 379 120 379 153 c 256
 379 198 331 200 276 228 c 256
 228 252 191 287 191 371 c 256xf4
 191 446 244 489 294 507 c 257
 294 519 l 258
 294 572 259 586 225 586 c 256
 174 586 155 554 155 498 c 258
 155 0 l 257xe8
 26 0 l 257
EndSplineSet
PickledDataWithLists: "(dp1
S'com.fontlab.hintData'
p2
(dp3
S'vhints'
p4
(lp5
(dp6
S'position'
p7
I26
sS'width'
p8
I129
sa(dp9
g7
I191
sg8
I114
sa(dp10
g7
I294
sg8
I112
sa(dp11
g7
I379
sg8
I117
sasS'hhints'
p12
(lp13
(dp14
g7
I0
sg8
I109
sa(dp15
g7
I586
sg8
I119
sass."
Layer: 2
Layer: 3
EndChar

StartChar: uni00E6
Encoding: 65701 230 191
GlifName: uni00E_6
Width: 666
VWidth: 0
Flags: HW
HStem: 1 112<163 180 163 180 229 232 163 229> 208 116<384 525 384 639 384 525> 400 116<424 426 426 429>
VStem: 26 101<139 149 149 162 139 180 139 196.5> 268 116<149 208 132 227 132 227 351 363 363 373> 525 114<324 369 369 378 208 382.5>
LayerCount: 4
Back
Fore
SplineSet
26 110 m 258
 26 180 l 258
 26 213 33 233 75 257 c 256
 118 282 268 311 268 351 c 258
 268 363 l 258
 268 387 266 407 231 407 c 258
 178 407 l 258
 155 407 138 390 138 353 c 258
 138 349 l 257
 33 389 l 257
 33 391 l 258
 33 462 110 519 178 519 c 258
 233 519 l 258
 273 519 305 504 329 483 c 257
 353 502 385 516 424 516 c 258
 429 516 l 257
 429 400 l 257
 426 400 l 258
 400 400 387 385 384 373 c 258
 384 324 l 257
 525 324 l 257
 525 369 l 258
 525 396 502 402 482 402 c 258
 478 402 l 257
 478 516 l 257
 484 516 l 258
 554 516 639 450 639 378 c 258
 639 208 l 257
 384 208 l 257
 384 143 l 258
 384 121 400 109 425 108 c 258
 484 108 l 258
 517 108 536 134 541 157 c 257
 640 120 l 257
 624 55 555 0 484 0 c 258
 425 0 l 258
 380 0 345 9 321 30 c 257
 298 12 268 1 232 1 c 258
 229 1 l 257
 229 113 l 257
 232 113 l 258
 262 114 268 146 268 149 c 258
 268 227 l 257
 230 205 153 190 139 183 c 256
 133 180 127 173 127 162 c 258
 127 149 l 258
 127 129 137 113 163 113 c 258
 180 113 l 257
 180 1 l 257
 83 1 26 53 26 110 c 258
EndSplineSet
PickledDataWithLists: "(dp1
S'com.fontlab.hintData'
p2
(dp3
S'vhints'
p4
(lp5
(dp6
S'position'
p7
I26
sS'width'
p8
I101
sa(dp9
g7
I268
sg8
I116
sa(dp10
g7
I525
sg8
I114
sasS'hhints'
p11
(lp12
(dp13
g7
I1
sg8
I112
sa(dp14
g7
I208
sg8
I116
sa(dp15
g7
I400
sg8
I116
sass."
Layer: 2
Layer: 3
EndChar

StartChar: uni00EC
Encoding: 65707 236 197
GlifName: uni00E_C_
Width: 199
VWidth: 0
Flags: HW
HStem: 0 21<39 161 39 39> 0 21<39 161 39 39> 496 20<39 161 161 161>
VStem: 39 122<0 516>
LayerCount: 4
Back
Fore
SplineSet
39 0 m 257
 39 516 l 257
 161 516 l 257
 161 0 l 257xb0
 39 0 l 257
-20 729 m 257
 108 729 l 257
 144 577 l 257
 54 577 l 257
 -20 729 l 257
EndSplineSet
PickledDataWithLists: "(dp1
S'com.fontlab.hintData'
p2
(dp3
S'vhints'
p4
(lp5
(dp6
S'position'
p7
I39
sS'width'
p8
I122
sasS'hhints'
p9
(lp10
(dp11
g7
I0
sg8
I21
sa(dp12
g7
I0
sg8
I21
sa(dp13
g7
I496
sg8
I20
sass."
Layer: 2
Layer: 3
EndChar

StartChar: uni00ED
Encoding: 65708 237 198
GlifName: uni00E_D_
Width: 199
VWidth: 0
Flags: HW
HStem: 0 21<39 161 39 39> 0 21<39 161 39 39> 496 20<39 161 161 161>
VStem: 39 122<0 516>
LayerCount: 4
Back
Fore
SplineSet
39 0 m 257
 39 516 l 257
 161 516 l 257
 161 0 l 257xb0
 39 0 l 257
54 577 m 257
 90 729 l 257
 218 729 l 257
 144 577 l 257
 54 577 l 257
EndSplineSet
PickledDataWithLists: "(dp1
S'com.fontlab.hintData'
p2
(dp3
S'vhints'
p4
(lp5
(dp6
S'position'
p7
I39
sS'width'
p8
I122
sasS'hhints'
p9
(lp10
(dp11
g7
I0
sg8
I21
sa(dp12
g7
I0
sg8
I21
sa(dp13
g7
I496
sg8
I20
sass."
Layer: 2
Layer: 3
EndChar

StartChar: uni00EF
Encoding: 65710 239 200
GlifName: uni00E_F_
Width: 199
VWidth: 0
Flags: HW
HStem: 0 21<39 161 39 39> 0 21<39 161 39 39> 496 20<39 161 161 161> 576 151<-7 35 163 205>
VStem: -61 150<630 672> 39 122<0 516> 109 150<630 672>
LayerCount: 4
Back
Fore
SplineSet
39 0 m 257
 39 516 l 257
 161 516 l 257
 161 0 l 257xb4
 39 0 l 257
109 651 m 256x32
 109 693 142 727 184 727 c 256
 226 727 259 693 259 651 c 256
 259 609 226 576 184 576 c 256
 142 576 109 609 109 651 c 256x32
-61 651 m 256x38
 -61 693 -28 727 14 727 c 256
 56 727 89 693 89 651 c 256
 89 609 56 576 14 576 c 256
 -28 576 -61 609 -61 651 c 256x38
EndSplineSet
PickledDataWithLists: "(dp1
S'com.fontlab.hintData'
p2
(dp3
S'vhints'
p4
(lp5
(dp6
S'position'
p7
I-61
sS'width'
p8
I150
sa(dp9
g7
I39
sg8
I122
sa(dp10
g7
I109
sg8
I150
sasS'hhints'
p11
(lp12
(dp13
g7
I0
sg8
I21
sa(dp14
g7
I0
sg8
I21
sa(dp15
g7
I496
sg8
I20
sa(dp16
g7
I576
sg8
I151
sass."
Layer: 2
Layer: 3
EndChar

StartChar: uni00F0
Encoding: 65711 240 201
GlifName: uni00F_0
Width: 420
VWidth: 0
Flags: HW
HStem: -1 118<132 192 186 192 233 239 186 233> 398 118<169.5 192 186 192 233 239 186 233>
VStem: 28 120<144.5 154 154 363> 275 117<152 363 363 364 364 371.5>
LayerCount: 4
Back
Fore
SplineSet
192 598 m 257
 242 614 l 257
 230 627 214 637 192 647 c 257
 192 714 l 257
 250 703 297 679 330 641 c 257
 380 657 l 257
 398 599 l 257
 364 588 l 257
 383 548 392 500 392 442 c 258
 392 376 l 257
 392 364 l 257
 392 141 l 258
 392 96 343 -1 239 -1 c 258
 233 -1 l 257
 233 117 l 257
 239 117 l 258
 270 118 275 141 275 152 c 258
 275 363 l 258
 275 380 269 398 239 398 c 258
 233 398 l 257
 233 516 l 257
 239 516 l 258
 251 516 262 515 273 512 c 257
 271 530 270 545 267 558 c 257
 210 541 l 257
 192 598 l 257
28 141 m 258
 28 376 l 258
 28 421 79 516 186 516 c 258
 192 516 l 257
 192 398 l 257
 186 398 l 258
 153 398 148 373 148 363 c 258
 148 154 l 258
 148 135 156 117 186 117 c 258
 192 117 l 257
 192 -1 l 257
 186 -1 l 258
 78 -1 28 97 28 141 c 258
EndSplineSet
PickledDataWithLists: "(dp1
S'com.fontlab.hintData'
p2
(dp3
S'vhints'
p4
(lp5
(dp6
S'position'
p7
I28
sS'width'
p8
I120
sa(dp9
g7
I275
sg8
I117
sasS'hhints'
p10
(lp11
(dp12
g7
I-1
sg8
I118
sa(dp13
g7
I398
sg8
I118
sass."
Layer: 2
Layer: 3
EndChar

StartChar: uni00F7
Encoding: 65718 247 208
GlifName: uni00F_7
Width: 650
VWidth: 0
Flags: HW
HStem: 40 151 228 127<100 550 100 550> 393 151
VStem: 213 150
LayerCount: 4
Back
Fore
SplineSet
100 228 m 257
 100 355 l 257
 550 355 l 257
 550 228 l 257
 100 228 l 257
EndSplineSet
Refer: 41 46 N 1 0 0 1 196 415 2
Refer: 41 46 N 1 0 0 1 196 62 2
PickledDataWithLists: "(dp1
S'com.fontlab.hintData'
p2
(dp3
S'vhints'
p4
(lp5
(dp6
S'position'
p7
I213
sS'width'
p8
I150
sasS'hhints'
p9
(lp10
(dp11
g7
I40
sg8
I151
sa(dp12
g7
I228
sg8
I127
sa(dp13
g7
I393
sg8
I151
sass."
Layer: 2
Layer: 3
EndChar

StartChar: uni00F8
Encoding: 65719 248 209
GlifName: uni00F_8
Width: 498
VWidth: 0
Flags: HW
HStem: -1 118<195 231 225 231 272 278 225 272> 398 118<208.5 231 225 231 225 272 272 278>
VStem: 67 120<253 363 253 376 253 398.5> 314 117<152 261 261 261>
LayerCount: 4
Back
Fore
SplineSet
0 82 m 257
 67 143 l 257
 67 376 l 258
 67 421 118 516 225 516 c 258
 231 516 l 257
 231 398 l 257
 225 398 l 258
 192 398 187 373 187 363 c 258
 187 253 l 257
 314 370 l 257
 312 384 304 398 278 398 c 258
 272 398 l 257
 272 516 l 257
 278 516 l 258
 336 516 378 486 402 451 c 257
 445 490 l 257
 498 430 l 257
 431 369 l 257
 431 141 l 258
 431 96 382 -1 278 -1 c 258
 272 -1 l 257
 272 117 l 257
 278 117 l 258
 309 118 314 141 314 152 c 258
 314 261 l 257
 188 145 l 257
 190 130 200 117 225 117 c 258
 231 117 l 257
 231 -1 l 257
 225 -1 l 258
 165 -1 123 29 98 63 c 257
 53 22 l 257
 0 82 l 257
EndSplineSet
PickledDataWithLists: "(dp1
S'com.fontlab.hintData'
p2
(dp3
S'vhints'
p4
(lp5
(dp6
S'position'
p7
I67
sS'width'
p8
I120
sa(dp9
g7
I314
sg8
I117
sasS'hhints'
p10
(lp11
(dp12
g7
I-1
sg8
I118
sa(dp13
g7
I398
sg8
I118
sass."
Layer: 2
Layer: 3
EndChar

StartChar: uni00FE
Encoding: 65725 254 215
GlifName: uni00F_E_
Width: 422
VWidth: 0
Flags: HW
HStem: 0 118<203 232 203 234> 398 118<196 228 196 228> 680 20<30 155 155 155>
VStem: 30 125<-182 700 -182 700> 276 120<143 372 372 375>
LayerCount: 4
Back
Fore
SplineSet
196 398 m 257
 196 516 l 257
 228 516 l 258
 335 516 396 431 396 375 c 258
 396 139 l 258
 396 86 345 0 232 0 c 258
 203 0 l 257
 203 118 l 257
 234 118 l 258
 271 119 276 134 276 143 c 258
 276 372 l 258
 276 385 258 398 228 398 c 258
 196 398 l 257
30 -182 m 257
 30 700 l 257
 155 700 l 257
 155 -182 l 257
 30 -182 l 257
EndSplineSet
PickledDataWithLists: "(dp1
S'com.fontlab.hintData'
p2
(dp3
S'vhints'
p4
(lp5
(dp6
S'position'
p7
I30
sS'width'
p8
I125
sa(dp9
g7
I276
sg8
I120
sasS'hhints'
p10
(lp11
(dp12
g7
I0
sg8
I118
sa(dp13
g7
I398
sg8
I118
sa(dp14
g7
I680
sg8
I20
sass."
Layer: 2
Layer: 3
EndChar

StartChar: uni0111
Encoding: 65740 273 230
GlifName: uni0111
Width: 414
VWidth: 0
Flags: HW
HStem: 0 118<130 210 182 210 182 258 182 384> 398 118<180 210 180 210> 542 127 678 20<258 384 384 384>
VStem: 30 118<142 143 143 373> 258 126<0 539 0 539 666 698>
LayerCount: 4
Back
Fore
SplineSet
30 141 m 258
 30 377 l 257
 31 422 79 516 180 516 c 258
 210 516 l 257
 210 398 l 257
 180 398 l 257
 153 397 148 375 148 373 c 258
 148 143 l 257
 148 141 154 118 182 118 c 258
 210 118 l 257
 210 0 l 257
 182 0 l 258
 78 0 30 97 30 141 c 258
194 539 m 257
 194 666 l 257
 258 666 l 257
 258 698 l 257
 384 698 l 257
 384 666 l 257
 448 666 l 257
 448 539 l 257
 384 539 l 257
 384 0 l 257
 258 0 l 257
 258 539 l 257
 194 539 l 257
EndSplineSet
PickledDataWithLists: "(dp1
S'com.fontlab.hintData'
p2
(dp3
S'vhints'
p4
(lp5
(dp6
S'position'
p7
I30
sS'width'
p8
I118
sa(dp9
g7
I258
sg8
I126
sasS'hhints'
p10
(lp11
(dp12
g7
I0
sg8
I118
sa(dp13
g7
I398
sg8
I118
sa(dp14
g7
I542
sg8
I127
sa(dp15
g7
I678
sg8
I20
sass."
Layer: 2
Layer: 3
EndChar

StartChar: uni0131
Encoding: 65758 305 248
GlifName: uni0131
Width: 174
VWidth: 0
Flags: HW
LayerCount: 4
Back
Fore
SplineSet
26 0 m 257
 26 516 l 257
 148 516 l 257
 148 0 l 257
 26 0 l 257
EndSplineSet
Layer: 2
Layer: 3
EndChar

StartChar: uni0141
Encoding: 65767 321 257
GlifName: uni0141
Width: 530
VWidth: 0
Flags: HW
HStem: 0 139<270 505 270 505> 680 20<129 270 270 270>
VStem: 129 141<139 233 233 233 492 700>
LayerCount: 4
Back
Fore
SplineSet
26 302 m 257
 129 382 l 257
 129 700 l 257
 270 700 l 257
 270 492 l 257
 348 553 l 257
 420 460 l 257
 270 343 l 257
 270 139 l 257
 505 139 l 257
 505 0 l 257
 129 0 l 257
 129 233 l 257
 98 209 l 257
 26 302 l 257
EndSplineSet
PickledDataWithLists: "(dp1
S'com.fontlab.hintData'
p2
(dp3
S'vhints'
p4
(lp5
(dp6
S'position'
p7
I129
sS'width'
p8
I141
sasS'hhints'
p9
(lp10
(dp11
g7
I0
sg8
I139
sa(dp12
g7
I680
sg8
I20
sass."
Layer: 2
Layer: 3
EndChar

StartChar: uni0142
Encoding: 65768 322 258
GlifName: uni0142
Width: 424
VWidth: 0
Flags: HW
HStem: 0 21 678 20
VStem: 147 131
LayerCount: 4
Back
Fore
SplineSet
26 302 m 257
 326 536 l 257
 398 443 l 257
 98 209 l 257
 26 302 l 257
EndSplineSet
Refer: 103 108 N 1 0 0 1 117 0 2
PickledDataWithLists: "(dp1
S'com.fontlab.hintData'
p2
(dp3
S'vhints'
p4
(lp5
(dp6
S'position'
p7
I147
sS'width'
p8
I131
sasS'hhints'
p9
(lp10
(dp11
g7
I0
sg8
I21
sa(dp12
g7
I678
sg8
I20
sass."
Layer: 2
Layer: 3
EndChar

StartChar: uni0152
Encoding: 65779 338 269
GlifName: uni0152
Width: 724
VWidth: 0
Flags: HW
HStem: -5 142 564 141
VStem: 26 141<200 503> 333 141
LayerCount: 4
Back
Fore
SplineSet
277 0 m 257
 277 142 l 257
 334 142 l 257
 334 559 l 257
 277 559 l 257
 277 700 l 257
 698 700 l 257
 698 560 l 257
 475 560 l 257
 475 418 l 257
 604 418 l 257
 604 277 l 257
 475 277 l 257
 475 141 l 257
 698 141 l 257
 698 0 l 257
 277 0 l 257
26 200 m 258
 26 519 l 258
 26 579 91 700 223 700 c 257
 223 559 l 257
 177 558 167 508 167 503 c 258
 167 200 l 258
 167 154 217 142 222 142 c 257
 222 0 l 257
 162 0 26 56 26 200 c 258
EndSplineSet
PickledDataWithLists: "(dp1
S'com.fontlab.hintData'
p2
(dp3
S'vhints'
p4
(lp5
(dp6
S'position'
p7
I26
sS'width'
p8
I141
sa(dp9
g7
I333
sg8
I141
sasS'hhints'
p10
(lp11
(dp12
g7
I-5
sg8
I142
sa(dp13
g7
I564
sg8
I141
sass."
Layer: 2
Layer: 3
EndChar

StartChar: uni0153
Encoding: 65780 339 270
GlifName: uni0153
Width: 671
VWidth: 0
Flags: HW
HStem: -1 114<130 190 184 190 231 237 184 231> 208 116<395 530 395 644 395 530> 398 118<167.5 190 184 190 231 237 184 231>
VStem: 26 120<141 142 142 373> 273 122<140 141 141 208 324 369> 530 114<324 369 369 378>
LayerCount: 4
Back
Fore
SplineSet
231 -1 m 257
 231 113 l 257
 237 113 l 258
 268 114 273 138 273 140 c 258
 273 372 l 258
 273 375 267 398 237 398 c 258
 231 398 l 257
 231 516 l 257
 237 516 l 258
 277 516 309 502 333 482 c 257
 358 502 390 516 429 516 c 258
 434 516 l 257
 434 400 l 257
 431 400 l 258
 402 400 395 380 395 369 c 258
 395 324 l 257
 530 324 l 257
 530 369 l 258
 530 396 507 402 487 402 c 258
 483 402 l 257
 483 516 l 257
 489 516 l 258
 559 516 644 450 644 378 c 258
 644 208 l 257
 395 208 l 257
 395 141 l 258
 395 138 402 109 430 108 c 258
 489 108 l 258
 519 108 541 132 545 153 c 258
 546 157 l 257
 645 120 l 257
 644 118 l 257
 629 54 559 0 489 0 c 258
 430 0 l 258
 390 0 359 14 334 34 c 257
 310 14 277 -1 237 -1 c 258
 231 -1 l 257
26 141 m 258
 26 376 l 258
 26 421 77 516 184 516 c 258
 190 516 l 257
 190 398 l 257
 184 398 l 258
 151 398 146 374 146 373 c 258
 146 142 l 258
 146 139 154 113 184 113 c 258
 190 113 l 257
 190 -1 l 257
 184 -1 l 258
 76 -1 26 97 26 141 c 258
EndSplineSet
PickledDataWithLists: "(dp1
S'com.fontlab.hintData'
p2
(dp3
S'vhints'
p4
(lp5
(dp6
S'position'
p7
I26
sS'width'
p8
I120
sa(dp9
g7
I273
sg8
I122
sa(dp10
g7
I530
sg8
I114
sasS'hhints'
p11
(lp12
(dp13
g7
I-1
sg8
I114
sa(dp14
g7
I208
sg8
I116
sa(dp15
g7
I398
sg8
I118
sass."
Layer: 2
Layer: 3
EndChar

StartChar: uni0192
Encoding: 65812 402 302
GlifName: uni0192
Width: 382
VWidth: 0
Flags: HW
HStem: -168 105<53 108 53 109 26 108> 400 116<78 141 78 141> 579 117<296 329 296 296>
VStem: 141 122<-36 -30 -30 0 0 7 7 400 516 552>
LayerCount: 4
Back
Fore
SplineSet
26 -168 m 257
 53 -63 l 257
 108 -63 l 258
 136 -62 141 -39 141 -36 c 258
 141 0 l 257
 141 7 l 257
 141 400 l 257
 78 400 l 257
 78 516 l 257
 141 516 l 257
 141 552 l 258
 141 597 192 695 295 696 c 258
 356 696 l 257
 329 579 l 257
 296 579 l 258
 268 578 263 555 263 552 c 258
 263 515 l 257
 329 516 l 257
 329 400 l 257
 263 400 l 257
 263 7 l 257
 263 0 l 257
 263 -30 l 258
 263 -92 221 -168 109 -168 c 258
 26 -168 l 257
EndSplineSet
PickledDataWithLists: "(dp1
S'com.fontlab.hintData'
p2
(dp3
S'vhints'
p4
(lp5
(dp6
S'position'
p7
I141
sS'width'
p8
I122
sasS'hhints'
p9
(lp10
(dp11
g7
I-168
sg8
I105
sa(dp12
g7
I400
sg8
I116
sa(dp13
g7
I579
sg8
I117
sass."
Layer: 2
Layer: 3
EndChar

StartChar: uni02C6
Encoding: 65817 710 307
GlifName: uni02C_6
Width: 270
VWidth: 0
Flags: W
HStem: 514 152<26 167 101 107 162 162 162 167 101 244>
VStem: 26 218<514 514>
LayerCount: 4
Back
Fore
SplineSet
26 514 m 257
 101 666 l 257
 167 666 l 257
 244 514 l 257
 162 514 l 257
 134 571 l 257
 107 514 l 257
 26 514 l 257
EndSplineSet
Validated: 1
PickledDataWithLists: "(dp1
S'com.fontlab.hintData'
p2
(dp3
S'vhints'
p4
(lp5
(dp6
S'position'
p7
I26
sS'width'
p8
I218
sasS'hhints'
p9
(lp10
(dp11
g7
I514
sg8
I152
sass."
Layer: 2
Layer: 3
EndChar

StartChar: uni02C7
Encoding: 65818 711 308
GlifName: uni02C_7
Width: 270
VWidth: 0
Flags: W
HStem: 514 152<101 107 162 167 101 101>
VStem: 26 218<666 666>
LayerCount: 4
Back
Fore
SplineSet
26 666 m 257
 107 666 l 257
 134 609 l 257
 162 666 l 257
 244 666 l 257
 167 514 l 257
 101 514 l 257
 26 666 l 257
EndSplineSet
Validated: 1
PickledDataWithLists: "(dp1
S'com.fontlab.hintData'
p2
(dp3
S'vhints'
p4
(lp5
(dp6
S'position'
p7
I26
sS'width'
p8
I218
sasS'hhints'
p9
(lp10
(dp11
g7
I514
sg8
I152
sass."
Layer: 2
Layer: 3
EndChar

StartChar: uni02C9
Encoding: 65819 713 309
GlifName: uni02C_9
Width: 416
VWidth: 0
Flags: HW
HStem: 514 82<50 366 50 366>
VStem: 50 316<514 596 514 596>
LayerCount: 4
Back
Fore
SplineSet
50 514 m 257
 50 596 l 257
 366 596 l 257
 366 514 l 257
 50 514 l 257
EndSplineSet
PickledDataWithLists: "(dp1
S'com.fontlab.hintData'
p2
(dp3
S'vhints'
p4
(lp5
(dp6
S'position'
p7
I50
sS'width'
p8
I316
sasS'hhints'
p9
(lp10
(dp11
g7
I514
sg8
I82
sass."
Layer: 2
Layer: 3
EndChar

StartChar: uni02D8
Encoding: 65820 728 310
GlifName: uni02D_8
Width: 244
VWidth: 0
Flags: HW
HStem: 430 64<113 131 113 148.5>
VStem: 26 64<517 526 517 526> 154 64<517 526>
LayerCount: 4
Back
Fore
SplineSet
26 526 m 257
 90 526 l 257
 90 508 104 494 122 494 c 256
 140 494 154 508 154 526 c 257
 218 526 l 257
 218 473 175 430 122 430 c 256
 69 430 26 473 26 526 c 257
EndSplineSet
PickledDataWithLists: "(dp1
S'com.fontlab.hintData'
p2
(dp3
S'vhints'
p4
(lp5
(dp6
S'position'
p7
I26
sS'width'
p8
I64
sa(dp9
g7
I154
sg8
I64
sasS'hhints'
p10
(lp11
(dp12
g7
I430
sg8
I64
sass."
Layer: 2
Layer: 3
EndChar

StartChar: uni02D9
Encoding: 65821 729 311
GlifName: uni02D_9
Width: 202
VWidth: 0
Flags: W
HStem: 603 151<80 122>
VStem: 26 150<657 699>
LayerCount: 4
Back
Fore
SplineSet
26 678 m 256
 26 720 59 754 101 754 c 256
 143 754 176 720 176 678 c 256
 176 636 143 603 101 603 c 256
 59 603 26 636 26 678 c 256
EndSplineSet
Validated: 1
PickledDataWithLists: "(dp1
S'com.fontlab.hintData'
p2
(dp3
S'vhints'
p4
(lp5
(dp6
S'position'
p7
I26
sS'width'
p8
I150
sasS'hhints'
p9
(lp10
(dp11
g7
I603
sg8
I151
sass."
Layer: 2
Layer: 3
EndChar

StartChar: uni02DA
Encoding: 65822 730 312
GlifName: uni02D_A_
Width: 244
VWidth: 0
Flags: W
HStem: 430 64<113 131 113 148.5> 558 64<113 131>
VStem: 26 64<517 535 517 552.5> 154 64<517 535>
LayerCount: 4
Back
Fore
SplineSet
90 526 m 256
 90 508 104 494 122 494 c 256
 140 494 154 508 154 526 c 256
 154 544 140 558 122 558 c 256
 104 558 90 544 90 526 c 256
26 526 m 256
 26 579 69 622 122 622 c 256
 175 622 218 579 218 526 c 256
 218 473 175 430 122 430 c 256
 69 430 26 473 26 526 c 256
EndSplineSet
Validated: 1
PickledDataWithLists: "(dp1
S'com.fontlab.hintData'
p2
(dp3
S'vhints'
p4
(lp5
(dp6
S'position'
p7
I26
sS'width'
p8
I64
sa(dp9
g7
I154
sg8
I64
sasS'hhints'
p10
(lp11
(dp12
g7
I430
sg8
I64
sa(dp13
g7
I558
sg8
I64
sass."
Layer: 2
Layer: 3
EndChar

StartChar: uni02DC
Encoding: 65824 732 314
GlifName: uni02D_C_
Width: 333
VWidth: 0
Flags: HW
HStem: 86 101<201.5 234.5> 126 102<86.5 116>
VStem: 26 281<114 114 114 206 206 206>
LayerCount: 4
Back
Fore
SplineSet
26 104 m 257
 26 206 l 257
 54 222 77 228 96 228 c 256x60
 147 228 176 187 227 187 c 256
 249 187 274 195 307 215 c 257
 307 114 l 257xa0
 273 93 246 86 223 86 c 256xa0
 170 86 140 126 92 126 c 256
 74 126 52 120 26 104 c 257
EndSplineSet
PickledDataWithLists: "(dp1
S'com.fontlab.hintData'
p2
(dp3
S'vhints'
p4
(lp5
(dp6
S'position'
p7
I26
sS'width'
p8
I281
sasS'hhints'
p9
(lp10
(dp11
g7
I86
sg8
I101
sa(dp12
g7
I126
sg8
I102
sass."
Layer: 2
Layer: 3
EndChar

StartChar: uni02DD
Encoding: 65825 733 315
GlifName: uni02D_D_
Width: 336
VWidth: 0
Flags: HW
HStem: 605 152<55 109 26 167 55 169 198 252>
VStem: 26 284<605 757>
LayerCount: 4
Back
Fore
SplineSet
26 605 m 257
 55 757 l 257
 167 757 l 257
 109 605 l 257
 26 605 l 257
169 605 m 257
 198 757 l 257
 310 757 l 257
 252 605 l 257
 169 605 l 257
EndSplineSet
PickledDataWithLists: "(dp1
S'com.fontlab.hintData'
p2
(dp3
S'vhints'
p4
(lp5
(dp6
S'position'
p7
I26
sS'width'
p8
I284
sasS'hhints'
p9
(lp10
(dp11
g7
I605
sg8
I152
sass."
Layer: 2
Layer: 3
EndChar

StartChar: uni03C0
Encoding: 65826 960 316
GlifName: uni03C_0
Width: 421
VWidth: 0
Flags: HW
HStem: 0 21 389 127<-28 26 -28 452 148 281 148 148 395 395 395 452>
VStem: 26 122<-4 389 -4 389> 281 114<140 142 142 389>
LayerCount: 4
Back
Fore
SplineSet
-28 389 m 257
 -28 516 l 257
 452 516 l 257
 452 389 l 257
 395 389 l 257
 395 142 l 258
 395 138 401 111 435 108 c 258
 438 108 l 257
 438 -4 l 257
 435 -4 l 257
 338 0 281 63 281 133 c 258
 281 389 l 257
 148 389 l 257
 148 -4 l 257
 26 -4 l 257
 26 389 l 257
 -28 389 l 257
EndSplineSet
PickledDataWithLists: "(dp1
S'com.fontlab.hintData'
p2
(dp3
S'vhints'
p4
(lp5
(dp6
S'position'
p7
I26
sS'width'
p8
I122
sa(dp9
g7
I281
sg8
I114
sasS'hhints'
p10
(lp11
(dp12
g7
I0
sg8
I21
sa(dp13
g7
I389
sg8
I127
sass."
Layer: 2
Layer: 3
EndChar

StartChar: uni2013
Encoding: 65827 8211 317
GlifName: uni2013
Width: 532
VWidth: 0
Flags: HW
HStem: 230 127<26 506 26 506>
LayerCount: 4
Back
Fore
SplineSet
26 230 m 257
 26 357 l 257
 506 357 l 257
 506 230 l 257
 26 230 l 257
EndSplineSet
PickledDataWithLists: "(dp1
S'com.fontlab.hintData'
p2
(dp3
S'hhints'
p4
(lp5
(dp6
S'position'
p7
I230
sS'width'
p8
I127
sass."
Layer: 2
Layer: 3
EndChar

StartChar: uni2014
Encoding: 65828 8212 318
GlifName: uni2014
Width: 906
VWidth: 0
Flags: HW
HStem: 230 127<26 880 26 880>
LayerCount: 4
Back
Fore
SplineSet
26 230 m 257
 26 357 l 257
 880 357 l 257
 880 230 l 257
 26 230 l 257
EndSplineSet
PickledDataWithLists: "(dp1
S'com.fontlab.hintData'
p2
(dp3
S'hhints'
p4
(lp5
(dp6
S'position'
p7
I230
sS'width'
p8
I127
sass."
Layer: 2
Layer: 3
EndChar

StartChar: uni2020
Encoding: 65835 8224 325
GlifName: uni2020
Width: 453
VWidth: 0
Flags: HW
HStem: 450 127<26 156 26 156 297 427>
VStem: 156 141<-56 450 -56 450 577 764>
LayerCount: 4
Back
Fore
SplineSet
26 450 m 257
 26 577 l 257
 156 577 l 257
 156 764 l 257
 297 764 l 257
 297 577 l 257
 427 577 l 257
 427 450 l 257
 297 450 l 257
 297 -56 l 257
 156 -56 l 257
 156 450 l 257
 26 450 l 257
EndSplineSet
PickledDataWithLists: "(dp1
S'com.fontlab.hintData'
p2
(dp3
S'vhints'
p4
(lp5
(dp6
S'position'
p7
I156
sS'width'
p8
I141
sasS'hhints'
p9
(lp10
(dp11
g7
I450
sg8
I127
sass."
Layer: 2
Layer: 3
EndChar

StartChar: uni2021
Encoding: 65836 8225 326
GlifName: uni2021
Width: 453
VWidth: 0
Flags: HW
HStem: 131 127<26 156 26 156 297 427> 450 127<26 156 26 156 297 427>
VStem: 156 141<-56 131 -56 131 258 450 577 764>
LayerCount: 4
Back
Fore
SplineSet
26 131 m 257
 26 258 l 257
 156 258 l 257
 156 450 l 257
 26 450 l 257
 26 577 l 257
 156 577 l 257
 156 764 l 257
 297 764 l 257
 297 577 l 257
 427 577 l 257
 427 450 l 257
 297 450 l 257
 297 258 l 257
 427 258 l 257
 427 131 l 257
 297 131 l 257
 297 -56 l 257
 156 -56 l 257
 156 131 l 257
 26 131 l 257
EndSplineSet
PickledDataWithLists: "(dp1
S'com.fontlab.hintData'
p2
(dp3
S'vhints'
p4
(lp5
(dp6
S'position'
p7
I156
sS'width'
p8
I141
sasS'hhints'
p9
(lp10
(dp11
g7
I131
sg8
I127
sa(dp12
g7
I450
sg8
I127
sass."
Layer: 2
Layer: 3
EndChar

StartChar: uni2022
Encoding: 65837 8226 327
GlifName: uni2022
Width: 352
VWidth: 0
Flags: W
LayerCount: 4
Back
Fore
SplineSet
26 344 m 256
 26 428 92 496 176 496 c 256
 260 496 326 428 326 344 c 256
 326 260 260 194 176 194 c 256
 92 194 26 260 26 344 c 256
EndSplineSet
Validated: 1
Layer: 2
Layer: 3
EndChar

StartChar: uni2030
Encoding: 65839 8240 329
GlifName: uni2030
Width: 897
VWidth: 0
Flags: HW
HStem: 0 65<487 489 488 489 488 489 488 517 517 518 488 519 746 747 775 776> 287 65<488 490 488 490 516 518 488 516 746 748 774 776> 680 20<497 570 570 570>
VStem: 26 68<499 522 522 551 499 592> 178 68<522 551 551 567> 393 68<148 171 171 201 148 242> 546 68<171 201 201 217> 651 68<148 171 171 201 148 242> 804 68<171 201 201 217>
LayerCount: 4
Back
Fore
SplineSet
67 0 m 257
 497 700 l 257
 570 700 l 257
 147 0 l 257
 67 0 l 257
150 350 m 257
 150 415 l 257
 151 415 l 257
 177 421 178 476 178 522 c 258
 178 551 l 258
 178 583 176 631 151 637 c 257
 150 637 l 257
 150 703 l 257
 151 702 l 257
 197 699 246 657 246 528 c 256
 246 378 186 353 152 351 c 257
 150 350 l 257
26 528 m 256
 26 656 75 699 121 702 c 257
 122 703 l 257
 122 637 l 257
 121 637 l 257
 96 631 94 583 94 551 c 258
 94 522 l 258
 94 476 95 421 121 415 c 257
 122 415 l 257
 122 350 l 257
 120 351 l 257
 86 353 26 378 26 528 c 256
516 287 m 257
 516 352 l 257
 518 352 l 258
 564 349 614 307 614 178 c 256
 614 28 553 2 519 0 c 258
 517 0 l 257
 517 65 l 257
 518 65 l 257
 544 71 546 125 546 171 c 258
 546 201 l 258
 546 233 543 281 518 287 c 257
 516 287 l 257
393 178 m 256
 393 306 442 349 488 352 c 258
 490 352 l 257
 490 287 l 257
 488 287 l 257
 463 281 461 233 461 201 c 258
 461 171 l 258
 461 125 462 71 488 65 c 257
 489 65 l 257
 489 0 l 257
 487 0 l 258
 453 2 393 28 393 178 c 256
774 287 m 257
 774 352 l 257
 776 352 l 258
 822 349 872 307 872 178 c 256
 872 28 811 2 777 0 c 258
 775 0 l 257
 775 65 l 257
 776 65 l 257
 802 71 804 125 804 171 c 258
 804 201 l 258
 804 233 801 281 776 287 c 257
 774 287 l 257
651 178 m 256
 651 306 700 349 746 352 c 258
 748 352 l 257
 748 287 l 257
 746 287 l 257
 721 281 719 233 719 201 c 258
 719 171 l 258
 719 125 720 71 746 65 c 257
 747 65 l 257
 747 0 l 257
 745 0 l 258
 711 2 651 28 651 178 c 256
EndSplineSet
PickledDataWithLists: "(dp1
S'com.fontlab.hintData'
p2
(dp3
S'vhints'
p4
(lp5
(dp6
S'position'
p7
I26
sS'width'
p8
I68
sa(dp9
g7
I178
sg8
I68
sa(dp10
g7
I393
sg8
I68
sa(dp11
g7
I546
sg8
I68
sa(dp12
g7
I651
sg8
I68
sa(dp13
g7
I804
sg8
I68
sasS'hhints'
p14
(lp15
(dp16
g7
I0
sg8
I65
sa(dp17
g7
I287
sg8
I65
sa(dp18
g7
I680
sg8
I20
sass."
Layer: 2
Layer: 3
EndChar

StartChar: uni2039
Encoding: 65840 8249 330
GlifName: uni2039
Width: 338
VWidth: 0
Flags: HW
VStem: 26 286<79 292>
LayerCount: 4
Back
Fore
SplineSet
26 292 m 257
 157 500 l 257
 312 500 l 257
 181 292 l 257
 312 79 l 257
 157 79 l 257
 26 292 l 257
EndSplineSet
PickledDataWithLists: "(dp1
S'com.fontlab.hintData'
p2
(dp3
S'vhints'
p4
(lp5
(dp6
S'position'
p7
I26
sS'width'
p8
I286
sass."
Layer: 2
Layer: 3
EndChar

StartChar: uni203A
Encoding: 65841 8250 331
GlifName: uni203A_
Width: 338
VWidth: 0
Flags: HW
VStem: 26 286<79 292 292 500>
LayerCount: 4
Back
Fore
SplineSet
26 79 m 257
 157 292 l 257
 26 500 l 257
 181 500 l 257
 312 292 l 257
 181 79 l 257
 26 79 l 257
EndSplineSet
PickledDataWithLists: "(dp1
S'com.fontlab.hintData'
p2
(dp3
S'vhints'
p4
(lp5
(dp6
S'position'
p7
I26
sS'width'
p8
I286
sass."
Layer: 2
Layer: 3
EndChar

StartChar: uni2044
Encoding: 65842 8260 332
GlifName: uni2044
Width: 560
VWidth: 0
Flags: W
HStem: 682 20<458 534 534 534>
LayerCount: 4
Back
Fore
SplineSet
26 -2 m 257
 458 702 l 257
 534 702 l 257
 109 -2 l 257
 26 -2 l 257
EndSplineSet
Validated: 1
PickledDataWithLists: "(dp1
S'com.fontlab.hintData'
p2
(dp3
S'hhints'
p4
(lp5
(dp6
S'position'
p7
I682
sS'width'
p8
I20
sass."
Layer: 2
Layer: 3
EndChar

StartChar: uni20AC
Encoding: 65843 8364 333
GlifName: uni20A_C_
Width: 567
VWidth: 0
Flags: HW
HStem: 258 59<50 99 50 99 236 408> 376 60<236 408> 558 140<278 278 278 338>
VStem: 99 137<182 202 202 258 178.5 258 317 376 436 488> 381 136<182 186 171 199 514 518>
LayerCount: 4
Back
Fore
SplineSet
50 258 m 257
 50 317 l 257
 99 317 l 257
 99 377 l 257
 50 377 l 257
 50 436 l 257
 99 436 l 257
 99 496 l 258
 99 540 106 576 134 613 c 256
 172 666 217 696 278 698 c 257
 278 558 l 257
 239 543 236 532 236 488 c 258
 236 436 l 257
 408 436 l 257
 408 376 l 257
 236 376 l 257
 236 317 l 257
 408 317 l 257
 408 258 l 257
 236 258 l 257
 236 202 l 258
 236 155 254 154 278 141 c 257
 278 2 l 257
 197 8 168 45 134 90 c 256
 113 118 101 149 99 182 c 258
 99 258 l 257
 50 258 l 257
338 558 m 257
 338 698 l 257
 387 697 426 675 464 636 c 256
 501 598 517 544 517 514 c 257
 380 463 l 257
 381 501 l 258
 381 535 366 549 338 558 c 257
338 2 m 257
 338 142 l 257
 366 151 381 165 381 199 c 258
 380 237 l 257
 517 186 l 257
 517 156 501 102 464 64 c 256
 426 25 387 3 338 2 c 257
EndSplineSet
PickledDataWithLists: "(dp1
S'com.fontlab.hintData'
p2
(dp3
S'vhints'
p4
(lp5
(dp6
S'position'
p7
I99
sS'width'
p8
I137
sa(dp9
g7
I381
sg8
I136
sasS'hhints'
p10
(lp11
(dp12
g7
I258
sg8
I59
sa(dp13
g7
I376
sg8
I60
sa(dp14
g7
I558
sg8
I140
sass."
Layer: 2
Layer: 3
EndChar

StartChar: uni2113
Encoding: 65844 8467 334
GlifName: uni2113
Width: 184
VWidth: 0
Flags: HW
HStem: 680 20<25 156 156 156>
VStem: 25 131<193 700 193 700>
LayerCount: 4
Back
Fore
SplineSet
25 193 m 258
 25 700 l 257
 156 700 l 257
 156 193 l 257
 157 147 207 137 212 137 c 257
 212 -5 l 257
 152 -5 25 49 25 193 c 258
EndSplineSet
PickledDataWithLists: "(dp1
S'com.fontlab.hintData'
p2
(dp3
S'vhints'
p4
(lp5
(dp6
S'position'
p7
I25
sS'width'
p8
I131
sasS'hhints'
p9
(lp10
(dp11
g7
I680
sg8
I20
sass."
Layer: 2
Layer: 3
EndChar

StartChar: uni2122
Encoding: 65845 8482 335
GlifName: uni2122
Width: 403
VWidth: 0
Flags: HW
HStem: 653 47<26 72 26 165 120 165 120 120>
VStem: 72 48<484 653 484 653> 188 48<484 522 484 628> 330 47<484 700 484 700>
LayerCount: 4
Back
Fore
SplineSet
188 484 m 257
 188 628 l 257
 191 628 l 257
 236 522 l 257
 236 484 l 257
 188 484 l 257
188 669 m 257
 188 700 l 257
 225 700 l 257
 281 564 l 257
 313 636 l 257
 317 636 l 257
 317 529 l 257
 298 484 l 257
 265 484 l 257
 188 669 l 257
330 484 m 257
 330 700 l 257
 377 700 l 257
 377 484 l 257
 330 484 l 257
26 653 m 257
 26 700 l 257
 165 700 l 257
 165 653 l 257
 120 653 l 257
 120 484 l 257
 72 484 l 257
 72 653 l 257
 26 653 l 257
EndSplineSet
PickledDataWithLists: "(dp1
S'com.fontlab.hintData'
p2
(dp3
S'vhints'
p4
(lp5
(dp6
S'position'
p7
I72
sS'width'
p8
I48
sa(dp9
g7
I188
sg8
I48
sa(dp10
g7
I330
sg8
I47
sasS'hhints'
p11
(lp12
(dp13
g7
I653
sg8
I47
sass."
Layer: 2
Layer: 3
EndChar

StartChar: uni2126
Encoding: 65846 8486 336
GlifName: uni2126
Width: 420
VWidth: 0
Flags: HW
LayerCount: 4
Back
Fore
SplineSet
13 -1 m 257
 13 62 l 257
 60 62 l 257
 38 90 28 121 28 141 c 258
 28 376 l 258
 28 421 79 516 186 516 c 258
 192 516 l 257
 192 398 l 257
 186 398 l 258
 153 398 148 373 148 363 c 258
 148 154 l 258
 148 135 156 117 186 117 c 258
 192 117 l 257
 192 -1 l 257
 13 -1 l 257
233 -1 m 257
 233 117 l 257
 239 117 l 258
 270 118 275 141 275 152 c 258
 275 363 l 258
 275 380 269 398 239 398 c 258
 233 398 l 257
 233 516 l 257
 239 516 l 258
 342 516 392 421 392 376 c 258
 392 141 l 258
 392 121 382 90 362 62 c 257
 407 62 l 257
 407 -1 l 257
 233 -1 l 257
EndSplineSet
Layer: 2
Layer: 3
EndChar

StartChar: uni212E
Encoding: 65847 8494 337
GlifName: uni212E_
Width: 472
VWidth: 0
Flags: HW
LayerCount: 4
Back
Fore
SplineSet
-3 141 m 258
 -3 377 l 257
 -3 440 80 516 182 516 c 258
 187 516 l 257
 187 400 l 257
 184 400 l 258
 155 400 115 401 115 369 c 258
 115 324 l 257
 302 324 l 257
 302 369 l 258
 302 396 260 402 240 402 c 258
 236 402 l 257
 236 516 l 257
 242 516 l 258
 312 516 416 450 416 378 c 258
 416 212 l 257
 115 212 l 257
 115 141 l 258
 115 124 155 109 183 108 c 258
 188 108 l 257
 188 0 l 257
 183 0 l 258
 79 0 -3 61 -3 141 c 258
236 0 m 257
 236 111 l 257
 242 111 l 258
 273 113 313 132 317 153 c 258
 318 157 l 257
 417 120 l 257
 416 118 l 256
 401 54 312 0 242 0 c 258
 236 0 l 257
EndSplineSet
Layer: 2
Layer: 3
EndChar

StartChar: uni2202
Encoding: 65848 8706 338
GlifName: uni2202
Width: 420
VWidth: 0
Flags: HW
LayerCount: 4
Back
Fore
SplineSet
70 647 m 257
 70 714 l 257
 189 714 276 695 330 641 c 256
 396 575 392 512 392 442 c 258
 392 376 l 257
 392 364 l 257
 392 141 l 258
 392 96 343 -1 239 -1 c 258
 233 -1 l 257
 233 117 l 257
 239 117 l 258
 270 118 275 141 275 152 c 258
 275 363 l 258
 275 380 269 398 239 398 c 258
 233 398 l 257
 233 516 l 257
 239 516 l 258
 251 516 262 515 273 512 c 257
 273 594 182 647 70 647 c 257
28 141 m 258
 28 376 l 258
 28 421 79 516 186 516 c 258
 192 516 l 257
 192 398 l 257
 186 398 l 258
 153 398 148 373 148 363 c 258
 148 154 l 258
 148 135 156 117 186 117 c 258
 192 117 l 257
 192 -1 l 257
 186 -1 l 258
 78 -1 28 97 28 141 c 258
EndSplineSet
Layer: 2
Layer: 3
EndChar

StartChar: uni2206
Encoding: 65849 8710 339
GlifName: uni2206
Width: 414
VWidth: 0
Flags: HW
LayerCount: 4
Back
Fore
SplineSet
113 97 m 257
 206 459 l 257
 299 97 l 257
 113 97 l 257
-8 0 m 257
 419 0 l 257
 238 706 l 257
 174 706 l 257
 -8 0 l 257
EndSplineSet
Layer: 2
Layer: 3
EndChar

StartChar: uni220F
Encoding: 65850 8719 340
GlifName: uni220F_
Width: 458
VWidth: 0
Flags: HW
LayerCount: 4
Back
Fore
SplineSet
2 598 m 257
 35 598 l 257
 35 -140 l 257
 131 -140 l 257
 131 598 l 257
 327 598 l 257
 327 -140 l 257
 423 -140 l 257
 423 598 l 257
 456 598 l 257
 456 694 l 257
 2 694 l 257
 2 598 l 257
EndSplineSet
Layer: 2
Layer: 3
EndChar

StartChar: uni2211
Encoding: 65851 8721 341
GlifName: uni2211
Width: 676
VWidth: 0
Flags: HW
LayerCount: 4
Back
Fore
SplineSet
136 694 m 257
 219 591 l 257
 496 591 l 257
 496 703 l 257
 136 703 l 257
 136 694 l 257
-2 593 m 257
 230 310 l 257
 -1 27 l 257
 -1 17 l 257
 144 17 l 257
 353 261 l 257
 353 358 l 257
 68 703 l 257
 -2 703 l 257
 -2 593 l 257
-2 -28 m 257
 -2 -140 l 257
 496 -140 l 257
 496 -28 l 257
 -2 -28 l 257
EndSplineSet
Layer: 2
Layer: 3
EndChar

StartChar: uni221A
Encoding: 65855 8730 345
GlifName: uni221A_
Width: 560
VWidth: 0
Flags: HW
LayerCount: 4
Back
Fore
SplineSet
6 513 m 257
 181 575 l 257
 359 133 l 257
 488 819 l 257
 554 819 l 257
 403 -2 l 257
 316 -2 l 257
 117 494 l 257
 22 461 l 257
 6 513 l 257
EndSplineSet
Layer: 2
Layer: 3
EndChar

StartChar: uni221E
Encoding: 65856 8734 346
GlifName: uni221E_
Width: 420
VWidth: 0
Flags: HW
LayerCount: 4
Back
Fore
SplineSet
437 167 m 258
 437 425 l 258
 437 474 492 579 610 579 c 258
 616 579 l 257
 616 449 l 257
 610 449 l 258
 574 449 568 422 568 411 c 257
 568 181 l 257
 568 161 577 141 610 141 c 258
 616 141 l 257
 616 11 l 257
 610 11 l 258
 491 11 437 119 437 167 c 258
661 11 m 257
 661 141 l 257
 668 141 l 258
 702 142 708 167 708 179 c 257
 708 411 l 257
 708 429 701 449 668 449 c 258
 661 449 l 257
 661 579 l 257
 668 579 l 258
 781 579 836 474 836 425 c 258
 836 167 l 258
 836 118 782 11 668 11 c 258
 661 11 l 257
28 174 m 258
 28 409 l 258
 28 454 79 549 186 549 c 258
 192 549 l 257
 192 431 l 257
 186 431 l 258
 153 431 148 406 148 396 c 257
 148 187 l 257
 148 168 156 150 186 150 c 258
 192 150 l 257
 192 32 l 257
 186 32 l 258
 78 32 28 130 28 174 c 258
233 32 m 257
 233 150 l 257
 239 150 l 258
 270 151 275 174 275 185 c 257
 275 396 l 257
 275 413 269 431 239 431 c 258
 233 431 l 257
 233 549 l 257
 239 549 l 258
 342 549 392 454 392 409 c 258
 392 174 l 258
 392 129 343 32 239 32 c 258
 233 32 l 257
EndSplineSet
Layer: 2
Layer: 3
EndChar

StartChar: uni222B
Encoding: 65857 8747 347
GlifName: uni222B_
Width: 285
VWidth: 0
Flags: HW
HStem: -205 65<1 3.5 1 31> 754 65<279.5 282>
VStem: 98 89<-59.5 625 -3 625>
LayerCount: 4
Back
Fore
SplineSet
1 -140 m 257
 1 -205 l 257
 61 -205 187 -147 187 -3 c 258
 187 625 l 258
 187 744 277 754 282 754 c 257
 282 819 l 257
 222 819 98 769 98 625 c 258
 98 -3 l 257
 98 -116 6 -140 1 -140 c 257
EndSplineSet
PickledDataWithLists: "(dp1
S'com.fontlab.hintData'
p2
(dp3
S'vhints'
p4
(lp5
(dp6
S'position'
p7
I98
sS'width'
p8
I89
sasS'hhints'
p9
(lp10
(dp11
g7
I-205
sg8
I65
sa(dp12
g7
I754
sg8
I65
sass."
Layer: 2
Layer: 3
EndChar

StartChar: uni2248
Encoding: 65858 8776 348
GlifName: uni2248
Width: 568
VWidth: 0
Flags: HW
LayerCount: 4
Back
Fore
SplineSet
50 164 m 257
 50 297 l 257
 95 323 132 332 163 332 c 256
 250 332 299 259 387 259 c 256
 422 259 464 271 518 304 c 257
 518 173 l 257
 462 139 418 127 381 127 c 256
 289 127 239 200 157 200 c 256
 127 200 92 191 50 164 c 257
50 402 m 257
 50 535 l 257
 95 561 132 570 163 570 c 256
 250 570 299 497 387 497 c 256
 422 497 464 509 518 542 c 257
 518 411 l 257
 462 377 418 365 381 365 c 256
 289 365 239 438 157 438 c 256
 127 438 92 429 50 402 c 257
EndSplineSet
Layer: 2
Layer: 3
EndChar

StartChar: uni2264
Encoding: 65860 8804 350
GlifName: uni2264
Width: 414
VWidth: 0
Flags: HW
LayerCount: 4
Back
Fore
SplineSet
-16 -16 m 257
 434 -16 l 257
 434 -123 l 257
 -16 -123 l 257
 -16 -16 l 257
30 325 m 257
 30 389 l 257
 384 567 l 257
 384 437 l 257
 208 359 l 257
 384 273 l 257
 384 146 l 257
 30 325 l 257
EndSplineSet
Layer: 2
Layer: 3
EndChar

